M48
; DRILL file {KiCad (5.1.10-1-10_14)} date Friday, July 23, 2021 at 11:32:02 AM
; FORMAT={3:3/ absolute / metric / suppress leading zeros}
; #@! TF.CreationDate,2021-07-23T11:32:02+02:00
; #@! TF.GenerationSoftware,Kicad,Pcbnew,(5.1.10-1-10_14)
FMAT,2
METRIC,TZ
T1C0.400
T2C0.500
T3C1.000
T4C1.000
T5C2.500
T6C3.000
%
G90
G05
T1
X70150Y-45700
X70200Y-56200
X71550Y-50150
X74450Y-54700
X74500Y-52000
X77000Y-63300
X77000Y-65050
X77100Y-61200
X77650Y-68000
X78800Y-68000
X78850Y-54200
X78900Y-56500
X79200Y-58150
X80050Y-68000
X81650Y-69550
X82850Y-54660
X82850Y-55950
X82950Y-63450
X82950Y-64650
X83000Y-60050
X83100Y-42950
X83150Y-58300
X83200Y-57000
X83200Y-68050
X84550Y-64750
X84550Y-70500
X85250Y-72200
X86100Y-42950
X86150Y-72200
X86150Y-74800
X86950Y-52450
X86950Y-64750
X88250Y-74800
X88750Y-75900
X88800Y-68100
X89100Y-74800
X89400Y-76600
X89400Y-77500
X89850Y-73100
X89850Y-73950
X90500Y-69500
X94650Y-75398
X94650Y-76402
X94700Y-73150
X94900Y-57150
X94950Y-60350
X94950Y-61550
X94950Y-62950
X95000Y-55200
X95650Y-70200
X95650Y-72550
X100050Y-63650
X100200Y-58450
X101000Y-77350
X101050Y-60850
X101400Y-70200
X102150Y-62750
X102950Y-77000
X105450Y-56750
X106100Y-42950
X108150Y-67100
X111100Y-55300
X111100Y-65700
X112800Y-54850
X112850Y-53650
X113400Y-66550
X115600Y-63800
X116150Y-66450
X116950Y-63800
T3
X70860Y-65890
X70860Y-68430
X70860Y-70970
X70860Y-73510
X70860Y-76050
X73400Y-65890
X73400Y-68430
X73400Y-70970
X73400Y-73510
X73400Y-76050
X106400Y-69080
X106400Y-71620
X106400Y-74160
X106400Y-76700
X108950Y-46200
X108950Y-48740
X108950Y-51280
T4
X84450Y-75350
X90450Y-75350
T5
X80300Y-73200
X114200Y-49800
T6
X72300Y-60300
X114200Y-44900
T2
G00X83350Y-73050
M15
G01X83350Y-73750
M16
G05
G00X83350Y-76600
M15
G01X83350Y-77300
M16
G05
G00X91550Y-73050
M15
G01X91550Y-73750
M16
G05
G00X91550Y-76600
M15
G01X91550Y-77300
M16
G05
T0
M30
