%TF.GenerationSoftware,KiCad,Pcbnew,(5.1.10-1-10_14)*%
%TF.CreationDate,2021-07-23T11:32:30+02:00*%
%TF.ProjectId,WiredSEK,57697265-6453-4454-9b2e-6b696361645f,rev?*%
%TF.SameCoordinates,Original*%
%TF.FileFunction,Paste,Top*%
%TF.FilePolarity,Positive*%
%FSLAX46Y46*%
G04 Gerber Fmt 4.6, Leading zero omitted, Abs format (unit mm)*
G04 Created by KiCad (PCBNEW (5.1.10-1-10_14)) date 2021-07-23 11:32:30*
%MOMM*%
%LPD*%
G01*
G04 APERTURE LIST*
%ADD10R,2.000000X0.800000*%
%ADD11R,1.500000X0.550000*%
%ADD12R,0.550000X1.500000*%
%ADD13R,0.300000X1.400000*%
%ADD14C,0.100000*%
%ADD15R,1.800000X2.100000*%
%ADD16R,1.060000X0.650000*%
G04 APERTURE END LIST*
D10*
%TO.C,SW2*%
X111100000Y-64850000D03*
X111100000Y-60650000D03*
%TD*%
%TO.C,SW1*%
X70200000Y-55350000D03*
X70200000Y-51150000D03*
%TD*%
%TO.C,C5*%
G36*
G01*
X88925000Y-69737500D02*
X88925000Y-69262500D01*
G75*
G02*
X89162500Y-69025000I237500J0D01*
G01*
X89762500Y-69025000D01*
G75*
G02*
X90000000Y-69262500I0J-237500D01*
G01*
X90000000Y-69737500D01*
G75*
G02*
X89762500Y-69975000I-237500J0D01*
G01*
X89162500Y-69975000D01*
G75*
G02*
X88925000Y-69737500I0J237500D01*
G01*
G37*
G36*
G01*
X87200000Y-69737500D02*
X87200000Y-69262500D01*
G75*
G02*
X87437500Y-69025000I237500J0D01*
G01*
X88037500Y-69025000D01*
G75*
G02*
X88275000Y-69262500I0J-237500D01*
G01*
X88275000Y-69737500D01*
G75*
G02*
X88037500Y-69975000I-237500J0D01*
G01*
X87437500Y-69975000D01*
G75*
G02*
X87200000Y-69737500I0J237500D01*
G01*
G37*
%TD*%
%TO.C,D1*%
G36*
G01*
X103187500Y-70550000D02*
X102712500Y-70550000D01*
G75*
G02*
X102475000Y-70312500I0J237500D01*
G01*
X102475000Y-69737500D01*
G75*
G02*
X102712500Y-69500000I237500J0D01*
G01*
X103187500Y-69500000D01*
G75*
G02*
X103425000Y-69737500I0J-237500D01*
G01*
X103425000Y-70312500D01*
G75*
G02*
X103187500Y-70550000I-237500J0D01*
G01*
G37*
G36*
G01*
X103187500Y-72300000D02*
X102712500Y-72300000D01*
G75*
G02*
X102475000Y-72062500I0J237500D01*
G01*
X102475000Y-71487500D01*
G75*
G02*
X102712500Y-71250000I237500J0D01*
G01*
X103187500Y-71250000D01*
G75*
G02*
X103425000Y-71487500I0J-237500D01*
G01*
X103425000Y-72062500D01*
G75*
G02*
X103187500Y-72300000I-237500J0D01*
G01*
G37*
%TD*%
D11*
%TO.C,U2*%
X81230000Y-64550000D03*
X81230000Y-63750000D03*
X81230000Y-62950000D03*
X81230000Y-62150000D03*
X81230000Y-61350000D03*
X81230000Y-60550000D03*
X81230000Y-59750000D03*
X81230000Y-58950000D03*
X81230000Y-58150000D03*
X81230000Y-57350000D03*
X81230000Y-56550000D03*
X81230000Y-55750000D03*
X81230000Y-54950000D03*
X81230000Y-54150000D03*
X81230000Y-53350000D03*
X81230000Y-52550000D03*
D12*
X82930000Y-50850000D03*
X83730000Y-50850000D03*
X84530000Y-50850000D03*
X85330000Y-50850000D03*
X86130000Y-50850000D03*
X86930000Y-50850000D03*
X87730000Y-50850000D03*
X88530000Y-50850000D03*
X89330000Y-50850000D03*
X90130000Y-50850000D03*
X90930000Y-50850000D03*
X91730000Y-50850000D03*
X92530000Y-50850000D03*
X93330000Y-50850000D03*
X94130000Y-50850000D03*
X94930000Y-50850000D03*
D11*
X96630000Y-52550000D03*
X96630000Y-53350000D03*
X96630000Y-54150000D03*
X96630000Y-54950000D03*
X96630000Y-55750000D03*
X96630000Y-56550000D03*
X96630000Y-57350000D03*
X96630000Y-58150000D03*
X96630000Y-58950000D03*
X96630000Y-59750000D03*
X96630000Y-60550000D03*
X96630000Y-61350000D03*
X96630000Y-62150000D03*
X96630000Y-62950000D03*
X96630000Y-63750000D03*
X96630000Y-64550000D03*
D12*
X94930000Y-66250000D03*
X94130000Y-66250000D03*
X93330000Y-66250000D03*
X92530000Y-66250000D03*
X91730000Y-66250000D03*
X90930000Y-66250000D03*
X90130000Y-66250000D03*
X89330000Y-66250000D03*
X88530000Y-66250000D03*
X87730000Y-66250000D03*
X86930000Y-66250000D03*
X86130000Y-66250000D03*
X85330000Y-66250000D03*
X84530000Y-66250000D03*
X83730000Y-66250000D03*
X82930000Y-66250000D03*
%TD*%
%TO.C,R7*%
G36*
G01*
X84349999Y-47650000D02*
X85250001Y-47650000D01*
G75*
G02*
X85500000Y-47899999I0J-249999D01*
G01*
X85500000Y-48600001D01*
G75*
G02*
X85250001Y-48850000I-249999J0D01*
G01*
X84349999Y-48850000D01*
G75*
G02*
X84100000Y-48600001I0J249999D01*
G01*
X84100000Y-47899999D01*
G75*
G02*
X84349999Y-47650000I249999J0D01*
G01*
G37*
G36*
G01*
X84349999Y-45650000D02*
X85250001Y-45650000D01*
G75*
G02*
X85500000Y-45899999I0J-249999D01*
G01*
X85500000Y-46600001D01*
G75*
G02*
X85250001Y-46850000I-249999J0D01*
G01*
X84349999Y-46850000D01*
G75*
G02*
X84100000Y-46600001I0J249999D01*
G01*
X84100000Y-45899999D01*
G75*
G02*
X84349999Y-45650000I249999J0D01*
G01*
G37*
%TD*%
%TO.C,R11*%
G36*
G01*
X80449999Y-47650000D02*
X81350001Y-47650000D01*
G75*
G02*
X81600000Y-47899999I0J-249999D01*
G01*
X81600000Y-48600001D01*
G75*
G02*
X81350001Y-48850000I-249999J0D01*
G01*
X80449999Y-48850000D01*
G75*
G02*
X80200000Y-48600001I0J249999D01*
G01*
X80200000Y-47899999D01*
G75*
G02*
X80449999Y-47650000I249999J0D01*
G01*
G37*
G36*
G01*
X80449999Y-45650000D02*
X81350001Y-45650000D01*
G75*
G02*
X81600000Y-45899999I0J-249999D01*
G01*
X81600000Y-46600001D01*
G75*
G02*
X81350001Y-46850000I-249999J0D01*
G01*
X80449999Y-46850000D01*
G75*
G02*
X80200000Y-46600001I0J249999D01*
G01*
X80200000Y-45899999D01*
G75*
G02*
X80449999Y-45650000I249999J0D01*
G01*
G37*
%TD*%
D13*
%TO.C,J1*%
X106100000Y-44210000D03*
X105100000Y-44210000D03*
X104100000Y-44210000D03*
X103100000Y-44210000D03*
X102100000Y-44210000D03*
X101100000Y-44210000D03*
X100100000Y-44210000D03*
X99100000Y-44210000D03*
X98100000Y-44210000D03*
X97100000Y-44210000D03*
X96100000Y-44210000D03*
X95100000Y-44210000D03*
X94100000Y-44210000D03*
X93100000Y-44210000D03*
X92100000Y-44210000D03*
X91100000Y-44210000D03*
X90100000Y-44210000D03*
X89100000Y-44210000D03*
X88100000Y-44210000D03*
X87100000Y-44210000D03*
X86100000Y-44210000D03*
X85100000Y-44210000D03*
X84100000Y-44210000D03*
X83100000Y-44210000D03*
X82100000Y-44210000D03*
X81100000Y-44210000D03*
X80100000Y-44210000D03*
X79100000Y-44210000D03*
X78100000Y-44210000D03*
X77100000Y-44210000D03*
X76100000Y-44210000D03*
X75100000Y-44210000D03*
X74100000Y-44210000D03*
D14*
G36*
X71400000Y-43910000D02*
G01*
X69300000Y-43910000D01*
X69300000Y-42310000D01*
X70100000Y-42310000D01*
X70100000Y-41960000D01*
X71400000Y-41960000D01*
X71400000Y-43910000D01*
G37*
G36*
X109100000Y-42310000D02*
G01*
X109900000Y-42310000D01*
X109900000Y-43910000D01*
X107800000Y-43910000D01*
X107800000Y-41960000D01*
X109100000Y-41960000D01*
X109100000Y-42310000D01*
G37*
D13*
X73100000Y-44210000D03*
%TD*%
%TO.C,R12*%
G36*
G01*
X105149999Y-49200000D02*
X106050001Y-49200000D01*
G75*
G02*
X106300000Y-49449999I0J-249999D01*
G01*
X106300000Y-50150001D01*
G75*
G02*
X106050001Y-50400000I-249999J0D01*
G01*
X105149999Y-50400000D01*
G75*
G02*
X104900000Y-50150001I0J249999D01*
G01*
X104900000Y-49449999D01*
G75*
G02*
X105149999Y-49200000I249999J0D01*
G01*
G37*
G36*
G01*
X105149999Y-47200000D02*
X106050001Y-47200000D01*
G75*
G02*
X106300000Y-47449999I0J-249999D01*
G01*
X106300000Y-48150001D01*
G75*
G02*
X106050001Y-48400000I-249999J0D01*
G01*
X105149999Y-48400000D01*
G75*
G02*
X104900000Y-48150001I0J249999D01*
G01*
X104900000Y-47449999D01*
G75*
G02*
X105149999Y-47200000I249999J0D01*
G01*
G37*
%TD*%
%TO.C,R10*%
G36*
G01*
X103199999Y-49200000D02*
X104100001Y-49200000D01*
G75*
G02*
X104350000Y-49449999I0J-249999D01*
G01*
X104350000Y-50150001D01*
G75*
G02*
X104100001Y-50400000I-249999J0D01*
G01*
X103199999Y-50400000D01*
G75*
G02*
X102950000Y-50150001I0J249999D01*
G01*
X102950000Y-49449999D01*
G75*
G02*
X103199999Y-49200000I249999J0D01*
G01*
G37*
G36*
G01*
X103199999Y-47200000D02*
X104100001Y-47200000D01*
G75*
G02*
X104350000Y-47449999I0J-249999D01*
G01*
X104350000Y-48150001D01*
G75*
G02*
X104100001Y-48400000I-249999J0D01*
G01*
X103199999Y-48400000D01*
G75*
G02*
X102950000Y-48150001I0J249999D01*
G01*
X102950000Y-47449999D01*
G75*
G02*
X103199999Y-47200000I249999J0D01*
G01*
G37*
%TD*%
%TO.C,R9*%
G36*
G01*
X82399999Y-47650000D02*
X83300001Y-47650000D01*
G75*
G02*
X83550000Y-47899999I0J-249999D01*
G01*
X83550000Y-48600001D01*
G75*
G02*
X83300001Y-48850000I-249999J0D01*
G01*
X82399999Y-48850000D01*
G75*
G02*
X82150000Y-48600001I0J249999D01*
G01*
X82150000Y-47899999D01*
G75*
G02*
X82399999Y-47650000I249999J0D01*
G01*
G37*
G36*
G01*
X82399999Y-45650000D02*
X83300001Y-45650000D01*
G75*
G02*
X83550000Y-45899999I0J-249999D01*
G01*
X83550000Y-46600001D01*
G75*
G02*
X83300001Y-46850000I-249999J0D01*
G01*
X82399999Y-46850000D01*
G75*
G02*
X82150000Y-46600001I0J249999D01*
G01*
X82150000Y-45899999D01*
G75*
G02*
X82399999Y-45650000I249999J0D01*
G01*
G37*
%TD*%
%TO.C,R8*%
G36*
G01*
X86299999Y-47650000D02*
X87200001Y-47650000D01*
G75*
G02*
X87450000Y-47899999I0J-249999D01*
G01*
X87450000Y-48600001D01*
G75*
G02*
X87200001Y-48850000I-249999J0D01*
G01*
X86299999Y-48850000D01*
G75*
G02*
X86050000Y-48600001I0J249999D01*
G01*
X86050000Y-47899999D01*
G75*
G02*
X86299999Y-47650000I249999J0D01*
G01*
G37*
G36*
G01*
X86299999Y-45650000D02*
X87200001Y-45650000D01*
G75*
G02*
X87450000Y-45899999I0J-249999D01*
G01*
X87450000Y-46600001D01*
G75*
G02*
X87200001Y-46850000I-249999J0D01*
G01*
X86299999Y-46850000D01*
G75*
G02*
X86050000Y-46600001I0J249999D01*
G01*
X86050000Y-45899999D01*
G75*
G02*
X86299999Y-45650000I249999J0D01*
G01*
G37*
%TD*%
%TO.C,D2*%
G36*
G01*
X116012500Y-62450000D02*
X116487500Y-62450000D01*
G75*
G02*
X116725000Y-62687500I0J-237500D01*
G01*
X116725000Y-63262500D01*
G75*
G02*
X116487500Y-63500000I-237500J0D01*
G01*
X116012500Y-63500000D01*
G75*
G02*
X115775000Y-63262500I0J237500D01*
G01*
X115775000Y-62687500D01*
G75*
G02*
X116012500Y-62450000I237500J0D01*
G01*
G37*
G36*
G01*
X116012500Y-60700000D02*
X116487500Y-60700000D01*
G75*
G02*
X116725000Y-60937500I0J-237500D01*
G01*
X116725000Y-61512500D01*
G75*
G02*
X116487500Y-61750000I-237500J0D01*
G01*
X116012500Y-61750000D01*
G75*
G02*
X115775000Y-61512500I0J237500D01*
G01*
X115775000Y-60937500D01*
G75*
G02*
X116012500Y-60700000I237500J0D01*
G01*
G37*
%TD*%
D15*
%TO.C,Y1*%
X104970000Y-58300000D03*
X104970000Y-61200000D03*
X102670000Y-61200000D03*
X102670000Y-58300000D03*
%TD*%
D16*
%TO.C,U1*%
X96650000Y-75900000D03*
X96650000Y-76850000D03*
X96650000Y-74950000D03*
X98850000Y-74950000D03*
X98850000Y-75900000D03*
X98850000Y-76850000D03*
%TD*%
%TO.C,R6*%
G36*
G01*
X98100000Y-72900001D02*
X98100000Y-71999999D01*
G75*
G02*
X98349999Y-71750000I249999J0D01*
G01*
X99050001Y-71750000D01*
G75*
G02*
X99300000Y-71999999I0J-249999D01*
G01*
X99300000Y-72900001D01*
G75*
G02*
X99050001Y-73150000I-249999J0D01*
G01*
X98349999Y-73150000D01*
G75*
G02*
X98100000Y-72900001I0J249999D01*
G01*
G37*
G36*
G01*
X96100000Y-72900001D02*
X96100000Y-71999999D01*
G75*
G02*
X96349999Y-71750000I249999J0D01*
G01*
X97050001Y-71750000D01*
G75*
G02*
X97300000Y-71999999I0J-249999D01*
G01*
X97300000Y-72900001D01*
G75*
G02*
X97050001Y-73150000I-249999J0D01*
G01*
X96349999Y-73150000D01*
G75*
G02*
X96100000Y-72900001I0J249999D01*
G01*
G37*
%TD*%
%TO.C,R5*%
G36*
G01*
X98100000Y-71000001D02*
X98100000Y-70099999D01*
G75*
G02*
X98349999Y-69850000I249999J0D01*
G01*
X99050001Y-69850000D01*
G75*
G02*
X99300000Y-70099999I0J-249999D01*
G01*
X99300000Y-71000001D01*
G75*
G02*
X99050001Y-71250000I-249999J0D01*
G01*
X98349999Y-71250000D01*
G75*
G02*
X98100000Y-71000001I0J249999D01*
G01*
G37*
G36*
G01*
X96100000Y-71000001D02*
X96100000Y-70099999D01*
G75*
G02*
X96349999Y-69850000I249999J0D01*
G01*
X97050001Y-69850000D01*
G75*
G02*
X97300000Y-70099999I0J-249999D01*
G01*
X97300000Y-71000001D01*
G75*
G02*
X97050001Y-71250000I-249999J0D01*
G01*
X96349999Y-71250000D01*
G75*
G02*
X96100000Y-71000001I0J249999D01*
G01*
G37*
%TD*%
%TO.C,R4*%
G36*
G01*
X116700001Y-57550000D02*
X115799999Y-57550000D01*
G75*
G02*
X115550000Y-57300001I0J249999D01*
G01*
X115550000Y-56599999D01*
G75*
G02*
X115799999Y-56350000I249999J0D01*
G01*
X116700001Y-56350000D01*
G75*
G02*
X116950000Y-56599999I0J-249999D01*
G01*
X116950000Y-57300001D01*
G75*
G02*
X116700001Y-57550000I-249999J0D01*
G01*
G37*
G36*
G01*
X116700001Y-59550000D02*
X115799999Y-59550000D01*
G75*
G02*
X115550000Y-59300001I0J249999D01*
G01*
X115550000Y-58599999D01*
G75*
G02*
X115799999Y-58350000I249999J0D01*
G01*
X116700001Y-58350000D01*
G75*
G02*
X116950000Y-58599999I0J-249999D01*
G01*
X116950000Y-59300001D01*
G75*
G02*
X116700001Y-59550000I-249999J0D01*
G01*
G37*
%TD*%
%TO.C,R3*%
G36*
G01*
X102499999Y-75250000D02*
X103400001Y-75250000D01*
G75*
G02*
X103650000Y-75499999I0J-249999D01*
G01*
X103650000Y-76200001D01*
G75*
G02*
X103400001Y-76450000I-249999J0D01*
G01*
X102499999Y-76450000D01*
G75*
G02*
X102250000Y-76200001I0J249999D01*
G01*
X102250000Y-75499999D01*
G75*
G02*
X102499999Y-75250000I249999J0D01*
G01*
G37*
G36*
G01*
X102499999Y-73250000D02*
X103400001Y-73250000D01*
G75*
G02*
X103650000Y-73499999I0J-249999D01*
G01*
X103650000Y-74200001D01*
G75*
G02*
X103400001Y-74450000I-249999J0D01*
G01*
X102499999Y-74450000D01*
G75*
G02*
X102250000Y-74200001I0J249999D01*
G01*
X102250000Y-73499999D01*
G75*
G02*
X102499999Y-73250000I249999J0D01*
G01*
G37*
%TD*%
%TO.C,R2*%
G36*
G01*
X110649999Y-57800000D02*
X111550001Y-57800000D01*
G75*
G02*
X111800000Y-58049999I0J-249999D01*
G01*
X111800000Y-58750001D01*
G75*
G02*
X111550001Y-59000000I-249999J0D01*
G01*
X110649999Y-59000000D01*
G75*
G02*
X110400000Y-58750001I0J249999D01*
G01*
X110400000Y-58049999D01*
G75*
G02*
X110649999Y-57800000I249999J0D01*
G01*
G37*
G36*
G01*
X110649999Y-55800000D02*
X111550001Y-55800000D01*
G75*
G02*
X111800000Y-56049999I0J-249999D01*
G01*
X111800000Y-56750001D01*
G75*
G02*
X111550001Y-57000000I-249999J0D01*
G01*
X110649999Y-57000000D01*
G75*
G02*
X110400000Y-56750001I0J249999D01*
G01*
X110400000Y-56049999D01*
G75*
G02*
X110649999Y-55800000I249999J0D01*
G01*
G37*
%TD*%
%TO.C,R1*%
G36*
G01*
X69699999Y-48200000D02*
X70600001Y-48200000D01*
G75*
G02*
X70850000Y-48449999I0J-249999D01*
G01*
X70850000Y-49150001D01*
G75*
G02*
X70600001Y-49400000I-249999J0D01*
G01*
X69699999Y-49400000D01*
G75*
G02*
X69450000Y-49150001I0J249999D01*
G01*
X69450000Y-48449999D01*
G75*
G02*
X69699999Y-48200000I249999J0D01*
G01*
G37*
G36*
G01*
X69699999Y-46200000D02*
X70600001Y-46200000D01*
G75*
G02*
X70850000Y-46449999I0J-249999D01*
G01*
X70850000Y-47150001D01*
G75*
G02*
X70600001Y-47400000I-249999J0D01*
G01*
X69699999Y-47400000D01*
G75*
G02*
X69450000Y-47150001I0J249999D01*
G01*
X69450000Y-46449999D01*
G75*
G02*
X69699999Y-46200000I249999J0D01*
G01*
G37*
%TD*%
%TO.C,F1*%
G36*
G01*
X87975000Y-74125000D02*
X87975000Y-72875000D01*
G75*
G02*
X88225000Y-72625000I250000J0D01*
G01*
X89150000Y-72625000D01*
G75*
G02*
X89400000Y-72875000I0J-250000D01*
G01*
X89400000Y-74125000D01*
G75*
G02*
X89150000Y-74375000I-250000J0D01*
G01*
X88225000Y-74375000D01*
G75*
G02*
X87975000Y-74125000I0J250000D01*
G01*
G37*
G36*
G01*
X85000000Y-74125000D02*
X85000000Y-72875000D01*
G75*
G02*
X85250000Y-72625000I250000J0D01*
G01*
X86175000Y-72625000D01*
G75*
G02*
X86425000Y-72875000I0J-250000D01*
G01*
X86425000Y-74125000D01*
G75*
G02*
X86175000Y-74375000I-250000J0D01*
G01*
X85250000Y-74375000D01*
G75*
G02*
X85000000Y-74125000I0J250000D01*
G01*
G37*
%TD*%
%TO.C,C9*%
G36*
G01*
X83325000Y-69312500D02*
X83325000Y-69787500D01*
G75*
G02*
X83087500Y-70025000I-237500J0D01*
G01*
X82487500Y-70025000D01*
G75*
G02*
X82250000Y-69787500I0J237500D01*
G01*
X82250000Y-69312500D01*
G75*
G02*
X82487500Y-69075000I237500J0D01*
G01*
X83087500Y-69075000D01*
G75*
G02*
X83325000Y-69312500I0J-237500D01*
G01*
G37*
G36*
G01*
X85050000Y-69312500D02*
X85050000Y-69787500D01*
G75*
G02*
X84812500Y-70025000I-237500J0D01*
G01*
X84212500Y-70025000D01*
G75*
G02*
X83975000Y-69787500I0J237500D01*
G01*
X83975000Y-69312500D01*
G75*
G02*
X84212500Y-69075000I237500J0D01*
G01*
X84812500Y-69075000D01*
G75*
G02*
X85050000Y-69312500I0J-237500D01*
G01*
G37*
%TD*%
%TO.C,C8*%
G36*
G01*
X77712500Y-53887500D02*
X78187500Y-53887500D01*
G75*
G02*
X78425000Y-54125000I0J-237500D01*
G01*
X78425000Y-54725000D01*
G75*
G02*
X78187500Y-54962500I-237500J0D01*
G01*
X77712500Y-54962500D01*
G75*
G02*
X77475000Y-54725000I0J237500D01*
G01*
X77475000Y-54125000D01*
G75*
G02*
X77712500Y-53887500I237500J0D01*
G01*
G37*
G36*
G01*
X77712500Y-55612500D02*
X78187500Y-55612500D01*
G75*
G02*
X78425000Y-55850000I0J-237500D01*
G01*
X78425000Y-56450000D01*
G75*
G02*
X78187500Y-56687500I-237500J0D01*
G01*
X77712500Y-56687500D01*
G75*
G02*
X77475000Y-56450000I0J237500D01*
G01*
X77475000Y-55850000D01*
G75*
G02*
X77712500Y-55612500I237500J0D01*
G01*
G37*
%TD*%
%TO.C,C7*%
G36*
G01*
X100287500Y-61425000D02*
X99812500Y-61425000D01*
G75*
G02*
X99575000Y-61187500I0J237500D01*
G01*
X99575000Y-60587500D01*
G75*
G02*
X99812500Y-60350000I237500J0D01*
G01*
X100287500Y-60350000D01*
G75*
G02*
X100525000Y-60587500I0J-237500D01*
G01*
X100525000Y-61187500D01*
G75*
G02*
X100287500Y-61425000I-237500J0D01*
G01*
G37*
G36*
G01*
X100287500Y-63150000D02*
X99812500Y-63150000D01*
G75*
G02*
X99575000Y-62912500I0J237500D01*
G01*
X99575000Y-62312500D01*
G75*
G02*
X99812500Y-62075000I237500J0D01*
G01*
X100287500Y-62075000D01*
G75*
G02*
X100525000Y-62312500I0J-237500D01*
G01*
X100525000Y-62912500D01*
G75*
G02*
X100287500Y-63150000I-237500J0D01*
G01*
G37*
%TD*%
%TO.C,C6*%
G36*
G01*
X78187500Y-63825000D02*
X77712500Y-63825000D01*
G75*
G02*
X77475000Y-63587500I0J237500D01*
G01*
X77475000Y-62987500D01*
G75*
G02*
X77712500Y-62750000I237500J0D01*
G01*
X78187500Y-62750000D01*
G75*
G02*
X78425000Y-62987500I0J-237500D01*
G01*
X78425000Y-63587500D01*
G75*
G02*
X78187500Y-63825000I-237500J0D01*
G01*
G37*
G36*
G01*
X78187500Y-65550000D02*
X77712500Y-65550000D01*
G75*
G02*
X77475000Y-65312500I0J237500D01*
G01*
X77475000Y-64712500D01*
G75*
G02*
X77712500Y-64475000I237500J0D01*
G01*
X78187500Y-64475000D01*
G75*
G02*
X78425000Y-64712500I0J-237500D01*
G01*
X78425000Y-65312500D01*
G75*
G02*
X78187500Y-65550000I-237500J0D01*
G01*
G37*
%TD*%
%TO.C,C4*%
G36*
G01*
X105250000Y-63212500D02*
X105250000Y-63687500D01*
G75*
G02*
X105012500Y-63925000I-237500J0D01*
G01*
X104412500Y-63925000D01*
G75*
G02*
X104175000Y-63687500I0J237500D01*
G01*
X104175000Y-63212500D01*
G75*
G02*
X104412500Y-62975000I237500J0D01*
G01*
X105012500Y-62975000D01*
G75*
G02*
X105250000Y-63212500I0J-237500D01*
G01*
G37*
G36*
G01*
X103525000Y-63212500D02*
X103525000Y-63687500D01*
G75*
G02*
X103287500Y-63925000I-237500J0D01*
G01*
X102687500Y-63925000D01*
G75*
G02*
X102450000Y-63687500I0J237500D01*
G01*
X102450000Y-63212500D01*
G75*
G02*
X102687500Y-62975000I237500J0D01*
G01*
X103287500Y-62975000D01*
G75*
G02*
X103525000Y-63212500I0J-237500D01*
G01*
G37*
%TD*%
%TO.C,C3*%
G36*
G01*
X104075000Y-56287500D02*
X104075000Y-55812500D01*
G75*
G02*
X104312500Y-55575000I237500J0D01*
G01*
X104912500Y-55575000D01*
G75*
G02*
X105150000Y-55812500I0J-237500D01*
G01*
X105150000Y-56287500D01*
G75*
G02*
X104912500Y-56525000I-237500J0D01*
G01*
X104312500Y-56525000D01*
G75*
G02*
X104075000Y-56287500I0J237500D01*
G01*
G37*
G36*
G01*
X102350000Y-56287500D02*
X102350000Y-55812500D01*
G75*
G02*
X102587500Y-55575000I237500J0D01*
G01*
X103187500Y-55575000D01*
G75*
G02*
X103425000Y-55812500I0J-237500D01*
G01*
X103425000Y-56287500D01*
G75*
G02*
X103187500Y-56525000I-237500J0D01*
G01*
X102587500Y-56525000D01*
G75*
G02*
X102350000Y-56287500I0J237500D01*
G01*
G37*
%TD*%
%TO.C,C2*%
G36*
G01*
X87750000Y-77525000D02*
X87750000Y-76575000D01*
G75*
G02*
X88000000Y-76325000I250000J0D01*
G01*
X88675000Y-76325000D01*
G75*
G02*
X88925000Y-76575000I0J-250000D01*
G01*
X88925000Y-77525000D01*
G75*
G02*
X88675000Y-77775000I-250000J0D01*
G01*
X88000000Y-77775000D01*
G75*
G02*
X87750000Y-77525000I0J250000D01*
G01*
G37*
G36*
G01*
X85675000Y-77525000D02*
X85675000Y-76575000D01*
G75*
G02*
X85925000Y-76325000I250000J0D01*
G01*
X86600000Y-76325000D01*
G75*
G02*
X86850000Y-76575000I0J-250000D01*
G01*
X86850000Y-77525000D01*
G75*
G02*
X86600000Y-77775000I-250000J0D01*
G01*
X85925000Y-77775000D01*
G75*
G02*
X85675000Y-77525000I0J250000D01*
G01*
G37*
%TD*%
M02*
