%TF.GenerationSoftware,KiCad,Pcbnew,(5.1.10-1-10_14)*%
%TF.CreationDate,2021-07-23T11:32:30+02:00*%
%TF.ProjectId,WiredSEK,57697265-6453-4454-9b2e-6b696361645f,rev?*%
%TF.SameCoordinates,Original*%
%TF.FileFunction,Copper,L1,Top*%
%TF.FilePolarity,Positive*%
%FSLAX46Y46*%
G04 Gerber Fmt 4.6, Leading zero omitted, Abs format (unit mm)*
G04 Created by KiCad (PCBNEW (5.1.10-1-10_14)) date 2021-07-23 11:32:30*
%MOMM*%
%LPD*%
G01*
G04 APERTURE LIST*
%TA.AperFunction,SMDPad,CuDef*%
%ADD10R,2.000000X0.800000*%
%TD*%
%TA.AperFunction,ComponentPad*%
%ADD11O,0.900000X1.600000*%
%TD*%
%TA.AperFunction,SMDPad,CuDef*%
%ADD12R,1.500000X0.550000*%
%TD*%
%TA.AperFunction,SMDPad,CuDef*%
%ADD13R,0.550000X1.500000*%
%TD*%
%TA.AperFunction,SMDPad,CuDef*%
%ADD14R,0.300000X1.400000*%
%TD*%
%TA.AperFunction,SMDPad,CuDef*%
%ADD15C,0.100000*%
%TD*%
%TA.AperFunction,ComponentPad*%
%ADD16O,1.700000X1.700000*%
%TD*%
%TA.AperFunction,ComponentPad*%
%ADD17R,1.700000X1.700000*%
%TD*%
%TA.AperFunction,SMDPad,CuDef*%
%ADD18R,1.800000X2.100000*%
%TD*%
%TA.AperFunction,SMDPad,CuDef*%
%ADD19R,1.060000X0.650000*%
%TD*%
%TA.AperFunction,SMDPad,CuDef*%
%ADD20C,1.500000*%
%TD*%
%TA.AperFunction,ViaPad*%
%ADD21C,0.800000*%
%TD*%
%TA.AperFunction,Conductor*%
%ADD22C,0.250000*%
%TD*%
%TA.AperFunction,Conductor*%
%ADD23C,0.550000*%
%TD*%
%TA.AperFunction,Conductor*%
%ADD24C,0.300000*%
%TD*%
%TA.AperFunction,Conductor*%
%ADD25C,0.500000*%
%TD*%
%TA.AperFunction,Conductor*%
%ADD26C,0.261112*%
%TD*%
G04 APERTURE END LIST*
D10*
%TO.P,SW2,2*%
%TO.N,GND*%
X111100000Y-64850000D03*
%TO.P,SW2,1*%
%TO.N,RESET*%
X111100000Y-60650000D03*
%TD*%
%TO.P,SW1,2*%
%TO.N,GND*%
X70200000Y-55350000D03*
%TO.P,SW1,1*%
%TO.N,HWB*%
X70200000Y-51150000D03*
%TD*%
D11*
%TO.P,J2,*%
%TO.N,*%
X91550000Y-73400000D03*
X83350000Y-73400000D03*
X83350000Y-76950000D03*
X91550000Y-76950000D03*
%TD*%
%TO.P,C5,2*%
%TO.N,GND*%
%TA.AperFunction,SMDPad,CuDef*%
G36*
G01*
X88925000Y-69737500D02*
X88925000Y-69262500D01*
G75*
G02*
X89162500Y-69025000I237500J0D01*
G01*
X89762500Y-69025000D01*
G75*
G02*
X90000000Y-69262500I0J-237500D01*
G01*
X90000000Y-69737500D01*
G75*
G02*
X89762500Y-69975000I-237500J0D01*
G01*
X89162500Y-69975000D01*
G75*
G02*
X88925000Y-69737500I0J237500D01*
G01*
G37*
%TD.AperFunction*%
%TO.P,C5,1*%
%TO.N,Net-(C5-Pad1)*%
%TA.AperFunction,SMDPad,CuDef*%
G36*
G01*
X87200000Y-69737500D02*
X87200000Y-69262500D01*
G75*
G02*
X87437500Y-69025000I237500J0D01*
G01*
X88037500Y-69025000D01*
G75*
G02*
X88275000Y-69262500I0J-237500D01*
G01*
X88275000Y-69737500D01*
G75*
G02*
X88037500Y-69975000I-237500J0D01*
G01*
X87437500Y-69975000D01*
G75*
G02*
X87200000Y-69737500I0J237500D01*
G01*
G37*
%TD.AperFunction*%
%TD*%
%TO.P,D1,2*%
%TO.N,LED_STATUS*%
%TA.AperFunction,SMDPad,CuDef*%
G36*
G01*
X103187500Y-70550000D02*
X102712500Y-70550000D01*
G75*
G02*
X102475000Y-70312500I0J237500D01*
G01*
X102475000Y-69737500D01*
G75*
G02*
X102712500Y-69500000I237500J0D01*
G01*
X103187500Y-69500000D01*
G75*
G02*
X103425000Y-69737500I0J-237500D01*
G01*
X103425000Y-70312500D01*
G75*
G02*
X103187500Y-70550000I-237500J0D01*
G01*
G37*
%TD.AperFunction*%
%TO.P,D1,1*%
%TO.N,Net-(D1-Pad1)*%
%TA.AperFunction,SMDPad,CuDef*%
G36*
G01*
X103187500Y-72300000D02*
X102712500Y-72300000D01*
G75*
G02*
X102475000Y-72062500I0J237500D01*
G01*
X102475000Y-71487500D01*
G75*
G02*
X102712500Y-71250000I237500J0D01*
G01*
X103187500Y-71250000D01*
G75*
G02*
X103425000Y-71487500I0J-237500D01*
G01*
X103425000Y-72062500D01*
G75*
G02*
X103187500Y-72300000I-237500J0D01*
G01*
G37*
%TD.AperFunction*%
%TD*%
D12*
%TO.P,U2,64*%
%TO.N,+5V*%
X81230000Y-64550000D03*
%TO.P,U2,63*%
%TO.N,GND*%
X81230000Y-63750000D03*
%TO.P,U2,62*%
%TO.N,Net-(U2-Pad62)*%
X81230000Y-62950000D03*
%TO.P,U2,61*%
%TO.N,KROW_0*%
X81230000Y-62150000D03*
%TO.P,U2,60*%
%TO.N,KROW_1*%
X81230000Y-61350000D03*
%TO.P,U2,59*%
%TO.N,KROW_2*%
X81230000Y-60550000D03*
%TO.P,U2,58*%
%TO.N,KROW_3*%
X81230000Y-59750000D03*
%TO.P,U2,57*%
%TO.N,TCK*%
X81230000Y-58950000D03*
%TO.P,U2,56*%
%TO.N,TMS*%
X81230000Y-58150000D03*
%TO.P,U2,55*%
%TO.N,TDO*%
X81230000Y-57350000D03*
%TO.P,U2,54*%
%TO.N,TDI*%
X81230000Y-56550000D03*
%TO.P,U2,53*%
%TO.N,GND*%
X81230000Y-55750000D03*
%TO.P,U2,52*%
%TO.N,+5V*%
X81230000Y-54950000D03*
%TO.P,U2,51*%
%TO.N,KROW_4*%
X81230000Y-54150000D03*
%TO.P,U2,50*%
%TO.N,KROW_5*%
X81230000Y-53350000D03*
%TO.P,U2,49*%
%TO.N,KROW_6*%
X81230000Y-52550000D03*
D13*
%TO.P,U2,48*%
%TO.N,KROW_7*%
X82930000Y-50850000D03*
%TO.P,U2,47*%
%TO.N,NL_LED*%
X83730000Y-50850000D03*
%TO.P,U2,46*%
%TO.N,CL_LED*%
X84530000Y-50850000D03*
%TO.P,U2,45*%
%TO.N,PRW_LED*%
X85330000Y-50850000D03*
%TO.P,U2,44*%
%TO.N,PRR_LED*%
X86130000Y-50850000D03*
%TO.P,U2,43*%
%TO.N,HWB*%
X86930000Y-50850000D03*
%TO.P,U2,42*%
%TO.N,Net-(U2-Pad42)*%
X87730000Y-50850000D03*
%TO.P,U2,41*%
%TO.N,KCOL_0*%
X88530000Y-50850000D03*
%TO.P,U2,40*%
%TO.N,KCOL_1*%
X89330000Y-50850000D03*
%TO.P,U2,39*%
%TO.N,KCOL_2*%
X90130000Y-50850000D03*
%TO.P,U2,38*%
%TO.N,KCOL_3*%
X90930000Y-50850000D03*
%TO.P,U2,37*%
%TO.N,KCOL_4*%
X91730000Y-50850000D03*
%TO.P,U2,36*%
%TO.N,KCOL_5*%
X92530000Y-50850000D03*
%TO.P,U2,35*%
%TO.N,KCOL_6*%
X93330000Y-50850000D03*
%TO.P,U2,34*%
%TO.N,KCOL_7*%
X94130000Y-50850000D03*
%TO.P,U2,33*%
%TO.N,KCOL_8*%
X94930000Y-50850000D03*
D12*
%TO.P,U2,32*%
%TO.N,KCOL_9*%
X96630000Y-52550000D03*
%TO.P,U2,31*%
%TO.N,KCOL_10*%
X96630000Y-53350000D03*
%TO.P,U2,30*%
%TO.N,KCOL_11*%
X96630000Y-54150000D03*
%TO.P,U2,29*%
%TO.N,KCOL_12*%
X96630000Y-54950000D03*
%TO.P,U2,28*%
%TO.N,TX*%
X96630000Y-55750000D03*
%TO.P,U2,27*%
%TO.N,RX*%
X96630000Y-56550000D03*
%TO.P,U2,26*%
%TO.N,KCOL_13*%
X96630000Y-57350000D03*
%TO.P,U2,25*%
%TO.N,KCOL_14*%
X96630000Y-58150000D03*
%TO.P,U2,24*%
%TO.N,XTAL1*%
X96630000Y-58950000D03*
%TO.P,U2,23*%
%TO.N,XTAL2*%
X96630000Y-59750000D03*
%TO.P,U2,22*%
%TO.N,GND*%
X96630000Y-60550000D03*
%TO.P,U2,21*%
%TO.N,+5V*%
X96630000Y-61350000D03*
%TO.P,U2,20*%
%TO.N,RESET*%
X96630000Y-62150000D03*
%TO.P,U2,19*%
%TO.N,KCOL_15*%
X96630000Y-62950000D03*
%TO.P,U2,18*%
%TO.N,KCOL_16*%
X96630000Y-63750000D03*
%TO.P,U2,17*%
%TO.N,FN_LED*%
X96630000Y-64550000D03*
D13*
%TO.P,U2,16*%
%TO.N,RL_LED*%
X94930000Y-66250000D03*
%TO.P,U2,15*%
%TO.N,T0*%
X94130000Y-66250000D03*
%TO.P,U2,14*%
%TO.N,T1*%
X93330000Y-66250000D03*
%TO.P,U2,13*%
%TO.N,T2*%
X92530000Y-66250000D03*
%TO.P,U2,12*%
%TO.N,Net-(U2-Pad12)*%
X91730000Y-66250000D03*
%TO.P,U2,11*%
%TO.N,Net-(U2-Pad11)*%
X90930000Y-66250000D03*
%TO.P,U2,10*%
%TO.N,Net-(U2-Pad10)*%
X90130000Y-66250000D03*
%TO.P,U2,9*%
%TO.N,LED_STATUS*%
X89330000Y-66250000D03*
%TO.P,U2,8*%
%TO.N,VBUS*%
X88530000Y-66250000D03*
%TO.P,U2,7*%
%TO.N,Net-(C5-Pad1)*%
X87730000Y-66250000D03*
%TO.P,U2,6*%
%TO.N,GND*%
X86930000Y-66250000D03*
%TO.P,U2,5*%
%TO.N,D+*%
X86130000Y-66250000D03*
%TO.P,U2,4*%
%TO.N,D-*%
X85330000Y-66250000D03*
%TO.P,U2,3*%
%TO.N,+5V*%
X84530000Y-66250000D03*
%TO.P,U2,2*%
%TO.N,Net-(U2-Pad2)*%
X83730000Y-66250000D03*
%TO.P,U2,1*%
%TO.N,Net-(U2-Pad1)*%
X82930000Y-66250000D03*
%TD*%
%TO.P,R7,2*%
%TO.N,PRW_LED*%
%TA.AperFunction,SMDPad,CuDef*%
G36*
G01*
X84349999Y-47650000D02*
X85250001Y-47650000D01*
G75*
G02*
X85500000Y-47899999I0J-249999D01*
G01*
X85500000Y-48600001D01*
G75*
G02*
X85250001Y-48850000I-249999J0D01*
G01*
X84349999Y-48850000D01*
G75*
G02*
X84100000Y-48600001I0J249999D01*
G01*
X84100000Y-47899999D01*
G75*
G02*
X84349999Y-47650000I249999J0D01*
G01*
G37*
%TD.AperFunction*%
%TO.P,R7,1*%
%TO.N,Net-(J1-Pad12)*%
%TA.AperFunction,SMDPad,CuDef*%
G36*
G01*
X84349999Y-45650000D02*
X85250001Y-45650000D01*
G75*
G02*
X85500000Y-45899999I0J-249999D01*
G01*
X85500000Y-46600001D01*
G75*
G02*
X85250001Y-46850000I-249999J0D01*
G01*
X84349999Y-46850000D01*
G75*
G02*
X84100000Y-46600001I0J249999D01*
G01*
X84100000Y-45899999D01*
G75*
G02*
X84349999Y-45650000I249999J0D01*
G01*
G37*
%TD.AperFunction*%
%TD*%
%TO.P,R11,2*%
%TO.N,NL_LED*%
%TA.AperFunction,SMDPad,CuDef*%
G36*
G01*
X80449999Y-47650000D02*
X81350001Y-47650000D01*
G75*
G02*
X81600000Y-47899999I0J-249999D01*
G01*
X81600000Y-48600001D01*
G75*
G02*
X81350001Y-48850000I-249999J0D01*
G01*
X80449999Y-48850000D01*
G75*
G02*
X80200000Y-48600001I0J249999D01*
G01*
X80200000Y-47899999D01*
G75*
G02*
X80449999Y-47650000I249999J0D01*
G01*
G37*
%TD.AperFunction*%
%TO.P,R11,1*%
%TO.N,Net-(J1-Pad9)*%
%TA.AperFunction,SMDPad,CuDef*%
G36*
G01*
X80449999Y-45650000D02*
X81350001Y-45650000D01*
G75*
G02*
X81600000Y-45899999I0J-249999D01*
G01*
X81600000Y-46600001D01*
G75*
G02*
X81350001Y-46850000I-249999J0D01*
G01*
X80449999Y-46850000D01*
G75*
G02*
X80200000Y-46600001I0J249999D01*
G01*
X80200000Y-45899999D01*
G75*
G02*
X80449999Y-45650000I249999J0D01*
G01*
G37*
%TD.AperFunction*%
%TD*%
D14*
%TO.P,J1,34*%
%TO.N,GND*%
X106100000Y-44210000D03*
%TO.P,J1,33*%
%TO.N,Net-(J1-Pad33)*%
X105100000Y-44210000D03*
%TO.P,J1,32*%
%TO.N,Net-(J1-Pad32)*%
X104100000Y-44210000D03*
%TO.P,J1,31*%
%TO.N,KCOL_16*%
X103100000Y-44210000D03*
%TO.P,J1,30*%
%TO.N,KCOL_15*%
X102100000Y-44210000D03*
%TO.P,J1,29*%
%TO.N,KCOL_14*%
X101100000Y-44210000D03*
%TO.P,J1,28*%
%TO.N,KCOL_13*%
X100100000Y-44210000D03*
%TO.P,J1,27*%
%TO.N,KCOL_12*%
X99100000Y-44210000D03*
%TO.P,J1,26*%
%TO.N,KCOL_11*%
X98100000Y-44210000D03*
%TO.P,J1,25*%
%TO.N,KCOL_10*%
X97100000Y-44210000D03*
%TO.P,J1,24*%
%TO.N,KCOL_9*%
X96100000Y-44210000D03*
%TO.P,J1,23*%
%TO.N,KCOL_8*%
X95100000Y-44210000D03*
%TO.P,J1,22*%
%TO.N,KCOL_7*%
X94100000Y-44210000D03*
%TO.P,J1,21*%
%TO.N,KCOL_6*%
X93100000Y-44210000D03*
%TO.P,J1,20*%
%TO.N,KCOL_5*%
X92100000Y-44210000D03*
%TO.P,J1,19*%
%TO.N,KCOL_4*%
X91100000Y-44210000D03*
%TO.P,J1,18*%
%TO.N,KCOL_3*%
X90100000Y-44210000D03*
%TO.P,J1,17*%
%TO.N,KCOL_2*%
X89100000Y-44210000D03*
%TO.P,J1,16*%
%TO.N,KCOL_1*%
X88100000Y-44210000D03*
%TO.P,J1,15*%
%TO.N,KCOL_0*%
X87100000Y-44210000D03*
%TO.P,J1,14*%
%TO.N,+5V*%
X86100000Y-44210000D03*
%TO.P,J1,13*%
%TO.N,Net-(J1-Pad13)*%
X85100000Y-44210000D03*
%TO.P,J1,12*%
%TO.N,Net-(J1-Pad12)*%
X84100000Y-44210000D03*
%TO.P,J1,11*%
%TO.N,GND*%
X83100000Y-44210000D03*
%TO.P,J1,10*%
%TO.N,Net-(J1-Pad10)*%
X82100000Y-44210000D03*
%TO.P,J1,9*%
%TO.N,Net-(J1-Pad9)*%
X81100000Y-44210000D03*
%TO.P,J1,8*%
%TO.N,KROW_7*%
X80100000Y-44210000D03*
%TO.P,J1,7*%
%TO.N,KROW_6*%
X79100000Y-44210000D03*
%TO.P,J1,6*%
%TO.N,KROW_5*%
X78100000Y-44210000D03*
%TO.P,J1,5*%
%TO.N,KROW_4*%
X77100000Y-44210000D03*
%TO.P,J1,4*%
%TO.N,KROW_3*%
X76100000Y-44210000D03*
%TO.P,J1,3*%
%TO.N,KROW_2*%
X75100000Y-44210000D03*
%TO.P,J1,2*%
%TO.N,KROW_1*%
X74100000Y-44210000D03*
%TA.AperFunction,SMDPad,CuDef*%
D15*
%TO.P,J1,*%
%TO.N,*%
G36*
X71400000Y-43910000D02*
G01*
X69300000Y-43910000D01*
X69300000Y-42310000D01*
X70100000Y-42310000D01*
X70100000Y-41960000D01*
X71400000Y-41960000D01*
X71400000Y-43910000D01*
G37*
%TD.AperFunction*%
%TA.AperFunction,SMDPad,CuDef*%
G36*
X109100000Y-42310000D02*
G01*
X109900000Y-42310000D01*
X109900000Y-43910000D01*
X107800000Y-43910000D01*
X107800000Y-41960000D01*
X109100000Y-41960000D01*
X109100000Y-42310000D01*
G37*
%TD.AperFunction*%
D14*
%TO.P,J1,1*%
%TO.N,KROW_0*%
X73100000Y-44210000D03*
%TD*%
D16*
%TO.P,J4,3*%
%TO.N,TX*%
X108950000Y-51280000D03*
%TO.P,J4,2*%
%TO.N,RX*%
X108950000Y-48740000D03*
D17*
%TO.P,J4,1*%
%TO.N,GND*%
X108950000Y-46200000D03*
%TD*%
%TO.P,R12,2*%
%TO.N,RL_LED*%
%TA.AperFunction,SMDPad,CuDef*%
G36*
G01*
X105149999Y-49200000D02*
X106050001Y-49200000D01*
G75*
G02*
X106300000Y-49449999I0J-249999D01*
G01*
X106300000Y-50150001D01*
G75*
G02*
X106050001Y-50400000I-249999J0D01*
G01*
X105149999Y-50400000D01*
G75*
G02*
X104900000Y-50150001I0J249999D01*
G01*
X104900000Y-49449999D01*
G75*
G02*
X105149999Y-49200000I249999J0D01*
G01*
G37*
%TD.AperFunction*%
%TO.P,R12,1*%
%TO.N,Net-(J1-Pad33)*%
%TA.AperFunction,SMDPad,CuDef*%
G36*
G01*
X105149999Y-47200000D02*
X106050001Y-47200000D01*
G75*
G02*
X106300000Y-47449999I0J-249999D01*
G01*
X106300000Y-48150001D01*
G75*
G02*
X106050001Y-48400000I-249999J0D01*
G01*
X105149999Y-48400000D01*
G75*
G02*
X104900000Y-48150001I0J249999D01*
G01*
X104900000Y-47449999D01*
G75*
G02*
X105149999Y-47200000I249999J0D01*
G01*
G37*
%TD.AperFunction*%
%TD*%
%TO.P,R10,2*%
%TO.N,FN_LED*%
%TA.AperFunction,SMDPad,CuDef*%
G36*
G01*
X103199999Y-49200000D02*
X104100001Y-49200000D01*
G75*
G02*
X104350000Y-49449999I0J-249999D01*
G01*
X104350000Y-50150001D01*
G75*
G02*
X104100001Y-50400000I-249999J0D01*
G01*
X103199999Y-50400000D01*
G75*
G02*
X102950000Y-50150001I0J249999D01*
G01*
X102950000Y-49449999D01*
G75*
G02*
X103199999Y-49200000I249999J0D01*
G01*
G37*
%TD.AperFunction*%
%TO.P,R10,1*%
%TO.N,Net-(J1-Pad32)*%
%TA.AperFunction,SMDPad,CuDef*%
G36*
G01*
X103199999Y-47200000D02*
X104100001Y-47200000D01*
G75*
G02*
X104350000Y-47449999I0J-249999D01*
G01*
X104350000Y-48150001D01*
G75*
G02*
X104100001Y-48400000I-249999J0D01*
G01*
X103199999Y-48400000D01*
G75*
G02*
X102950000Y-48150001I0J249999D01*
G01*
X102950000Y-47449999D01*
G75*
G02*
X103199999Y-47200000I249999J0D01*
G01*
G37*
%TD.AperFunction*%
%TD*%
%TO.P,R9,2*%
%TO.N,CL_LED*%
%TA.AperFunction,SMDPad,CuDef*%
G36*
G01*
X82399999Y-47650000D02*
X83300001Y-47650000D01*
G75*
G02*
X83550000Y-47899999I0J-249999D01*
G01*
X83550000Y-48600001D01*
G75*
G02*
X83300001Y-48850000I-249999J0D01*
G01*
X82399999Y-48850000D01*
G75*
G02*
X82150000Y-48600001I0J249999D01*
G01*
X82150000Y-47899999D01*
G75*
G02*
X82399999Y-47650000I249999J0D01*
G01*
G37*
%TD.AperFunction*%
%TO.P,R9,1*%
%TO.N,Net-(J1-Pad10)*%
%TA.AperFunction,SMDPad,CuDef*%
G36*
G01*
X82399999Y-45650000D02*
X83300001Y-45650000D01*
G75*
G02*
X83550000Y-45899999I0J-249999D01*
G01*
X83550000Y-46600001D01*
G75*
G02*
X83300001Y-46850000I-249999J0D01*
G01*
X82399999Y-46850000D01*
G75*
G02*
X82150000Y-46600001I0J249999D01*
G01*
X82150000Y-45899999D01*
G75*
G02*
X82399999Y-45650000I249999J0D01*
G01*
G37*
%TD.AperFunction*%
%TD*%
%TO.P,R8,2*%
%TO.N,PRR_LED*%
%TA.AperFunction,SMDPad,CuDef*%
G36*
G01*
X86299999Y-47650000D02*
X87200001Y-47650000D01*
G75*
G02*
X87450000Y-47899999I0J-249999D01*
G01*
X87450000Y-48600001D01*
G75*
G02*
X87200001Y-48850000I-249999J0D01*
G01*
X86299999Y-48850000D01*
G75*
G02*
X86050000Y-48600001I0J249999D01*
G01*
X86050000Y-47899999D01*
G75*
G02*
X86299999Y-47650000I249999J0D01*
G01*
G37*
%TD.AperFunction*%
%TO.P,R8,1*%
%TO.N,Net-(J1-Pad13)*%
%TA.AperFunction,SMDPad,CuDef*%
G36*
G01*
X86299999Y-45650000D02*
X87200001Y-45650000D01*
G75*
G02*
X87450000Y-45899999I0J-249999D01*
G01*
X87450000Y-46600001D01*
G75*
G02*
X87200001Y-46850000I-249999J0D01*
G01*
X86299999Y-46850000D01*
G75*
G02*
X86050000Y-46600001I0J249999D01*
G01*
X86050000Y-45899999D01*
G75*
G02*
X86299999Y-45650000I249999J0D01*
G01*
G37*
%TD.AperFunction*%
%TD*%
%TA.AperFunction,SMDPad,CuDef*%
D15*
%TO.P,JP2,2*%
%TO.N,GND*%
G36*
X113700000Y-55049398D02*
G01*
X113675466Y-55049398D01*
X113626635Y-55044588D01*
X113578510Y-55035016D01*
X113531555Y-55020772D01*
X113486222Y-55001995D01*
X113442949Y-54978864D01*
X113402150Y-54951604D01*
X113364221Y-54920476D01*
X113329524Y-54885779D01*
X113298396Y-54847850D01*
X113271136Y-54807051D01*
X113248005Y-54763778D01*
X113229228Y-54718445D01*
X113214984Y-54671490D01*
X113205412Y-54623365D01*
X113200602Y-54574534D01*
X113200602Y-54550000D01*
X113200000Y-54550000D01*
X113200000Y-54050000D01*
X113200602Y-54050000D01*
X113200602Y-54025466D01*
X113205412Y-53976635D01*
X113214984Y-53928510D01*
X113229228Y-53881555D01*
X113248005Y-53836222D01*
X113271136Y-53792949D01*
X113298396Y-53752150D01*
X113329524Y-53714221D01*
X113364221Y-53679524D01*
X113402150Y-53648396D01*
X113442949Y-53621136D01*
X113486222Y-53598005D01*
X113531555Y-53579228D01*
X113578510Y-53564984D01*
X113626635Y-53555412D01*
X113675466Y-53550602D01*
X113700000Y-53550602D01*
X113700000Y-53550000D01*
X114200000Y-53550000D01*
X114200000Y-55050000D01*
X113700000Y-55050000D01*
X113700000Y-55049398D01*
G37*
%TD.AperFunction*%
%TA.AperFunction,SMDPad,CuDef*%
%TO.P,JP2,1*%
%TO.N,Net-(JP2-Pad1)*%
G36*
X114500000Y-53550000D02*
G01*
X115000000Y-53550000D01*
X115000000Y-53550602D01*
X115024534Y-53550602D01*
X115073365Y-53555412D01*
X115121490Y-53564984D01*
X115168445Y-53579228D01*
X115213778Y-53598005D01*
X115257051Y-53621136D01*
X115297850Y-53648396D01*
X115335779Y-53679524D01*
X115370476Y-53714221D01*
X115401604Y-53752150D01*
X115428864Y-53792949D01*
X115451995Y-53836222D01*
X115470772Y-53881555D01*
X115485016Y-53928510D01*
X115494588Y-53976635D01*
X115499398Y-54025466D01*
X115499398Y-54050000D01*
X115500000Y-54050000D01*
X115500000Y-54550000D01*
X115499398Y-54550000D01*
X115499398Y-54574534D01*
X115494588Y-54623365D01*
X115485016Y-54671490D01*
X115470772Y-54718445D01*
X115451995Y-54763778D01*
X115428864Y-54807051D01*
X115401604Y-54847850D01*
X115370476Y-54885779D01*
X115335779Y-54920476D01*
X115297850Y-54951604D01*
X115257051Y-54978864D01*
X115213778Y-55001995D01*
X115168445Y-55020772D01*
X115121490Y-55035016D01*
X115073365Y-55044588D01*
X115024534Y-55049398D01*
X115000000Y-55049398D01*
X115000000Y-55050000D01*
X114500000Y-55050000D01*
X114500000Y-53550000D01*
G37*
%TD.AperFunction*%
%TD*%
%TO.P,D2,2*%
%TO.N,+5V*%
%TA.AperFunction,SMDPad,CuDef*%
G36*
G01*
X116012500Y-62450000D02*
X116487500Y-62450000D01*
G75*
G02*
X116725000Y-62687500I0J-237500D01*
G01*
X116725000Y-63262500D01*
G75*
G02*
X116487500Y-63500000I-237500J0D01*
G01*
X116012500Y-63500000D01*
G75*
G02*
X115775000Y-63262500I0J237500D01*
G01*
X115775000Y-62687500D01*
G75*
G02*
X116012500Y-62450000I237500J0D01*
G01*
G37*
%TD.AperFunction*%
%TO.P,D2,1*%
%TO.N,Net-(D2-Pad1)*%
%TA.AperFunction,SMDPad,CuDef*%
G36*
G01*
X116012500Y-60700000D02*
X116487500Y-60700000D01*
G75*
G02*
X116725000Y-60937500I0J-237500D01*
G01*
X116725000Y-61512500D01*
G75*
G02*
X116487500Y-61750000I-237500J0D01*
G01*
X116012500Y-61750000D01*
G75*
G02*
X115775000Y-61512500I0J237500D01*
G01*
X115775000Y-60937500D01*
G75*
G02*
X116012500Y-60700000I237500J0D01*
G01*
G37*
%TD.AperFunction*%
%TD*%
D18*
%TO.P,Y1,4*%
%TO.N,GND*%
X104970000Y-58300000D03*
%TO.P,Y1,3*%
%TO.N,XTAL2*%
X104970000Y-61200000D03*
%TO.P,Y1,2*%
%TO.N,GND*%
X102670000Y-61200000D03*
%TO.P,Y1,1*%
%TO.N,XTAL1*%
X102670000Y-58300000D03*
%TD*%
D19*
%TO.P,U1,5*%
%TO.N,VBUS*%
X96650000Y-75900000D03*
%TO.P,U1,6*%
%TO.N,USB_CONN_D+*%
X96650000Y-76850000D03*
%TO.P,U1,4*%
%TO.N,USB_CONN_D-*%
X96650000Y-74950000D03*
%TO.P,U1,3*%
%TO.N,USB_D-*%
X98850000Y-74950000D03*
%TO.P,U1,2*%
%TO.N,GND*%
X98850000Y-75900000D03*
%TO.P,U1,1*%
%TO.N,USB_D+*%
X98850000Y-76850000D03*
%TD*%
D20*
%TO.P,TP16,1*%
%TO.N,GND*%
X116150000Y-67700000D03*
%TD*%
%TO.P,TP6,1*%
%TO.N,+5V*%
X113400000Y-67800000D03*
%TD*%
%TO.P,R6,2*%
%TO.N,USB_D-*%
%TA.AperFunction,SMDPad,CuDef*%
G36*
G01*
X98100000Y-72900001D02*
X98100000Y-71999999D01*
G75*
G02*
X98349999Y-71750000I249999J0D01*
G01*
X99050001Y-71750000D01*
G75*
G02*
X99300000Y-71999999I0J-249999D01*
G01*
X99300000Y-72900001D01*
G75*
G02*
X99050001Y-73150000I-249999J0D01*
G01*
X98349999Y-73150000D01*
G75*
G02*
X98100000Y-72900001I0J249999D01*
G01*
G37*
%TD.AperFunction*%
%TO.P,R6,1*%
%TO.N,D-*%
%TA.AperFunction,SMDPad,CuDef*%
G36*
G01*
X96100000Y-72900001D02*
X96100000Y-71999999D01*
G75*
G02*
X96349999Y-71750000I249999J0D01*
G01*
X97050001Y-71750000D01*
G75*
G02*
X97300000Y-71999999I0J-249999D01*
G01*
X97300000Y-72900001D01*
G75*
G02*
X97050001Y-73150000I-249999J0D01*
G01*
X96349999Y-73150000D01*
G75*
G02*
X96100000Y-72900001I0J249999D01*
G01*
G37*
%TD.AperFunction*%
%TD*%
%TO.P,R5,2*%
%TO.N,USB_D+*%
%TA.AperFunction,SMDPad,CuDef*%
G36*
G01*
X98100000Y-71000001D02*
X98100000Y-70099999D01*
G75*
G02*
X98349999Y-69850000I249999J0D01*
G01*
X99050001Y-69850000D01*
G75*
G02*
X99300000Y-70099999I0J-249999D01*
G01*
X99300000Y-71000001D01*
G75*
G02*
X99050001Y-71250000I-249999J0D01*
G01*
X98349999Y-71250000D01*
G75*
G02*
X98100000Y-71000001I0J249999D01*
G01*
G37*
%TD.AperFunction*%
%TO.P,R5,1*%
%TO.N,D+*%
%TA.AperFunction,SMDPad,CuDef*%
G36*
G01*
X96100000Y-71000001D02*
X96100000Y-70099999D01*
G75*
G02*
X96349999Y-69850000I249999J0D01*
G01*
X97050001Y-69850000D01*
G75*
G02*
X97300000Y-70099999I0J-249999D01*
G01*
X97300000Y-71000001D01*
G75*
G02*
X97050001Y-71250000I-249999J0D01*
G01*
X96349999Y-71250000D01*
G75*
G02*
X96100000Y-71000001I0J249999D01*
G01*
G37*
%TD.AperFunction*%
%TD*%
%TO.P,R4,2*%
%TO.N,Net-(JP2-Pad1)*%
%TA.AperFunction,SMDPad,CuDef*%
G36*
G01*
X116700001Y-57550000D02*
X115799999Y-57550000D01*
G75*
G02*
X115550000Y-57300001I0J249999D01*
G01*
X115550000Y-56599999D01*
G75*
G02*
X115799999Y-56350000I249999J0D01*
G01*
X116700001Y-56350000D01*
G75*
G02*
X116950000Y-56599999I0J-249999D01*
G01*
X116950000Y-57300001D01*
G75*
G02*
X116700001Y-57550000I-249999J0D01*
G01*
G37*
%TD.AperFunction*%
%TO.P,R4,1*%
%TO.N,Net-(D2-Pad1)*%
%TA.AperFunction,SMDPad,CuDef*%
G36*
G01*
X116700001Y-59550000D02*
X115799999Y-59550000D01*
G75*
G02*
X115550000Y-59300001I0J249999D01*
G01*
X115550000Y-58599999D01*
G75*
G02*
X115799999Y-58350000I249999J0D01*
G01*
X116700001Y-58350000D01*
G75*
G02*
X116950000Y-58599999I0J-249999D01*
G01*
X116950000Y-59300001D01*
G75*
G02*
X116700001Y-59550000I-249999J0D01*
G01*
G37*
%TD.AperFunction*%
%TD*%
%TO.P,R3,2*%
%TO.N,GND*%
%TA.AperFunction,SMDPad,CuDef*%
G36*
G01*
X102499999Y-75250000D02*
X103400001Y-75250000D01*
G75*
G02*
X103650000Y-75499999I0J-249999D01*
G01*
X103650000Y-76200001D01*
G75*
G02*
X103400001Y-76450000I-249999J0D01*
G01*
X102499999Y-76450000D01*
G75*
G02*
X102250000Y-76200001I0J249999D01*
G01*
X102250000Y-75499999D01*
G75*
G02*
X102499999Y-75250000I249999J0D01*
G01*
G37*
%TD.AperFunction*%
%TO.P,R3,1*%
%TO.N,Net-(D1-Pad1)*%
%TA.AperFunction,SMDPad,CuDef*%
G36*
G01*
X102499999Y-73250000D02*
X103400001Y-73250000D01*
G75*
G02*
X103650000Y-73499999I0J-249999D01*
G01*
X103650000Y-74200001D01*
G75*
G02*
X103400001Y-74450000I-249999J0D01*
G01*
X102499999Y-74450000D01*
G75*
G02*
X102250000Y-74200001I0J249999D01*
G01*
X102250000Y-73499999D01*
G75*
G02*
X102499999Y-73250000I249999J0D01*
G01*
G37*
%TD.AperFunction*%
%TD*%
%TO.P,R2,2*%
%TO.N,RESET*%
%TA.AperFunction,SMDPad,CuDef*%
G36*
G01*
X110649999Y-57800000D02*
X111550001Y-57800000D01*
G75*
G02*
X111800000Y-58049999I0J-249999D01*
G01*
X111800000Y-58750001D01*
G75*
G02*
X111550001Y-59000000I-249999J0D01*
G01*
X110649999Y-59000000D01*
G75*
G02*
X110400000Y-58750001I0J249999D01*
G01*
X110400000Y-58049999D01*
G75*
G02*
X110649999Y-57800000I249999J0D01*
G01*
G37*
%TD.AperFunction*%
%TO.P,R2,1*%
%TO.N,+5V*%
%TA.AperFunction,SMDPad,CuDef*%
G36*
G01*
X110649999Y-55800000D02*
X111550001Y-55800000D01*
G75*
G02*
X111800000Y-56049999I0J-249999D01*
G01*
X111800000Y-56750001D01*
G75*
G02*
X111550001Y-57000000I-249999J0D01*
G01*
X110649999Y-57000000D01*
G75*
G02*
X110400000Y-56750001I0J249999D01*
G01*
X110400000Y-56049999D01*
G75*
G02*
X110649999Y-55800000I249999J0D01*
G01*
G37*
%TD.AperFunction*%
%TD*%
%TO.P,R1,2*%
%TO.N,HWB*%
%TA.AperFunction,SMDPad,CuDef*%
G36*
G01*
X69699999Y-48200000D02*
X70600001Y-48200000D01*
G75*
G02*
X70850000Y-48449999I0J-249999D01*
G01*
X70850000Y-49150001D01*
G75*
G02*
X70600001Y-49400000I-249999J0D01*
G01*
X69699999Y-49400000D01*
G75*
G02*
X69450000Y-49150001I0J249999D01*
G01*
X69450000Y-48449999D01*
G75*
G02*
X69699999Y-48200000I249999J0D01*
G01*
G37*
%TD.AperFunction*%
%TO.P,R1,1*%
%TO.N,+5V*%
%TA.AperFunction,SMDPad,CuDef*%
G36*
G01*
X69699999Y-46200000D02*
X70600001Y-46200000D01*
G75*
G02*
X70850000Y-46449999I0J-249999D01*
G01*
X70850000Y-47150001D01*
G75*
G02*
X70600001Y-47400000I-249999J0D01*
G01*
X69699999Y-47400000D01*
G75*
G02*
X69450000Y-47150001I0J249999D01*
G01*
X69450000Y-46449999D01*
G75*
G02*
X69699999Y-46200000I249999J0D01*
G01*
G37*
%TD.AperFunction*%
%TD*%
%TA.AperFunction,SMDPad,CuDef*%
D15*
%TO.P,JP1,2*%
%TO.N,RESET*%
G36*
X75800602Y-75550000D02*
G01*
X75800602Y-75525466D01*
X75805412Y-75476635D01*
X75814984Y-75428510D01*
X75829228Y-75381555D01*
X75848005Y-75336222D01*
X75871136Y-75292949D01*
X75898396Y-75252150D01*
X75929524Y-75214221D01*
X75964221Y-75179524D01*
X76002150Y-75148396D01*
X76042949Y-75121136D01*
X76086222Y-75098005D01*
X76131555Y-75079228D01*
X76178510Y-75064984D01*
X76226635Y-75055412D01*
X76275466Y-75050602D01*
X76300000Y-75050602D01*
X76300000Y-75050000D01*
X76800000Y-75050000D01*
X76800000Y-75050602D01*
X76824534Y-75050602D01*
X76873365Y-75055412D01*
X76921490Y-75064984D01*
X76968445Y-75079228D01*
X77013778Y-75098005D01*
X77057051Y-75121136D01*
X77097850Y-75148396D01*
X77135779Y-75179524D01*
X77170476Y-75214221D01*
X77201604Y-75252150D01*
X77228864Y-75292949D01*
X77251995Y-75336222D01*
X77270772Y-75381555D01*
X77285016Y-75428510D01*
X77294588Y-75476635D01*
X77299398Y-75525466D01*
X77299398Y-75550000D01*
X77300000Y-75550000D01*
X77300000Y-76050000D01*
X75800000Y-76050000D01*
X75800000Y-75550000D01*
X75800602Y-75550000D01*
G37*
%TD.AperFunction*%
%TA.AperFunction,SMDPad,CuDef*%
%TO.P,JP1,1*%
%TO.N,Net-(J3-Pad6)*%
G36*
X77300000Y-76350000D02*
G01*
X77300000Y-76850000D01*
X77299398Y-76850000D01*
X77299398Y-76874534D01*
X77294588Y-76923365D01*
X77285016Y-76971490D01*
X77270772Y-77018445D01*
X77251995Y-77063778D01*
X77228864Y-77107051D01*
X77201604Y-77147850D01*
X77170476Y-77185779D01*
X77135779Y-77220476D01*
X77097850Y-77251604D01*
X77057051Y-77278864D01*
X77013778Y-77301995D01*
X76968445Y-77320772D01*
X76921490Y-77335016D01*
X76873365Y-77344588D01*
X76824534Y-77349398D01*
X76800000Y-77349398D01*
X76800000Y-77350000D01*
X76300000Y-77350000D01*
X76300000Y-77349398D01*
X76275466Y-77349398D01*
X76226635Y-77344588D01*
X76178510Y-77335016D01*
X76131555Y-77320772D01*
X76086222Y-77301995D01*
X76042949Y-77278864D01*
X76002150Y-77251604D01*
X75964221Y-77220476D01*
X75929524Y-77185779D01*
X75898396Y-77147850D01*
X75871136Y-77107051D01*
X75848005Y-77063778D01*
X75829228Y-77018445D01*
X75814984Y-76971490D01*
X75805412Y-76923365D01*
X75800602Y-76874534D01*
X75800602Y-76850000D01*
X75800000Y-76850000D01*
X75800000Y-76350000D01*
X77300000Y-76350000D01*
G37*
%TD.AperFunction*%
%TD*%
D16*
%TO.P,J5,4*%
%TO.N,T0*%
X106400000Y-69080000D03*
%TO.P,J5,3*%
%TO.N,T1*%
X106400000Y-71620000D03*
%TO.P,J5,2*%
%TO.N,T2*%
X106400000Y-74160000D03*
D17*
%TO.P,J5,1*%
%TO.N,GND*%
X106400000Y-76700000D03*
%TD*%
D16*
%TO.P,J3,10*%
%TO.N,GND*%
X70860000Y-65890000D03*
%TO.P,J3,9*%
%TO.N,TDI*%
X73400000Y-65890000D03*
%TO.P,J3,8*%
%TO.N,Net-(J3-Pad8)*%
X70860000Y-68430000D03*
%TO.P,J3,7*%
%TO.N,+5V*%
X73400000Y-68430000D03*
%TO.P,J3,6*%
%TO.N,Net-(J3-Pad6)*%
X70860000Y-70970000D03*
%TO.P,J3,5*%
%TO.N,TMS*%
X73400000Y-70970000D03*
%TO.P,J3,4*%
%TO.N,+5V*%
X70860000Y-73510000D03*
%TO.P,J3,3*%
%TO.N,TDO*%
X73400000Y-73510000D03*
%TO.P,J3,2*%
%TO.N,GND*%
X70860000Y-76050000D03*
D17*
%TO.P,J3,1*%
%TO.N,TCK*%
X73400000Y-76050000D03*
%TD*%
%TO.P,F1,2*%
%TO.N,+5V*%
%TA.AperFunction,SMDPad,CuDef*%
G36*
G01*
X87975000Y-74125000D02*
X87975000Y-72875000D01*
G75*
G02*
X88225000Y-72625000I250000J0D01*
G01*
X89150000Y-72625000D01*
G75*
G02*
X89400000Y-72875000I0J-250000D01*
G01*
X89400000Y-74125000D01*
G75*
G02*
X89150000Y-74375000I-250000J0D01*
G01*
X88225000Y-74375000D01*
G75*
G02*
X87975000Y-74125000I0J250000D01*
G01*
G37*
%TD.AperFunction*%
%TO.P,F1,1*%
%TO.N,VBUS*%
%TA.AperFunction,SMDPad,CuDef*%
G36*
G01*
X85000000Y-74125000D02*
X85000000Y-72875000D01*
G75*
G02*
X85250000Y-72625000I250000J0D01*
G01*
X86175000Y-72625000D01*
G75*
G02*
X86425000Y-72875000I0J-250000D01*
G01*
X86425000Y-74125000D01*
G75*
G02*
X86175000Y-74375000I-250000J0D01*
G01*
X85250000Y-74375000D01*
G75*
G02*
X85000000Y-74125000I0J250000D01*
G01*
G37*
%TD.AperFunction*%
%TD*%
%TO.P,C9,2*%
%TO.N,GND*%
%TA.AperFunction,SMDPad,CuDef*%
G36*
G01*
X83325000Y-69312500D02*
X83325000Y-69787500D01*
G75*
G02*
X83087500Y-70025000I-237500J0D01*
G01*
X82487500Y-70025000D01*
G75*
G02*
X82250000Y-69787500I0J237500D01*
G01*
X82250000Y-69312500D01*
G75*
G02*
X82487500Y-69075000I237500J0D01*
G01*
X83087500Y-69075000D01*
G75*
G02*
X83325000Y-69312500I0J-237500D01*
G01*
G37*
%TD.AperFunction*%
%TO.P,C9,1*%
%TO.N,+5V*%
%TA.AperFunction,SMDPad,CuDef*%
G36*
G01*
X85050000Y-69312500D02*
X85050000Y-69787500D01*
G75*
G02*
X84812500Y-70025000I-237500J0D01*
G01*
X84212500Y-70025000D01*
G75*
G02*
X83975000Y-69787500I0J237500D01*
G01*
X83975000Y-69312500D01*
G75*
G02*
X84212500Y-69075000I237500J0D01*
G01*
X84812500Y-69075000D01*
G75*
G02*
X85050000Y-69312500I0J-237500D01*
G01*
G37*
%TD.AperFunction*%
%TD*%
%TO.P,C8,1*%
%TO.N,+5V*%
%TA.AperFunction,SMDPad,CuDef*%
G36*
G01*
X77712500Y-53887500D02*
X78187500Y-53887500D01*
G75*
G02*
X78425000Y-54125000I0J-237500D01*
G01*
X78425000Y-54725000D01*
G75*
G02*
X78187500Y-54962500I-237500J0D01*
G01*
X77712500Y-54962500D01*
G75*
G02*
X77475000Y-54725000I0J237500D01*
G01*
X77475000Y-54125000D01*
G75*
G02*
X77712500Y-53887500I237500J0D01*
G01*
G37*
%TD.AperFunction*%
%TO.P,C8,2*%
%TO.N,GND*%
%TA.AperFunction,SMDPad,CuDef*%
G36*
G01*
X77712500Y-55612500D02*
X78187500Y-55612500D01*
G75*
G02*
X78425000Y-55850000I0J-237500D01*
G01*
X78425000Y-56450000D01*
G75*
G02*
X78187500Y-56687500I-237500J0D01*
G01*
X77712500Y-56687500D01*
G75*
G02*
X77475000Y-56450000I0J237500D01*
G01*
X77475000Y-55850000D01*
G75*
G02*
X77712500Y-55612500I237500J0D01*
G01*
G37*
%TD.AperFunction*%
%TD*%
%TO.P,C7,2*%
%TO.N,GND*%
%TA.AperFunction,SMDPad,CuDef*%
G36*
G01*
X100287500Y-61425000D02*
X99812500Y-61425000D01*
G75*
G02*
X99575000Y-61187500I0J237500D01*
G01*
X99575000Y-60587500D01*
G75*
G02*
X99812500Y-60350000I237500J0D01*
G01*
X100287500Y-60350000D01*
G75*
G02*
X100525000Y-60587500I0J-237500D01*
G01*
X100525000Y-61187500D01*
G75*
G02*
X100287500Y-61425000I-237500J0D01*
G01*
G37*
%TD.AperFunction*%
%TO.P,C7,1*%
%TO.N,+5V*%
%TA.AperFunction,SMDPad,CuDef*%
G36*
G01*
X100287500Y-63150000D02*
X99812500Y-63150000D01*
G75*
G02*
X99575000Y-62912500I0J237500D01*
G01*
X99575000Y-62312500D01*
G75*
G02*
X99812500Y-62075000I237500J0D01*
G01*
X100287500Y-62075000D01*
G75*
G02*
X100525000Y-62312500I0J-237500D01*
G01*
X100525000Y-62912500D01*
G75*
G02*
X100287500Y-63150000I-237500J0D01*
G01*
G37*
%TD.AperFunction*%
%TD*%
%TO.P,C6,2*%
%TO.N,GND*%
%TA.AperFunction,SMDPad,CuDef*%
G36*
G01*
X78187500Y-63825000D02*
X77712500Y-63825000D01*
G75*
G02*
X77475000Y-63587500I0J237500D01*
G01*
X77475000Y-62987500D01*
G75*
G02*
X77712500Y-62750000I237500J0D01*
G01*
X78187500Y-62750000D01*
G75*
G02*
X78425000Y-62987500I0J-237500D01*
G01*
X78425000Y-63587500D01*
G75*
G02*
X78187500Y-63825000I-237500J0D01*
G01*
G37*
%TD.AperFunction*%
%TO.P,C6,1*%
%TO.N,+5V*%
%TA.AperFunction,SMDPad,CuDef*%
G36*
G01*
X78187500Y-65550000D02*
X77712500Y-65550000D01*
G75*
G02*
X77475000Y-65312500I0J237500D01*
G01*
X77475000Y-64712500D01*
G75*
G02*
X77712500Y-64475000I237500J0D01*
G01*
X78187500Y-64475000D01*
G75*
G02*
X78425000Y-64712500I0J-237500D01*
G01*
X78425000Y-65312500D01*
G75*
G02*
X78187500Y-65550000I-237500J0D01*
G01*
G37*
%TD.AperFunction*%
%TD*%
%TO.P,C4,1*%
%TO.N,XTAL2*%
%TA.AperFunction,SMDPad,CuDef*%
G36*
G01*
X105250000Y-63212500D02*
X105250000Y-63687500D01*
G75*
G02*
X105012500Y-63925000I-237500J0D01*
G01*
X104412500Y-63925000D01*
G75*
G02*
X104175000Y-63687500I0J237500D01*
G01*
X104175000Y-63212500D01*
G75*
G02*
X104412500Y-62975000I237500J0D01*
G01*
X105012500Y-62975000D01*
G75*
G02*
X105250000Y-63212500I0J-237500D01*
G01*
G37*
%TD.AperFunction*%
%TO.P,C4,2*%
%TO.N,GND*%
%TA.AperFunction,SMDPad,CuDef*%
G36*
G01*
X103525000Y-63212500D02*
X103525000Y-63687500D01*
G75*
G02*
X103287500Y-63925000I-237500J0D01*
G01*
X102687500Y-63925000D01*
G75*
G02*
X102450000Y-63687500I0J237500D01*
G01*
X102450000Y-63212500D01*
G75*
G02*
X102687500Y-62975000I237500J0D01*
G01*
X103287500Y-62975000D01*
G75*
G02*
X103525000Y-63212500I0J-237500D01*
G01*
G37*
%TD.AperFunction*%
%TD*%
%TO.P,C3,2*%
%TO.N,GND*%
%TA.AperFunction,SMDPad,CuDef*%
G36*
G01*
X104075000Y-56287500D02*
X104075000Y-55812500D01*
G75*
G02*
X104312500Y-55575000I237500J0D01*
G01*
X104912500Y-55575000D01*
G75*
G02*
X105150000Y-55812500I0J-237500D01*
G01*
X105150000Y-56287500D01*
G75*
G02*
X104912500Y-56525000I-237500J0D01*
G01*
X104312500Y-56525000D01*
G75*
G02*
X104075000Y-56287500I0J237500D01*
G01*
G37*
%TD.AperFunction*%
%TO.P,C3,1*%
%TO.N,XTAL1*%
%TA.AperFunction,SMDPad,CuDef*%
G36*
G01*
X102350000Y-56287500D02*
X102350000Y-55812500D01*
G75*
G02*
X102587500Y-55575000I237500J0D01*
G01*
X103187500Y-55575000D01*
G75*
G02*
X103425000Y-55812500I0J-237500D01*
G01*
X103425000Y-56287500D01*
G75*
G02*
X103187500Y-56525000I-237500J0D01*
G01*
X102587500Y-56525000D01*
G75*
G02*
X102350000Y-56287500I0J237500D01*
G01*
G37*
%TD.AperFunction*%
%TD*%
%TO.P,C2,2*%
%TO.N,GND*%
%TA.AperFunction,SMDPad,CuDef*%
G36*
G01*
X87750000Y-77525000D02*
X87750000Y-76575000D01*
G75*
G02*
X88000000Y-76325000I250000J0D01*
G01*
X88675000Y-76325000D01*
G75*
G02*
X88925000Y-76575000I0J-250000D01*
G01*
X88925000Y-77525000D01*
G75*
G02*
X88675000Y-77775000I-250000J0D01*
G01*
X88000000Y-77775000D01*
G75*
G02*
X87750000Y-77525000I0J250000D01*
G01*
G37*
%TD.AperFunction*%
%TO.P,C2,1*%
%TO.N,+5V*%
%TA.AperFunction,SMDPad,CuDef*%
G36*
G01*
X85675000Y-77525000D02*
X85675000Y-76575000D01*
G75*
G02*
X85925000Y-76325000I250000J0D01*
G01*
X86600000Y-76325000D01*
G75*
G02*
X86850000Y-76575000I0J-250000D01*
G01*
X86850000Y-77525000D01*
G75*
G02*
X86600000Y-77775000I-250000J0D01*
G01*
X85925000Y-77775000D01*
G75*
G02*
X85675000Y-77525000I0J250000D01*
G01*
G37*
%TD.AperFunction*%
%TD*%
D21*
%TO.N,RESET*%
X94950000Y-62950000D03*
X108150000Y-67100000D03*
X83200000Y-68050000D03*
%TO.N,+5V*%
X94950000Y-61550000D03*
X82950000Y-64650000D03*
X82850000Y-54660000D03*
X84550000Y-64750000D03*
X70150000Y-45700000D03*
X77000000Y-65050000D03*
X84550000Y-70500000D03*
X100050000Y-63650000D03*
X111100000Y-55300000D03*
X115600000Y-63800000D03*
X116950000Y-63800000D03*
X78850000Y-54200000D03*
X86100000Y-42950000D03*
X113400000Y-66550000D03*
X74500000Y-52000000D03*
X88250000Y-74800000D03*
X89100000Y-74800000D03*
X89850000Y-73100000D03*
X89850000Y-73950000D03*
%TO.N,LED_STATUS*%
X101400000Y-70200000D03*
%TO.N,USB_CONN_D+*%
X94650000Y-76401600D03*
%TO.N,USB_CONN_D-*%
X94650000Y-75398400D03*
%TO.N,TDI*%
X77100000Y-61200000D03*
X83200000Y-57000000D03*
%TO.N,TMS*%
X77650000Y-68000000D03*
X79200000Y-58150000D03*
%TO.N,TDO*%
X78800000Y-68000000D03*
X83150000Y-58300000D03*
%TO.N,TCK*%
X80050000Y-68000000D03*
X83000000Y-60050000D03*
%TO.N,TX*%
X95000000Y-55200000D03*
%TO.N,RX*%
X94900000Y-57150000D03*
%TO.N,HWB*%
X86950000Y-52450000D03*
X71550000Y-50150000D03*
%TO.N,GND*%
X102150000Y-62750000D03*
X105450000Y-56750000D03*
X94950000Y-60350000D03*
X82950000Y-63450000D03*
X82850000Y-55950000D03*
X86950000Y-64750000D03*
X81650000Y-69550000D03*
X83100000Y-42950000D03*
X106100000Y-42950000D03*
X77000000Y-63300000D03*
X78900000Y-56500000D03*
X100200000Y-58450000D03*
X101050000Y-60850000D03*
X112850000Y-53650000D03*
X112800000Y-54850000D03*
X111100000Y-65700000D03*
X70200000Y-56200000D03*
X116150000Y-66450000D03*
X74450000Y-54700000D03*
X102950000Y-77000000D03*
X90500000Y-69500000D03*
X88750000Y-75900000D03*
X101000000Y-77350000D03*
X89400000Y-76600000D03*
X89400000Y-77500000D03*
%TO.N,VBUS*%
X88800000Y-68100000D03*
X94700000Y-73150000D03*
X86150000Y-74800000D03*
X86150000Y-72200000D03*
X85250000Y-72200000D03*
%TO.N,D+*%
X95650000Y-70200000D03*
%TO.N,D-*%
X95650000Y-72550000D03*
%TD*%
D22*
%TO.N,RESET*%
X111100000Y-58400000D02*
X111100000Y-59650000D01*
X95750000Y-62150000D02*
X94950000Y-62950000D01*
X96630000Y-62150000D02*
X95750000Y-62150000D01*
X108150000Y-67100000D02*
X111450000Y-67100000D01*
X111450000Y-67100000D02*
X112800000Y-65750000D01*
X112800000Y-65750000D02*
X112800000Y-60300000D01*
X112250000Y-59750000D02*
X111100000Y-59750000D01*
X112800000Y-60300000D02*
X112250000Y-59750000D01*
X111100000Y-59750000D02*
X111100000Y-60650000D01*
X111100000Y-59650000D02*
X111100000Y-59750000D01*
X79950000Y-70200000D02*
X78850000Y-70200000D01*
X78850000Y-70200000D02*
X77200000Y-71850000D01*
X77200000Y-74900000D02*
X76550000Y-75550000D01*
X77200000Y-71850000D02*
X77200000Y-74900000D01*
X80200000Y-70200000D02*
X80800000Y-69600000D01*
X79950000Y-70200000D02*
X80200000Y-70200000D01*
X80800000Y-69600000D02*
X80800000Y-69000000D01*
X81750000Y-68050000D02*
X83200000Y-68050000D01*
X80800000Y-69000000D02*
X81750000Y-68050000D01*
D23*
%TO.N,+5V*%
X95150000Y-61350000D02*
X94950000Y-61550000D01*
X96630000Y-61350000D02*
X95150000Y-61350000D01*
X98787500Y-61350000D02*
X100050000Y-62612500D01*
X96630000Y-61350000D02*
X98787500Y-61350000D01*
X82850000Y-64550000D02*
X82950000Y-64650000D01*
X81230000Y-64550000D02*
X82850000Y-64550000D01*
X78412500Y-64550000D02*
X77950000Y-65012500D01*
X81230000Y-64550000D02*
X78412500Y-64550000D01*
X78475000Y-54950000D02*
X77950000Y-54425000D01*
X81230000Y-54950000D02*
X78475000Y-54950000D01*
X82560000Y-54950000D02*
X82850000Y-54660000D01*
X81230000Y-54950000D02*
X82560000Y-54950000D01*
X84530000Y-64770000D02*
X84550000Y-64750000D01*
X84530000Y-66250000D02*
X84530000Y-64770000D01*
X84530000Y-69532500D02*
X84512500Y-69550000D01*
X84530000Y-66250000D02*
X84530000Y-69532500D01*
X70150000Y-45700000D02*
X70150000Y-46800000D01*
X77912500Y-65050000D02*
X77950000Y-65012500D01*
X77000000Y-65050000D02*
X77912500Y-65050000D01*
X84512500Y-70462500D02*
X84550000Y-70500000D01*
X84512500Y-69550000D02*
X84512500Y-70462500D01*
X100050000Y-63650000D02*
X100050000Y-62612500D01*
D22*
X111100000Y-55300000D02*
X111100000Y-56400000D01*
D23*
X115600000Y-63625000D02*
X116250000Y-62975000D01*
X115600000Y-63800000D02*
X115600000Y-63625000D01*
X116950000Y-63675000D02*
X116250000Y-62975000D01*
X116950000Y-63800000D02*
X116950000Y-63675000D01*
X78850000Y-54200000D02*
X78175000Y-54200000D01*
X78175000Y-54200000D02*
X77950000Y-54425000D01*
D24*
X86100000Y-44210000D02*
X86100000Y-42950000D01*
D22*
X113400000Y-66550000D02*
X113400000Y-67800000D01*
D23*
X88250000Y-73937500D02*
X88687500Y-73500000D01*
X88250000Y-74800000D02*
X88250000Y-73937500D01*
X89137500Y-73950000D02*
X88687500Y-73500000D01*
X89850000Y-73950000D02*
X89137500Y-73950000D01*
X89850000Y-73100000D02*
X89850000Y-73950000D01*
X89100000Y-74800000D02*
X88250000Y-74800000D01*
X89450000Y-73500000D02*
X89850000Y-73100000D01*
X88687500Y-73500000D02*
X89450000Y-73500000D01*
X88687500Y-73500000D02*
X88687500Y-74387500D01*
X88687500Y-74387500D02*
X89100000Y-74800000D01*
D25*
X86262500Y-76787500D02*
X88250000Y-74800000D01*
X86262500Y-77050000D02*
X86262500Y-76787500D01*
D22*
%TO.N,XTAL1*%
X97440002Y-58950000D02*
X97750000Y-59259998D01*
X96630000Y-58950000D02*
X97440002Y-58950000D01*
X97759998Y-59259998D02*
X97799990Y-59299990D01*
X97750000Y-59259998D02*
X97759998Y-59259998D01*
X101670010Y-59299990D02*
X102670000Y-58300000D01*
X97799990Y-59299990D02*
X101670010Y-59299990D01*
X102887500Y-58082500D02*
X102670000Y-58300000D01*
X102887500Y-56050000D02*
X102887500Y-58082500D01*
%TO.N,XTAL2*%
X103755002Y-59750000D02*
X104970000Y-60964998D01*
X104970000Y-60964998D02*
X104970000Y-61200000D01*
X96630000Y-59750000D02*
X103755002Y-59750000D01*
X104712500Y-61457500D02*
X104970000Y-61200000D01*
X104712500Y-63450000D02*
X104712500Y-61457500D01*
D25*
%TO.N,Net-(C5-Pad1)*%
X87730000Y-69492500D02*
X87737500Y-69500000D01*
X87730000Y-66250000D02*
X87730000Y-69492500D01*
D22*
%TO.N,LED_STATUS*%
X93757210Y-68950030D02*
X101875030Y-68950030D01*
X89919998Y-67650000D02*
X92457180Y-67650000D01*
X89330000Y-67060002D02*
X89919998Y-67650000D01*
X101875030Y-68950030D02*
X102950000Y-70025000D01*
X92457180Y-67650000D02*
X93757210Y-68950030D01*
X89330000Y-66250000D02*
X89330000Y-67060002D01*
X101875030Y-69724970D02*
X101400000Y-70200000D01*
X101875030Y-68950030D02*
X101875030Y-69724970D01*
%TO.N,Net-(D1-Pad1)*%
X102950000Y-71775000D02*
X102950000Y-73850000D01*
D23*
%TO.N,Net-(D2-Pad1)*%
X116250000Y-61225000D02*
X116250000Y-58950000D01*
D26*
%TO.N,USB_CONN_D+*%
X95854999Y-76850000D02*
X95137155Y-76132156D01*
X96650000Y-76850000D02*
X95854999Y-76850000D01*
X95137155Y-76132156D02*
X94919444Y-76132156D01*
X94919444Y-76132156D02*
X94650000Y-76401600D01*
%TO.N,USB_CONN_D-*%
X95854999Y-74950000D02*
X95137155Y-75667844D01*
X96650000Y-74950000D02*
X95854999Y-74950000D01*
X94919444Y-75667844D02*
X94650000Y-75398400D01*
X95137155Y-75667844D02*
X94919444Y-75667844D01*
D22*
%TO.N,Net-(J3-Pad6)*%
X70860000Y-70970000D02*
X69680000Y-70970000D01*
X69680000Y-70970000D02*
X69100000Y-71550000D01*
X69100000Y-71550000D02*
X69100000Y-76950000D01*
X69100000Y-76950000D02*
X70000000Y-77850000D01*
X75550000Y-77850000D02*
X76550000Y-76850000D01*
X70000000Y-77850000D02*
X75550000Y-77850000D01*
%TO.N,TDI*%
X73400000Y-64900000D02*
X77100000Y-61200000D01*
X73400000Y-65890000D02*
X73400000Y-64900000D01*
X82184315Y-56550000D02*
X81230000Y-56550000D01*
X82634315Y-57000000D02*
X82184315Y-56550000D01*
X83200000Y-57000000D02*
X82634315Y-57000000D01*
%TO.N,TMS*%
X74680000Y-70970000D02*
X77650000Y-68000000D01*
X73400000Y-70970000D02*
X74680000Y-70970000D01*
X79200000Y-58150000D02*
X81230000Y-58150000D01*
%TO.N,TDO*%
X73400000Y-73510000D02*
X74990000Y-73510000D01*
X74990000Y-73510000D02*
X75650000Y-72850000D01*
X75650000Y-71150000D02*
X78800000Y-68000000D01*
X75650000Y-72850000D02*
X75650000Y-71150000D01*
X82200000Y-57350000D02*
X81230000Y-57350000D01*
X83150000Y-58300000D02*
X82200000Y-57350000D01*
%TO.N,TCK*%
X73400000Y-76050000D02*
X74250000Y-76050000D01*
X74250000Y-76050000D02*
X76400000Y-73900000D01*
X76400000Y-71650000D02*
X80050000Y-68000000D01*
X76400000Y-73900000D02*
X76400000Y-71650000D01*
X82465685Y-58950000D02*
X81230000Y-58950000D01*
X83000000Y-59484315D02*
X82465685Y-58950000D01*
X83000000Y-60050000D02*
X83000000Y-59484315D01*
%TO.N,TX*%
X95550000Y-55750000D02*
X95000000Y-55200000D01*
X96630000Y-55750000D02*
X95550000Y-55750000D01*
%TO.N,RX*%
X95500000Y-56550000D02*
X94900000Y-57150000D01*
X96630000Y-56550000D02*
X95500000Y-56550000D01*
%TO.N,T2*%
X104449990Y-72209990D02*
X106400000Y-74160000D01*
X104449990Y-69486400D02*
X104449990Y-72209990D01*
X93943610Y-68500020D02*
X103463610Y-68500020D01*
X103463610Y-68500020D02*
X104449990Y-69486400D01*
X92530000Y-67086410D02*
X93943610Y-68500020D01*
X92530000Y-66250000D02*
X92530000Y-67086410D01*
%TO.N,T1*%
X104900000Y-70120000D02*
X106400000Y-71620000D01*
X93330000Y-66250000D02*
X93330000Y-67250000D01*
X104900000Y-69300000D02*
X104900000Y-70120000D01*
X94130010Y-68050010D02*
X103650010Y-68050010D01*
X93330000Y-67250000D02*
X94130010Y-68050010D01*
X103650010Y-68050010D02*
X104900000Y-69300000D01*
%TO.N,T0*%
X94130000Y-67250000D02*
X94480000Y-67600000D01*
X94130000Y-66250000D02*
X94130000Y-67250000D01*
X104920000Y-67600000D02*
X106400000Y-69080000D01*
X94480000Y-67600000D02*
X104920000Y-67600000D01*
%TO.N,HWB*%
X70150000Y-50000000D02*
X70150000Y-48800000D01*
X70150000Y-51100000D02*
X70200000Y-51150000D01*
X70150000Y-50150000D02*
X70150000Y-51100000D01*
X70150000Y-50000000D02*
X70150000Y-50150000D01*
X86930000Y-52430000D02*
X86950000Y-52450000D01*
X86930000Y-50850000D02*
X86930000Y-52430000D01*
X71550000Y-50150000D02*
X70150000Y-50150000D01*
D26*
%TO.N,USB_D+*%
X98700000Y-70550000D02*
X99417844Y-71267844D01*
X99417844Y-71267844D02*
X100846164Y-71267844D01*
X100846164Y-71267844D02*
X101632156Y-72053836D01*
X101632156Y-72053836D02*
X101632156Y-75396164D01*
X101632156Y-75396164D02*
X100896164Y-76132156D01*
X99645001Y-76850000D02*
X98850000Y-76850000D01*
X100362845Y-76132156D02*
X99645001Y-76850000D01*
X100896164Y-76132156D02*
X100362845Y-76132156D01*
%TO.N,USB_D-*%
X98700000Y-72450000D02*
X99417844Y-71732156D01*
X99417844Y-71732156D02*
X100653836Y-71732156D01*
X100653836Y-71732156D02*
X101167844Y-72246164D01*
X101167844Y-72246164D02*
X101167844Y-75203836D01*
X99645001Y-74950000D02*
X98850000Y-74950000D01*
X100362845Y-75667844D02*
X99645001Y-74950000D01*
X100703836Y-75667844D02*
X100362845Y-75667844D01*
X101167844Y-75203836D02*
X100703836Y-75667844D01*
D22*
%TO.N,GND*%
X102287500Y-62750000D02*
X102987500Y-63450000D01*
X102150000Y-62750000D02*
X102287500Y-62750000D01*
X102150000Y-61720000D02*
X102670000Y-61200000D01*
X102150000Y-62750000D02*
X102150000Y-61720000D01*
X105450000Y-57820000D02*
X104970000Y-58300000D01*
X105450000Y-56750000D02*
X105450000Y-57820000D01*
X105312500Y-56750000D02*
X104612500Y-56050000D01*
X105450000Y-56750000D02*
X105312500Y-56750000D01*
D23*
X95150000Y-60550000D02*
X94950000Y-60350000D01*
X96630000Y-60550000D02*
X95150000Y-60550000D01*
X99712500Y-60550000D02*
X100050000Y-60887500D01*
X96630000Y-60550000D02*
X99712500Y-60550000D01*
X82650000Y-63750000D02*
X82950000Y-63450000D01*
X81230000Y-63750000D02*
X82650000Y-63750000D01*
X78412500Y-63750000D02*
X77950000Y-63287500D01*
X81230000Y-63750000D02*
X78412500Y-63750000D01*
X78350000Y-55750000D02*
X77950000Y-56150000D01*
X82650000Y-55750000D02*
X82850000Y-55950000D01*
X81230000Y-55750000D02*
X82650000Y-55750000D01*
X86930000Y-64770000D02*
X86950000Y-64750000D01*
X86930000Y-66250000D02*
X86930000Y-64770000D01*
X82787500Y-69550000D02*
X81650000Y-69550000D01*
D24*
X83100000Y-43050000D02*
X83150000Y-43000000D01*
X83100000Y-44210000D02*
X83100000Y-42950000D01*
X106100000Y-44210000D02*
X106100000Y-42950000D01*
D23*
X77937500Y-63300000D02*
X77950000Y-63287500D01*
X77000000Y-63300000D02*
X77937500Y-63300000D01*
X78300000Y-56500000D02*
X77950000Y-56150000D01*
X78900000Y-56500000D02*
X78300000Y-56500000D01*
X81230000Y-55750000D02*
X78350000Y-55750000D01*
D24*
X100200000Y-58450000D02*
X100200000Y-57600000D01*
X100200000Y-57600000D02*
X100700000Y-57100000D01*
X100700000Y-57100000D02*
X100700000Y-55750000D01*
X100700000Y-55750000D02*
X101650000Y-54800000D01*
X101650000Y-54800000D02*
X103900000Y-54800000D01*
X103900000Y-54800000D02*
X104612500Y-55512500D01*
X104612500Y-56050000D02*
X104612500Y-55512500D01*
X104612500Y-56050000D02*
X104612500Y-55537500D01*
X104612500Y-55537500D02*
X105200000Y-54950000D01*
X105200000Y-54950000D02*
X106450000Y-54950000D01*
X106450000Y-54950000D02*
X107450000Y-55950000D01*
X107450000Y-55950000D02*
X107450000Y-57550000D01*
X106700000Y-58300000D02*
X104970000Y-58300000D01*
X107450000Y-57550000D02*
X106700000Y-58300000D01*
X104970000Y-58300000D02*
X106750000Y-58300000D01*
X106750000Y-58300000D02*
X107500000Y-59050000D01*
X107500000Y-59050000D02*
X107500000Y-63100000D01*
X107500000Y-63100000D02*
X105900000Y-64700000D01*
X105900000Y-64700000D02*
X103500000Y-64700000D01*
X102987500Y-64187500D02*
X102987500Y-63450000D01*
X103500000Y-64700000D02*
X102987500Y-64187500D01*
X102987500Y-63450000D02*
X102987500Y-64012500D01*
X102987500Y-64012500D02*
X102500000Y-64500000D01*
X102500000Y-64500000D02*
X101750000Y-64500000D01*
X101750000Y-64500000D02*
X101150000Y-63900000D01*
X101150000Y-61987500D02*
X100050000Y-60887500D01*
X101150000Y-63900000D02*
X101150000Y-61987500D01*
X102357500Y-60887500D02*
X102670000Y-61200000D01*
D23*
X102320000Y-60850000D02*
X102670000Y-61200000D01*
X101050000Y-60850000D02*
X102320000Y-60850000D01*
X100087500Y-60850000D02*
X100050000Y-60887500D01*
X101050000Y-60850000D02*
X100087500Y-60850000D01*
X113050000Y-53650000D02*
X113700000Y-54300000D01*
X112850000Y-53650000D02*
X113050000Y-53650000D01*
X113150000Y-54850000D02*
X113700000Y-54300000D01*
X112800000Y-54850000D02*
X113150000Y-54850000D01*
D22*
X111100000Y-64850000D02*
X111100000Y-65700000D01*
X70200000Y-55350000D02*
X70200000Y-56200000D01*
X116150000Y-66450000D02*
X116150000Y-67700000D01*
X102950000Y-75850000D02*
X102950000Y-77000000D01*
D25*
X90500000Y-69500000D02*
X89462500Y-69500000D01*
D22*
X98359998Y-75900000D02*
X97750000Y-76509998D01*
X98850000Y-75900000D02*
X98359998Y-75900000D01*
X97750000Y-77190002D02*
X98409998Y-77850000D01*
X97750000Y-76509998D02*
X97750000Y-77190002D01*
X100500000Y-77850000D02*
X101000000Y-77350000D01*
X98409998Y-77850000D02*
X100500000Y-77850000D01*
D25*
X88750000Y-76637500D02*
X88337500Y-77050000D01*
X88750000Y-75900000D02*
X88750000Y-76637500D01*
X88787500Y-76600000D02*
X88337500Y-77050000D01*
X89400000Y-76600000D02*
X88787500Y-76600000D01*
X88950000Y-77050000D02*
X89400000Y-77500000D01*
X88950000Y-77050000D02*
X89400000Y-76600000D01*
X88337500Y-77050000D02*
X88950000Y-77050000D01*
X89400000Y-76600000D02*
X89400000Y-77500000D01*
X88750000Y-75950000D02*
X89400000Y-76600000D01*
X88750000Y-75900000D02*
X88750000Y-75950000D01*
D22*
%TO.N,VBUS*%
X88530000Y-67830000D02*
X88530000Y-66250000D01*
X88800000Y-68100000D02*
X88530000Y-67830000D01*
X97140002Y-75900000D02*
X96650000Y-75900000D01*
D25*
X85712500Y-73500000D02*
X85712500Y-72962500D01*
D23*
X86150000Y-73937500D02*
X85712500Y-73500000D01*
X86150000Y-74800000D02*
X86150000Y-73937500D01*
X86150000Y-73062500D02*
X85712500Y-73500000D01*
X86150000Y-72200000D02*
X86150000Y-73062500D01*
X85712500Y-72662500D02*
X85250000Y-72200000D01*
X85712500Y-73500000D02*
X85712500Y-72662500D01*
X85250000Y-72200000D02*
X86150000Y-72200000D01*
D22*
X95300000Y-73750000D02*
X94700000Y-73150000D01*
X97750000Y-75580000D02*
X97750000Y-74609998D01*
X96890002Y-73750000D02*
X95300000Y-73750000D01*
X97750000Y-74609998D02*
X96890002Y-73750000D01*
X97430000Y-75900000D02*
X97750000Y-75580000D01*
X96650000Y-75900000D02*
X97430000Y-75900000D01*
D26*
%TO.N,D+*%
X85962156Y-67542845D02*
X85962156Y-69533836D01*
X86130000Y-67375001D02*
X85962156Y-67542845D01*
X86130000Y-66250000D02*
X86130000Y-67375001D01*
X95982156Y-71267844D02*
X96700000Y-70550000D01*
X85962156Y-69533836D02*
X87696164Y-71267844D01*
X87696164Y-71267844D02*
X95982156Y-71267844D01*
D22*
X96350000Y-70200000D02*
X96700000Y-70550000D01*
X95650000Y-70200000D02*
X96350000Y-70200000D01*
D26*
%TO.N,D-*%
X85330000Y-67375001D02*
X85497844Y-67542845D01*
X85497844Y-67542845D02*
X85497844Y-69726164D01*
X85330000Y-66250000D02*
X85330000Y-67375001D01*
X85497844Y-69726164D02*
X87503836Y-71732156D01*
X95982156Y-71732156D02*
X96700000Y-72450000D01*
X87503836Y-71732156D02*
X95982156Y-71732156D01*
D22*
X96600000Y-72550000D02*
X96700000Y-72450000D01*
X95650000Y-72550000D02*
X96600000Y-72550000D01*
D23*
%TO.N,Net-(JP2-Pad1)*%
X116250000Y-55550000D02*
X115000000Y-54300000D01*
X116250000Y-56950000D02*
X116250000Y-55550000D01*
D22*
%TO.N,Net-(J1-Pad33)*%
X105100000Y-44210000D02*
X105100000Y-45550000D01*
X105600000Y-46050000D02*
X105600000Y-47800000D01*
X105100000Y-45550000D02*
X105600000Y-46050000D01*
%TO.N,Net-(J1-Pad32)*%
X104100000Y-44210000D02*
X104100000Y-45600000D01*
X103650000Y-46050000D02*
X103650000Y-47800000D01*
X104100000Y-45600000D02*
X103650000Y-46050000D01*
%TO.N,KCOL_16*%
X100213600Y-65700010D02*
X98263590Y-63750000D01*
X108425020Y-63661390D02*
X106386401Y-65700009D01*
X106386401Y-65700009D02*
X100213600Y-65700010D01*
X108425020Y-54738610D02*
X108425020Y-63661390D01*
X103100000Y-44210000D02*
X103100000Y-45160000D01*
X101411390Y-53874980D02*
X107561390Y-53874980D01*
X100650056Y-47609944D02*
X100650056Y-53113646D01*
X107561390Y-53874980D02*
X108425020Y-54738610D01*
X100650056Y-53113646D02*
X101411390Y-53874980D01*
X98263590Y-63750000D02*
X96630000Y-63750000D01*
X103100000Y-45160000D02*
X100650056Y-47609944D01*
%TO.N,KCOL_15*%
X107975010Y-63474990D02*
X106200000Y-65250000D01*
X106200000Y-65250000D02*
X100400000Y-65250000D01*
X107975010Y-54925010D02*
X107975010Y-63474990D01*
X107374990Y-54324990D02*
X107975010Y-54925010D01*
X100400000Y-65250000D02*
X98100000Y-62950000D01*
X102100000Y-45160000D02*
X100200046Y-47059954D01*
X101224990Y-54324990D02*
X107374990Y-54324990D01*
X100200046Y-53300046D02*
X101224990Y-54324990D01*
X100200046Y-47059954D02*
X100200046Y-53300046D01*
X98100000Y-62950000D02*
X96630000Y-62950000D01*
X102100000Y-44210000D02*
X102100000Y-45160000D01*
%TO.N,KCOL_14*%
X101100000Y-45150000D02*
X101100000Y-44210000D01*
X99750038Y-56786372D02*
X99750036Y-46499964D01*
X99750036Y-46499964D02*
X101100000Y-45150000D01*
X98386410Y-58150000D02*
X99750038Y-56786372D01*
X96630000Y-58150000D02*
X98386410Y-58150000D01*
%TO.N,KCOL_13*%
X100100000Y-44210000D02*
X100100000Y-44522820D01*
X100100000Y-45400000D02*
X100100000Y-44210000D01*
X99300000Y-46200000D02*
X100100000Y-45400000D01*
X99300000Y-50500000D02*
X99300000Y-46200000D01*
X96630000Y-57350000D02*
X98550000Y-57350000D01*
X99300028Y-56599972D02*
X99300028Y-50500028D01*
X99300028Y-50500028D02*
X99300000Y-50500000D01*
X98550000Y-57350000D02*
X99300028Y-56599972D01*
%TO.N,KCOL_12*%
X98850018Y-53899982D02*
X98850018Y-50686428D01*
X98849990Y-46000010D02*
X99100000Y-45750000D01*
X96630000Y-54950000D02*
X97800000Y-54950000D01*
X97800000Y-54950000D02*
X98850018Y-53899982D01*
X98849990Y-50686400D02*
X98849990Y-46000010D01*
X99100000Y-45750000D02*
X99100000Y-44210000D01*
X98850018Y-50686428D02*
X98849990Y-50686400D01*
%TO.N,KCOL_11*%
X98400010Y-53216400D02*
X97466410Y-54150000D01*
X98399980Y-50872800D02*
X98400009Y-50872829D01*
X98400009Y-50872829D02*
X98400010Y-53216400D01*
X98399980Y-46000000D02*
X98399980Y-50872800D01*
X98100000Y-45700020D02*
X98399980Y-46000000D01*
X97466410Y-54150000D02*
X96630000Y-54150000D01*
X98100000Y-44210000D02*
X98100000Y-45700020D01*
%TO.N,KCOL_10*%
X97950000Y-53030000D02*
X97950000Y-51059230D01*
X97630000Y-53350000D02*
X97950000Y-53030000D01*
X96630000Y-53350000D02*
X97630000Y-53350000D01*
X97100000Y-44210000D02*
X97100000Y-45336430D01*
X97949970Y-51059200D02*
X97950000Y-51059230D01*
X97949970Y-46186400D02*
X97949970Y-51059200D01*
X97100000Y-45336430D02*
X97949970Y-46186400D01*
%TO.N,KCOL_9*%
X96100000Y-44210000D02*
X96100000Y-52450000D01*
X96200000Y-52550000D02*
X96630000Y-52550000D01*
X96100000Y-52450000D02*
X96200000Y-52550000D01*
%TO.N,KCOL_8*%
X94930000Y-50850000D02*
X94930000Y-45520000D01*
X95100000Y-45350000D02*
X95100000Y-44210000D01*
X94930000Y-45520000D02*
X95100000Y-45350000D01*
%TO.N,KCOL_7*%
X94100000Y-50820000D02*
X94130000Y-50850000D01*
X94100000Y-44210000D02*
X94100000Y-50820000D01*
%TO.N,KCOL_6*%
X93330000Y-50850000D02*
X93330000Y-45530000D01*
X93100000Y-45300000D02*
X93100000Y-44210000D01*
X93330000Y-45530000D02*
X93100000Y-45300000D01*
%TO.N,KCOL_5*%
X92100000Y-44210000D02*
X92100000Y-45350000D01*
X92530000Y-45780000D02*
X92530000Y-50850000D01*
X92100000Y-45350000D02*
X92530000Y-45780000D01*
%TO.N,KCOL_4*%
X91100000Y-45250000D02*
X91100000Y-44210000D01*
X91730000Y-45880000D02*
X91100000Y-45250000D01*
X91730000Y-50850000D02*
X91730000Y-45880000D01*
%TO.N,KCOL_3*%
X90100000Y-45250000D02*
X90100000Y-44210000D01*
X90930000Y-46080000D02*
X90100000Y-45250000D01*
X90930000Y-50850000D02*
X90930000Y-46080000D01*
%TO.N,KCOL_2*%
X89100000Y-45300000D02*
X89100000Y-44210000D01*
X90130000Y-46330000D02*
X89100000Y-45300000D01*
X90130000Y-50850000D02*
X90130000Y-46330000D01*
%TO.N,KCOL_1*%
X89330000Y-50850000D02*
X89330000Y-46380000D01*
X88100000Y-45150000D02*
X88100000Y-44210000D01*
X89330000Y-46380000D02*
X88100000Y-45150000D01*
%TO.N,KCOL_0*%
X88530000Y-46416810D02*
X87113190Y-45000000D01*
X88530000Y-50850000D02*
X88530000Y-46416810D01*
X87113190Y-44223190D02*
X87100000Y-44210000D01*
X87113190Y-45000000D02*
X87113190Y-44223190D01*
%TO.N,Net-(J1-Pad13)*%
X85100000Y-44210000D02*
X85100000Y-45050000D01*
X85824990Y-45324990D02*
X86750000Y-46250000D01*
X85374990Y-45324990D02*
X85824990Y-45324990D01*
X85100000Y-45050000D02*
X85374990Y-45324990D01*
%TO.N,Net-(J1-Pad12)*%
X84100000Y-44210000D02*
X84100000Y-44700000D01*
X84100000Y-45550000D02*
X84800000Y-46250000D01*
X84100000Y-44210000D02*
X84100000Y-45550000D01*
%TO.N,Net-(J1-Pad10)*%
X82100000Y-45500000D02*
X82850000Y-46250000D01*
X82100000Y-44210000D02*
X82100000Y-45500000D01*
%TO.N,Net-(J1-Pad9)*%
X81100000Y-46050000D02*
X80900000Y-46250000D01*
X81100000Y-44210000D02*
X81100000Y-46050000D01*
%TO.N,KROW_7*%
X82930000Y-50850000D02*
X81350000Y-50850000D01*
X81350000Y-50850000D02*
X79700000Y-49200000D01*
X79700000Y-49200000D02*
X79700000Y-45500000D01*
X80100000Y-45100000D02*
X80100000Y-44210000D01*
X79700000Y-45500000D02*
X80100000Y-45100000D01*
%TO.N,KROW_6*%
X79099990Y-44210010D02*
X79100000Y-44210000D01*
X79100000Y-44210000D02*
X79100000Y-45450000D01*
X79249990Y-45599990D02*
X79249990Y-49799990D01*
X79100000Y-45450000D02*
X79249990Y-45599990D01*
X81230000Y-51780000D02*
X81230000Y-52550000D01*
X79249990Y-49799990D02*
X81230000Y-51780000D01*
%TO.N,KROW_5*%
X79900000Y-52830002D02*
X80419998Y-53350000D01*
X79900000Y-51086410D02*
X79900000Y-52830002D01*
X78100000Y-46904420D02*
X78799980Y-47604400D01*
X78799980Y-49986390D02*
X79900000Y-51086410D01*
X80419998Y-53350000D02*
X81230000Y-53350000D01*
X78799980Y-47604400D02*
X78799980Y-49986390D01*
X78100000Y-44210000D02*
X78100000Y-46904420D01*
%TO.N,KROW_4*%
X80230000Y-54150000D02*
X81230000Y-54150000D01*
X79449990Y-53369990D02*
X80230000Y-54150000D01*
X78349970Y-50172790D02*
X79449990Y-51272810D01*
X78349970Y-47790800D02*
X78349970Y-50172790D01*
X79449990Y-51272810D02*
X79449990Y-53369990D01*
X77100000Y-46540830D02*
X78349970Y-47790800D01*
X77100000Y-44210000D02*
X77100000Y-46540830D01*
%TO.N,KROW_3*%
X79400000Y-59750000D02*
X81230000Y-59750000D01*
X76850000Y-57200000D02*
X79400000Y-59750000D01*
X76100000Y-46177240D02*
X77899960Y-47977200D01*
X76850000Y-53450000D02*
X76850000Y-57200000D01*
X77899960Y-52400040D02*
X76850000Y-53450000D01*
X77899960Y-47977200D02*
X77899960Y-52400040D01*
X76100000Y-44210000D02*
X76100000Y-46177240D01*
%TO.N,KROW_2*%
X75100000Y-44210000D02*
X75100000Y-44772820D01*
X76399990Y-53263600D02*
X77449950Y-52213640D01*
X76399990Y-57386400D02*
X76399990Y-53263600D01*
X79563590Y-60550000D02*
X76399990Y-57386400D01*
X81230000Y-60550000D02*
X79563590Y-60550000D01*
X77449950Y-48163600D02*
X77449950Y-52213640D01*
X75100000Y-45813650D02*
X77449950Y-48163600D01*
X75100000Y-44210000D02*
X75100000Y-45813650D01*
%TO.N,KROW_1*%
X74100000Y-44210000D02*
X74100000Y-45450060D01*
X74100000Y-45450060D02*
X76999940Y-48350000D01*
X76999940Y-52027240D02*
X75949980Y-53077200D01*
X76999940Y-48350000D02*
X76999940Y-52027240D01*
X75949981Y-57572801D02*
X79727180Y-61350000D01*
X75949980Y-53077200D02*
X75949981Y-57572801D01*
X79727180Y-61350000D02*
X81230000Y-61350000D01*
%TO.N,KROW_0*%
X73100000Y-44210000D02*
X73100000Y-45086470D01*
X73100000Y-45086470D02*
X76549930Y-48536400D01*
X76549930Y-51840840D02*
X75499971Y-52890801D01*
X76549930Y-48536400D02*
X76549930Y-51840840D01*
X79890770Y-62150000D02*
X81230000Y-62150000D01*
X75499972Y-57759202D02*
X79890770Y-62150000D01*
X75499971Y-52890801D02*
X75499972Y-57759202D01*
%TO.N,PRW_LED*%
X85330000Y-50850000D02*
X85330000Y-49930000D01*
X84800000Y-49400000D02*
X84800000Y-48250000D01*
X85330000Y-49930000D02*
X84800000Y-49400000D01*
%TO.N,PRR_LED*%
X86130000Y-50850000D02*
X86130000Y-49920000D01*
X86750000Y-49300000D02*
X86750000Y-48250000D01*
X86130000Y-49920000D02*
X86750000Y-49300000D01*
%TO.N,CL_LED*%
X82930000Y-48250000D02*
X82850000Y-48250000D01*
X84530000Y-49850000D02*
X82930000Y-48250000D01*
X84530000Y-50850000D02*
X84530000Y-49850000D01*
%TO.N,FN_LED*%
X108875029Y-63847791D02*
X106572800Y-66150018D01*
X108875030Y-54552210D02*
X108875029Y-63847791D01*
X106572800Y-66150018D02*
X100027199Y-66150019D01*
X98427180Y-64550000D02*
X96630000Y-64550000D01*
X100027199Y-66150019D02*
X98427180Y-64550000D01*
X103650000Y-49800000D02*
X103650000Y-52524970D01*
X104550000Y-53424970D02*
X107747790Y-53424970D01*
X103650000Y-52524970D02*
X104550000Y-53424970D01*
X107747790Y-53424970D02*
X108875030Y-54552210D01*
%TO.N,NL_LED*%
X83730000Y-50039998D02*
X83140002Y-49450000D01*
X83730000Y-50850000D02*
X83730000Y-50039998D01*
X83140002Y-49450000D02*
X81200000Y-49450000D01*
X80900000Y-49150000D02*
X80900000Y-48250000D01*
X81200000Y-49450000D02*
X80900000Y-49150000D01*
%TO.N,RL_LED*%
X99490770Y-66250000D02*
X99840800Y-66600028D01*
X94930000Y-66250000D02*
X99490770Y-66250000D01*
X99840800Y-66600028D02*
X106759200Y-66600027D01*
X106759200Y-66600027D02*
X109325038Y-64034190D01*
X109325038Y-64034190D02*
X109325039Y-54365809D01*
X109325039Y-54365809D02*
X107934190Y-52974960D01*
X104736400Y-52974960D02*
X104100010Y-52338570D01*
X107934190Y-52974960D02*
X104736400Y-52974960D01*
X104100010Y-52338570D02*
X104100010Y-51749990D01*
X104100010Y-51749990D02*
X104800000Y-51050000D01*
X104800000Y-50600000D02*
X105600000Y-49800000D01*
X104800000Y-51050000D02*
X104800000Y-50600000D01*
%TD*%
M02*
