%TF.GenerationSoftware,KiCad,Pcbnew,(5.1.10-1-10_14)*%
%TF.CreationDate,2021-07-23T11:32:30+02:00*%
%TF.ProjectId,WiredSEK,57697265-6453-4454-9b2e-6b696361645f,rev?*%
%TF.SameCoordinates,Original*%
%TF.FileFunction,Copper,L2,Inr*%
%TF.FilePolarity,Positive*%
%FSLAX46Y46*%
G04 Gerber Fmt 4.6, Leading zero omitted, Abs format (unit mm)*
G04 Created by KiCad (PCBNEW (5.1.10-1-10_14)) date 2021-07-23 11:32:30*
%MOMM*%
%LPD*%
G01*
G04 APERTURE LIST*
%TA.AperFunction,ComponentPad*%
%ADD10O,0.900000X1.600000*%
%TD*%
%TA.AperFunction,ComponentPad*%
%ADD11O,1.700000X1.700000*%
%TD*%
%TA.AperFunction,ComponentPad*%
%ADD12R,1.700000X1.700000*%
%TD*%
%TA.AperFunction,ViaPad*%
%ADD13C,0.800000*%
%TD*%
%TA.AperFunction,Conductor*%
%ADD14C,0.254000*%
%TD*%
%TA.AperFunction,Conductor*%
%ADD15C,0.100000*%
%TD*%
G04 APERTURE END LIST*
D10*
%TO.N,*%
%TO.C,J2*%
X91550000Y-73400000D03*
X83350000Y-73400000D03*
X83350000Y-76950000D03*
X91550000Y-76950000D03*
%TD*%
D11*
%TO.N,TX*%
%TO.C,J4*%
X108950000Y-51280000D03*
%TO.N,RX*%
X108950000Y-48740000D03*
D12*
%TO.N,GND*%
X108950000Y-46200000D03*
%TD*%
D11*
%TO.N,T0*%
%TO.C,J5*%
X106400000Y-69080000D03*
%TO.N,T1*%
X106400000Y-71620000D03*
%TO.N,T2*%
X106400000Y-74160000D03*
D12*
%TO.N,GND*%
X106400000Y-76700000D03*
%TD*%
D11*
%TO.N,GND*%
%TO.C,J3*%
X70860000Y-65890000D03*
%TO.N,TDI*%
X73400000Y-65890000D03*
%TO.N,Net-(J3-Pad8)*%
X70860000Y-68430000D03*
%TO.N,+5V*%
X73400000Y-68430000D03*
%TO.N,Net-(J3-Pad6)*%
X70860000Y-70970000D03*
%TO.N,TMS*%
X73400000Y-70970000D03*
%TO.N,+5V*%
X70860000Y-73510000D03*
%TO.N,TDO*%
X73400000Y-73510000D03*
%TO.N,GND*%
X70860000Y-76050000D03*
D12*
%TO.N,TCK*%
X73400000Y-76050000D03*
%TD*%
D13*
%TO.N,RESET*%
X94950000Y-62950000D03*
X108150000Y-67100000D03*
X83200000Y-68050000D03*
%TO.N,+5V*%
X94950000Y-61550000D03*
X82950000Y-64650000D03*
X82850000Y-54660000D03*
X84550000Y-64750000D03*
X70150000Y-45700000D03*
X77000000Y-65050000D03*
X84550000Y-70500000D03*
X100050000Y-63650000D03*
X111100000Y-55300000D03*
X115600000Y-63800000D03*
X116950000Y-63800000D03*
X78850000Y-54200000D03*
X86100000Y-42950000D03*
X113400000Y-66550000D03*
X74500000Y-52000000D03*
X88250000Y-74800000D03*
X89100000Y-74800000D03*
X89850000Y-73100000D03*
X89850000Y-73950000D03*
%TO.N,LED_STATUS*%
X101400000Y-70200000D03*
%TO.N,USB_CONN_D+*%
X94650000Y-76401600D03*
%TO.N,USB_CONN_D-*%
X94650000Y-75398400D03*
%TO.N,TDI*%
X77100000Y-61200000D03*
X83200000Y-57000000D03*
%TO.N,TMS*%
X77650000Y-68000000D03*
X79200000Y-58150000D03*
%TO.N,TDO*%
X78800000Y-68000000D03*
X83150000Y-58300000D03*
%TO.N,TCK*%
X80050000Y-68000000D03*
X83000000Y-60050000D03*
%TO.N,TX*%
X95000000Y-55200000D03*
%TO.N,RX*%
X94900000Y-57150000D03*
%TO.N,HWB*%
X86950000Y-52450000D03*
X71550000Y-50150000D03*
%TO.N,GND*%
X102150000Y-62750000D03*
X105450000Y-56750000D03*
X94950000Y-60350000D03*
X82950000Y-63450000D03*
X82850000Y-55950000D03*
X86950000Y-64750000D03*
X81650000Y-69550000D03*
X83100000Y-42950000D03*
X106100000Y-42950000D03*
X77000000Y-63300000D03*
X78900000Y-56500000D03*
X100200000Y-58450000D03*
X101050000Y-60850000D03*
X112850000Y-53650000D03*
X112800000Y-54850000D03*
X111100000Y-65700000D03*
X70200000Y-56200000D03*
X116150000Y-66450000D03*
X74450000Y-54700000D03*
X102950000Y-77000000D03*
X90500000Y-69500000D03*
X88750000Y-75900000D03*
X101000000Y-77350000D03*
X89400000Y-76600000D03*
X89400000Y-77500000D03*
%TO.N,VBUS*%
X88800000Y-68100000D03*
X94700000Y-73150000D03*
X86150000Y-74800000D03*
X86150000Y-72200000D03*
X85250000Y-72200000D03*
%TO.N,D+*%
X95650000Y-70200000D03*
%TO.N,D-*%
X95650000Y-72550000D03*
%TD*%
D14*
%TO.N,GND*%
X117540000Y-51831447D02*
X117420901Y-51653202D01*
X117246798Y-51479099D01*
X117042074Y-51342307D01*
X116814598Y-51248083D01*
X116573110Y-51200048D01*
X116326890Y-51200048D01*
X116085402Y-51248083D01*
X115857926Y-51342307D01*
X115653202Y-51479099D01*
X115479099Y-51653202D01*
X115342307Y-51857926D01*
X115248083Y-52085402D01*
X115200048Y-52326890D01*
X115200048Y-52573110D01*
X115248083Y-52814598D01*
X115342307Y-53042074D01*
X115479099Y-53246798D01*
X115653202Y-53420901D01*
X115857926Y-53557693D01*
X116085402Y-53651917D01*
X116326890Y-53699952D01*
X116573110Y-53699952D01*
X116814598Y-53651917D01*
X117042074Y-53557693D01*
X117246798Y-53420901D01*
X117420901Y-53246798D01*
X117540000Y-53068553D01*
X117540001Y-62949442D01*
X117440256Y-62882795D01*
X117251898Y-62804774D01*
X117051939Y-62765000D01*
X116848061Y-62765000D01*
X116648102Y-62804774D01*
X116459744Y-62882795D01*
X116290226Y-62996063D01*
X116275000Y-63011289D01*
X116259774Y-62996063D01*
X116090256Y-62882795D01*
X115901898Y-62804774D01*
X115701939Y-62765000D01*
X115498061Y-62765000D01*
X115298102Y-62804774D01*
X115109744Y-62882795D01*
X114940226Y-62996063D01*
X114796063Y-63140226D01*
X114682795Y-63309744D01*
X114604774Y-63498102D01*
X114565000Y-63698061D01*
X114565000Y-63901939D01*
X114604774Y-64101898D01*
X114682795Y-64290256D01*
X114796063Y-64459774D01*
X114940226Y-64603937D01*
X115109744Y-64717205D01*
X115298102Y-64795226D01*
X115498061Y-64835000D01*
X115701939Y-64835000D01*
X115901898Y-64795226D01*
X116090256Y-64717205D01*
X116259774Y-64603937D01*
X116275000Y-64588711D01*
X116290226Y-64603937D01*
X116459744Y-64717205D01*
X116648102Y-64795226D01*
X116848061Y-64835000D01*
X117051939Y-64835000D01*
X117251898Y-64795226D01*
X117440256Y-64717205D01*
X117540001Y-64650558D01*
X117540001Y-68716855D01*
X115149952Y-70989745D01*
X115149952Y-70976890D01*
X115101917Y-70735402D01*
X115007693Y-70507926D01*
X114870901Y-70303202D01*
X114696798Y-70129099D01*
X114492074Y-69992307D01*
X114264598Y-69898083D01*
X114023110Y-69850048D01*
X113776890Y-69850048D01*
X113535402Y-69898083D01*
X113307926Y-69992307D01*
X113103202Y-70129099D01*
X112929099Y-70303202D01*
X112792307Y-70507926D01*
X112698083Y-70735402D01*
X112650048Y-70976890D01*
X112650048Y-71223110D01*
X112698083Y-71464598D01*
X112792307Y-71692074D01*
X112929099Y-71896798D01*
X113103202Y-72070901D01*
X113307926Y-72207693D01*
X113535402Y-72301917D01*
X113729536Y-72340533D01*
X107736282Y-78040000D01*
X107653889Y-78040000D01*
X107701185Y-78001185D01*
X107780537Y-77904494D01*
X107839502Y-77794180D01*
X107875812Y-77674482D01*
X107888072Y-77550000D01*
X107885000Y-76985750D01*
X107726250Y-76827000D01*
X106527000Y-76827000D01*
X106527000Y-76847000D01*
X106273000Y-76847000D01*
X106273000Y-76827000D01*
X105073750Y-76827000D01*
X104915000Y-76985750D01*
X104911928Y-77550000D01*
X104924188Y-77674482D01*
X104960498Y-77794180D01*
X105019463Y-77904494D01*
X105098815Y-78001185D01*
X105146111Y-78040000D01*
X92346299Y-78040000D01*
X92456509Y-77905710D01*
X92557259Y-77717220D01*
X92619300Y-77512696D01*
X92635000Y-77353293D01*
X92635000Y-76546706D01*
X92619300Y-76387303D01*
X92557259Y-76182780D01*
X92456509Y-75994290D01*
X92320922Y-75829078D01*
X92155710Y-75693491D01*
X91967219Y-75592741D01*
X91762696Y-75530700D01*
X91574970Y-75512210D01*
X91585000Y-75461788D01*
X91585000Y-75296461D01*
X93615000Y-75296461D01*
X93615000Y-75500339D01*
X93654774Y-75700298D01*
X93732795Y-75888656D01*
X93740375Y-75900000D01*
X93732795Y-75911344D01*
X93654774Y-76099702D01*
X93615000Y-76299661D01*
X93615000Y-76503539D01*
X93654774Y-76703498D01*
X93732795Y-76891856D01*
X93846063Y-77061374D01*
X93990226Y-77205537D01*
X94159744Y-77318805D01*
X94348102Y-77396826D01*
X94548061Y-77436600D01*
X94751939Y-77436600D01*
X94951898Y-77396826D01*
X95140256Y-77318805D01*
X95309774Y-77205537D01*
X95453937Y-77061374D01*
X95567205Y-76891856D01*
X95645226Y-76703498D01*
X95685000Y-76503539D01*
X95685000Y-76299661D01*
X95645226Y-76099702D01*
X95567205Y-75911344D01*
X95559625Y-75900000D01*
X95567205Y-75888656D01*
X95583216Y-75850000D01*
X104911928Y-75850000D01*
X104915000Y-76414250D01*
X105073750Y-76573000D01*
X106273000Y-76573000D01*
X106273000Y-76553000D01*
X106527000Y-76553000D01*
X106527000Y-76573000D01*
X107726250Y-76573000D01*
X107885000Y-76414250D01*
X107888072Y-75850000D01*
X107875812Y-75725518D01*
X107839502Y-75605820D01*
X107780537Y-75495506D01*
X107701185Y-75398815D01*
X107604494Y-75319463D01*
X107494180Y-75260498D01*
X107421620Y-75238487D01*
X107553475Y-75106632D01*
X107715990Y-74863411D01*
X107827932Y-74593158D01*
X107885000Y-74306260D01*
X107885000Y-74013740D01*
X107827932Y-73726842D01*
X107715990Y-73456589D01*
X107553475Y-73213368D01*
X107346632Y-73006525D01*
X107172240Y-72890000D01*
X107346632Y-72773475D01*
X107553475Y-72566632D01*
X107715990Y-72323411D01*
X107827932Y-72053158D01*
X107885000Y-71766260D01*
X107885000Y-71473740D01*
X107827932Y-71186842D01*
X107715990Y-70916589D01*
X107553475Y-70673368D01*
X107346632Y-70466525D01*
X107172240Y-70350000D01*
X107346632Y-70233475D01*
X107553475Y-70026632D01*
X107715990Y-69783411D01*
X107827932Y-69513158D01*
X107885000Y-69226260D01*
X107885000Y-68933740D01*
X107827932Y-68646842D01*
X107715990Y-68376589D01*
X107553475Y-68133368D01*
X107346632Y-67926525D01*
X107103411Y-67764010D01*
X106833158Y-67652068D01*
X106546260Y-67595000D01*
X106253740Y-67595000D01*
X105966842Y-67652068D01*
X105696589Y-67764010D01*
X105453368Y-67926525D01*
X105246525Y-68133368D01*
X105084010Y-68376589D01*
X104972068Y-68646842D01*
X104915000Y-68933740D01*
X104915000Y-69226260D01*
X104972068Y-69513158D01*
X105084010Y-69783411D01*
X105246525Y-70026632D01*
X105453368Y-70233475D01*
X105627760Y-70350000D01*
X105453368Y-70466525D01*
X105246525Y-70673368D01*
X105084010Y-70916589D01*
X104972068Y-71186842D01*
X104915000Y-71473740D01*
X104915000Y-71766260D01*
X104972068Y-72053158D01*
X105084010Y-72323411D01*
X105246525Y-72566632D01*
X105453368Y-72773475D01*
X105627760Y-72890000D01*
X105453368Y-73006525D01*
X105246525Y-73213368D01*
X105084010Y-73456589D01*
X104972068Y-73726842D01*
X104915000Y-74013740D01*
X104915000Y-74306260D01*
X104972068Y-74593158D01*
X105084010Y-74863411D01*
X105246525Y-75106632D01*
X105378380Y-75238487D01*
X105305820Y-75260498D01*
X105195506Y-75319463D01*
X105098815Y-75398815D01*
X105019463Y-75495506D01*
X104960498Y-75605820D01*
X104924188Y-75725518D01*
X104911928Y-75850000D01*
X95583216Y-75850000D01*
X95645226Y-75700298D01*
X95685000Y-75500339D01*
X95685000Y-75296461D01*
X95645226Y-75096502D01*
X95567205Y-74908144D01*
X95453937Y-74738626D01*
X95309774Y-74594463D01*
X95140256Y-74481195D01*
X94951898Y-74403174D01*
X94751939Y-74363400D01*
X94548061Y-74363400D01*
X94348102Y-74403174D01*
X94159744Y-74481195D01*
X93990226Y-74594463D01*
X93846063Y-74738626D01*
X93732795Y-74908144D01*
X93654774Y-75096502D01*
X93615000Y-75296461D01*
X91585000Y-75296461D01*
X91585000Y-75238212D01*
X91541383Y-75018933D01*
X91463855Y-74831764D01*
X91550000Y-74840249D01*
X91762697Y-74819300D01*
X91967220Y-74757259D01*
X92155710Y-74656509D01*
X92320922Y-74520922D01*
X92456509Y-74355710D01*
X92557259Y-74167220D01*
X92619300Y-73962696D01*
X92635000Y-73803293D01*
X92635000Y-73048061D01*
X93665000Y-73048061D01*
X93665000Y-73251939D01*
X93704774Y-73451898D01*
X93782795Y-73640256D01*
X93896063Y-73809774D01*
X94040226Y-73953937D01*
X94209744Y-74067205D01*
X94398102Y-74145226D01*
X94598061Y-74185000D01*
X94801939Y-74185000D01*
X95001898Y-74145226D01*
X95190256Y-74067205D01*
X95359774Y-73953937D01*
X95503937Y-73809774D01*
X95617205Y-73640256D01*
X95640093Y-73585000D01*
X95751939Y-73585000D01*
X95951898Y-73545226D01*
X96140256Y-73467205D01*
X96309774Y-73353937D01*
X96453937Y-73209774D01*
X96567205Y-73040256D01*
X96645226Y-72851898D01*
X96685000Y-72651939D01*
X96685000Y-72448061D01*
X96645226Y-72248102D01*
X96567205Y-72059744D01*
X96453937Y-71890226D01*
X96309774Y-71746063D01*
X96140256Y-71632795D01*
X95951898Y-71554774D01*
X95751939Y-71515000D01*
X95548061Y-71515000D01*
X95348102Y-71554774D01*
X95159744Y-71632795D01*
X94990226Y-71746063D01*
X94846063Y-71890226D01*
X94732795Y-72059744D01*
X94709907Y-72115000D01*
X94598061Y-72115000D01*
X94398102Y-72154774D01*
X94209744Y-72232795D01*
X94040226Y-72346063D01*
X93896063Y-72490226D01*
X93782795Y-72659744D01*
X93704774Y-72848102D01*
X93665000Y-73048061D01*
X92635000Y-73048061D01*
X92635000Y-72996706D01*
X92619300Y-72837303D01*
X92557259Y-72632780D01*
X92456509Y-72444290D01*
X92320922Y-72279078D01*
X92155710Y-72143491D01*
X91967219Y-72042741D01*
X91762696Y-71980700D01*
X91550000Y-71959751D01*
X91337303Y-71980700D01*
X91132780Y-72042741D01*
X90944290Y-72143491D01*
X90779078Y-72279078D01*
X90650031Y-72436320D01*
X90509774Y-72296063D01*
X90340256Y-72182795D01*
X90151898Y-72104774D01*
X89951939Y-72065000D01*
X89748061Y-72065000D01*
X89548102Y-72104774D01*
X89359744Y-72182795D01*
X89190226Y-72296063D01*
X89046063Y-72440226D01*
X88932795Y-72609744D01*
X88854774Y-72798102D01*
X88815000Y-72998061D01*
X88815000Y-73201939D01*
X88854774Y-73401898D01*
X88905765Y-73525000D01*
X88854774Y-73648102D01*
X88824661Y-73799491D01*
X88798102Y-73804774D01*
X88675000Y-73855765D01*
X88551898Y-73804774D01*
X88351939Y-73765000D01*
X88148061Y-73765000D01*
X87948102Y-73804774D01*
X87759744Y-73882795D01*
X87590226Y-73996063D01*
X87446063Y-74140226D01*
X87332795Y-74309744D01*
X87254774Y-74498102D01*
X87215000Y-74698061D01*
X87215000Y-74901939D01*
X87254774Y-75101898D01*
X87332795Y-75290256D01*
X87446063Y-75459774D01*
X87590226Y-75603937D01*
X87759744Y-75717205D01*
X87948102Y-75795226D01*
X88148061Y-75835000D01*
X88351939Y-75835000D01*
X88551898Y-75795226D01*
X88675000Y-75744235D01*
X88798102Y-75795226D01*
X88998061Y-75835000D01*
X89201939Y-75835000D01*
X89401898Y-75795226D01*
X89405317Y-75793810D01*
X89444176Y-75887624D01*
X89568388Y-76073520D01*
X89726480Y-76231612D01*
X89912376Y-76355824D01*
X90118933Y-76441383D01*
X90338212Y-76485000D01*
X90471078Y-76485000D01*
X90465000Y-76546707D01*
X90465000Y-77353294D01*
X90480700Y-77512697D01*
X90542742Y-77717220D01*
X90643492Y-77905710D01*
X90753702Y-78040000D01*
X84146299Y-78040000D01*
X84256509Y-77905710D01*
X84357259Y-77717220D01*
X84419300Y-77512696D01*
X84435000Y-77353293D01*
X84435000Y-76546706D01*
X84428922Y-76485000D01*
X84561788Y-76485000D01*
X84781067Y-76441383D01*
X84987624Y-76355824D01*
X85173520Y-76231612D01*
X85331612Y-76073520D01*
X85455824Y-75887624D01*
X85541383Y-75681067D01*
X85548924Y-75643157D01*
X85659744Y-75717205D01*
X85848102Y-75795226D01*
X86048061Y-75835000D01*
X86251939Y-75835000D01*
X86451898Y-75795226D01*
X86640256Y-75717205D01*
X86809774Y-75603937D01*
X86953937Y-75459774D01*
X87067205Y-75290256D01*
X87145226Y-75101898D01*
X87185000Y-74901939D01*
X87185000Y-74698061D01*
X87145226Y-74498102D01*
X87067205Y-74309744D01*
X86953937Y-74140226D01*
X86809774Y-73996063D01*
X86640256Y-73882795D01*
X86451898Y-73804774D01*
X86251939Y-73765000D01*
X86048061Y-73765000D01*
X85848102Y-73804774D01*
X85659744Y-73882795D01*
X85490226Y-73996063D01*
X85346063Y-74140226D01*
X85232795Y-74309744D01*
X85168478Y-74465019D01*
X84987624Y-74344176D01*
X84781067Y-74258617D01*
X84561788Y-74215000D01*
X84338212Y-74215000D01*
X84330948Y-74216445D01*
X84357259Y-74167220D01*
X84419300Y-73962696D01*
X84435000Y-73803293D01*
X84435000Y-72996706D01*
X84419300Y-72837303D01*
X84409532Y-72805101D01*
X84446063Y-72859774D01*
X84590226Y-73003937D01*
X84759744Y-73117205D01*
X84948102Y-73195226D01*
X85148061Y-73235000D01*
X85351939Y-73235000D01*
X85551898Y-73195226D01*
X85700000Y-73133880D01*
X85848102Y-73195226D01*
X86048061Y-73235000D01*
X86251939Y-73235000D01*
X86451898Y-73195226D01*
X86640256Y-73117205D01*
X86809774Y-73003937D01*
X86953937Y-72859774D01*
X87067205Y-72690256D01*
X87145226Y-72501898D01*
X87185000Y-72301939D01*
X87185000Y-72098061D01*
X87145226Y-71898102D01*
X87067205Y-71709744D01*
X86953937Y-71540226D01*
X86809774Y-71396063D01*
X86640256Y-71282795D01*
X86451898Y-71204774D01*
X86251939Y-71165000D01*
X86048061Y-71165000D01*
X85848102Y-71204774D01*
X85700000Y-71266120D01*
X85551898Y-71204774D01*
X85351939Y-71165000D01*
X85348711Y-71165000D01*
X85353937Y-71159774D01*
X85467205Y-70990256D01*
X85545226Y-70801898D01*
X85585000Y-70601939D01*
X85585000Y-70398061D01*
X85545226Y-70198102D01*
X85503788Y-70098061D01*
X94615000Y-70098061D01*
X94615000Y-70301939D01*
X94654774Y-70501898D01*
X94732795Y-70690256D01*
X94846063Y-70859774D01*
X94990226Y-71003937D01*
X95159744Y-71117205D01*
X95348102Y-71195226D01*
X95548061Y-71235000D01*
X95751939Y-71235000D01*
X95951898Y-71195226D01*
X96140256Y-71117205D01*
X96309774Y-71003937D01*
X96453937Y-70859774D01*
X96567205Y-70690256D01*
X96645226Y-70501898D01*
X96685000Y-70301939D01*
X96685000Y-70098061D01*
X100365000Y-70098061D01*
X100365000Y-70301939D01*
X100404774Y-70501898D01*
X100482795Y-70690256D01*
X100596063Y-70859774D01*
X100740226Y-71003937D01*
X100909744Y-71117205D01*
X101098102Y-71195226D01*
X101298061Y-71235000D01*
X101501939Y-71235000D01*
X101701898Y-71195226D01*
X101890256Y-71117205D01*
X102059774Y-71003937D01*
X102203937Y-70859774D01*
X102317205Y-70690256D01*
X102395226Y-70501898D01*
X102435000Y-70301939D01*
X102435000Y-70098061D01*
X102395226Y-69898102D01*
X102317205Y-69709744D01*
X102203937Y-69540226D01*
X102059774Y-69396063D01*
X101890256Y-69282795D01*
X101701898Y-69204774D01*
X101501939Y-69165000D01*
X101298061Y-69165000D01*
X101098102Y-69204774D01*
X100909744Y-69282795D01*
X100740226Y-69396063D01*
X100596063Y-69540226D01*
X100482795Y-69709744D01*
X100404774Y-69898102D01*
X100365000Y-70098061D01*
X96685000Y-70098061D01*
X96645226Y-69898102D01*
X96567205Y-69709744D01*
X96453937Y-69540226D01*
X96309774Y-69396063D01*
X96140256Y-69282795D01*
X95951898Y-69204774D01*
X95751939Y-69165000D01*
X95548061Y-69165000D01*
X95348102Y-69204774D01*
X95159744Y-69282795D01*
X94990226Y-69396063D01*
X94846063Y-69540226D01*
X94732795Y-69709744D01*
X94654774Y-69898102D01*
X94615000Y-70098061D01*
X85503788Y-70098061D01*
X85467205Y-70009744D01*
X85353937Y-69840226D01*
X85209774Y-69696063D01*
X85040256Y-69582795D01*
X84851898Y-69504774D01*
X84651939Y-69465000D01*
X84448061Y-69465000D01*
X84248102Y-69504774D01*
X84059744Y-69582795D01*
X83890226Y-69696063D01*
X83746063Y-69840226D01*
X83632795Y-70009744D01*
X83554774Y-70198102D01*
X83515000Y-70398061D01*
X83515000Y-70601939D01*
X83554774Y-70801898D01*
X83632795Y-70990256D01*
X83746063Y-71159774D01*
X83890226Y-71303937D01*
X84059744Y-71417205D01*
X84248102Y-71495226D01*
X84448061Y-71535000D01*
X84451289Y-71535000D01*
X84446063Y-71540226D01*
X84332795Y-71709744D01*
X84254774Y-71898102D01*
X84215000Y-72098061D01*
X84215000Y-72301939D01*
X84239094Y-72423070D01*
X84120922Y-72279078D01*
X83955710Y-72143491D01*
X83767219Y-72042741D01*
X83562696Y-71980700D01*
X83350000Y-71959751D01*
X83137303Y-71980700D01*
X82932780Y-72042741D01*
X82744290Y-72143491D01*
X82579078Y-72279078D01*
X82443491Y-72444290D01*
X82342741Y-72632781D01*
X82280700Y-72837304D01*
X82265000Y-72996707D01*
X82265000Y-73803294D01*
X82280700Y-73962697D01*
X82342742Y-74167220D01*
X82443492Y-74355710D01*
X82579079Y-74520922D01*
X82744291Y-74656509D01*
X82932781Y-74757259D01*
X83137304Y-74819300D01*
X83350000Y-74840249D01*
X83436145Y-74831764D01*
X83358617Y-75018933D01*
X83315000Y-75238212D01*
X83315000Y-75461788D01*
X83325030Y-75512210D01*
X83137303Y-75530700D01*
X82932780Y-75592741D01*
X82744290Y-75693491D01*
X82579078Y-75829078D01*
X82443491Y-75994290D01*
X82342741Y-76182781D01*
X82280700Y-76387304D01*
X82265000Y-76546707D01*
X82265000Y-77353294D01*
X82280700Y-77512697D01*
X82342742Y-77717220D01*
X82443492Y-77905710D01*
X82553702Y-78040000D01*
X68660000Y-78040000D01*
X68660000Y-76406890D01*
X69418524Y-76406890D01*
X69463175Y-76554099D01*
X69588359Y-76816920D01*
X69762412Y-77050269D01*
X69978645Y-77245178D01*
X70228748Y-77394157D01*
X70503109Y-77491481D01*
X70733000Y-77370814D01*
X70733000Y-76177000D01*
X69539845Y-76177000D01*
X69418524Y-76406890D01*
X68660000Y-76406890D01*
X68660000Y-68283740D01*
X69375000Y-68283740D01*
X69375000Y-68576260D01*
X69432068Y-68863158D01*
X69544010Y-69133411D01*
X69706525Y-69376632D01*
X69913368Y-69583475D01*
X70087760Y-69700000D01*
X69913368Y-69816525D01*
X69706525Y-70023368D01*
X69544010Y-70266589D01*
X69432068Y-70536842D01*
X69375000Y-70823740D01*
X69375000Y-71116260D01*
X69432068Y-71403158D01*
X69544010Y-71673411D01*
X69706525Y-71916632D01*
X69913368Y-72123475D01*
X70087760Y-72240000D01*
X69913368Y-72356525D01*
X69706525Y-72563368D01*
X69544010Y-72806589D01*
X69432068Y-73076842D01*
X69375000Y-73363740D01*
X69375000Y-73656260D01*
X69432068Y-73943158D01*
X69544010Y-74213411D01*
X69706525Y-74456632D01*
X69913368Y-74663475D01*
X70095534Y-74785195D01*
X69978645Y-74854822D01*
X69762412Y-75049731D01*
X69588359Y-75283080D01*
X69463175Y-75545901D01*
X69418524Y-75693110D01*
X69539845Y-75923000D01*
X70733000Y-75923000D01*
X70733000Y-75903000D01*
X70987000Y-75903000D01*
X70987000Y-75923000D01*
X71007000Y-75923000D01*
X71007000Y-76177000D01*
X70987000Y-76177000D01*
X70987000Y-77370814D01*
X71216891Y-77491481D01*
X71491252Y-77394157D01*
X71741355Y-77245178D01*
X71937502Y-77068374D01*
X71960498Y-77144180D01*
X72019463Y-77254494D01*
X72098815Y-77351185D01*
X72195506Y-77430537D01*
X72305820Y-77489502D01*
X72425518Y-77525812D01*
X72550000Y-77538072D01*
X74250000Y-77538072D01*
X74374482Y-77525812D01*
X74494180Y-77489502D01*
X74604494Y-77430537D01*
X74701185Y-77351185D01*
X74780537Y-77254494D01*
X74839502Y-77144180D01*
X74875812Y-77024482D01*
X74888072Y-76900000D01*
X74888072Y-75200000D01*
X74875812Y-75075518D01*
X74839502Y-74955820D01*
X74780537Y-74845506D01*
X74701185Y-74748815D01*
X74604494Y-74669463D01*
X74494180Y-74610498D01*
X74421620Y-74588487D01*
X74553475Y-74456632D01*
X74715990Y-74213411D01*
X74827932Y-73943158D01*
X74885000Y-73656260D01*
X74885000Y-73363740D01*
X74827932Y-73076842D01*
X74802045Y-73014344D01*
X78415000Y-73014344D01*
X78415000Y-73385656D01*
X78487439Y-73749834D01*
X78629534Y-74092882D01*
X78835825Y-74401618D01*
X79098382Y-74664175D01*
X79407118Y-74870466D01*
X79750166Y-75012561D01*
X80114344Y-75085000D01*
X80485656Y-75085000D01*
X80849834Y-75012561D01*
X81192882Y-74870466D01*
X81501618Y-74664175D01*
X81764175Y-74401618D01*
X81970466Y-74092882D01*
X82112561Y-73749834D01*
X82185000Y-73385656D01*
X82185000Y-73014344D01*
X82112561Y-72650166D01*
X81970466Y-72307118D01*
X81764175Y-71998382D01*
X81501618Y-71735825D01*
X81192882Y-71529534D01*
X80849834Y-71387439D01*
X80485656Y-71315000D01*
X80114344Y-71315000D01*
X79750166Y-71387439D01*
X79407118Y-71529534D01*
X79098382Y-71735825D01*
X78835825Y-71998382D01*
X78629534Y-72307118D01*
X78487439Y-72650166D01*
X78415000Y-73014344D01*
X74802045Y-73014344D01*
X74715990Y-72806589D01*
X74553475Y-72563368D01*
X74346632Y-72356525D01*
X74172240Y-72240000D01*
X74346632Y-72123475D01*
X74553475Y-71916632D01*
X74715990Y-71673411D01*
X74827932Y-71403158D01*
X74885000Y-71116260D01*
X74885000Y-70823740D01*
X74827932Y-70536842D01*
X74715990Y-70266589D01*
X74553475Y-70023368D01*
X74346632Y-69816525D01*
X74172240Y-69700000D01*
X74346632Y-69583475D01*
X74553475Y-69376632D01*
X74715990Y-69133411D01*
X74827932Y-68863158D01*
X74885000Y-68576260D01*
X74885000Y-68283740D01*
X74827932Y-67996842D01*
X74787016Y-67898061D01*
X76615000Y-67898061D01*
X76615000Y-68101939D01*
X76654774Y-68301898D01*
X76732795Y-68490256D01*
X76846063Y-68659774D01*
X76990226Y-68803937D01*
X77159744Y-68917205D01*
X77348102Y-68995226D01*
X77548061Y-69035000D01*
X77751939Y-69035000D01*
X77951898Y-68995226D01*
X78140256Y-68917205D01*
X78225000Y-68860581D01*
X78309744Y-68917205D01*
X78498102Y-68995226D01*
X78698061Y-69035000D01*
X78901939Y-69035000D01*
X79101898Y-68995226D01*
X79290256Y-68917205D01*
X79425000Y-68827172D01*
X79559744Y-68917205D01*
X79748102Y-68995226D01*
X79948061Y-69035000D01*
X80151939Y-69035000D01*
X80351898Y-68995226D01*
X80540256Y-68917205D01*
X80709774Y-68803937D01*
X80853937Y-68659774D01*
X80967205Y-68490256D01*
X81045226Y-68301898D01*
X81085000Y-68101939D01*
X81085000Y-67948061D01*
X82165000Y-67948061D01*
X82165000Y-68151939D01*
X82204774Y-68351898D01*
X82282795Y-68540256D01*
X82396063Y-68709774D01*
X82540226Y-68853937D01*
X82709744Y-68967205D01*
X82898102Y-69045226D01*
X83098061Y-69085000D01*
X83301939Y-69085000D01*
X83501898Y-69045226D01*
X83690256Y-68967205D01*
X83859774Y-68853937D01*
X84003937Y-68709774D01*
X84117205Y-68540256D01*
X84195226Y-68351898D01*
X84235000Y-68151939D01*
X84235000Y-67998061D01*
X87765000Y-67998061D01*
X87765000Y-68201939D01*
X87804774Y-68401898D01*
X87882795Y-68590256D01*
X87996063Y-68759774D01*
X88140226Y-68903937D01*
X88309744Y-69017205D01*
X88498102Y-69095226D01*
X88698061Y-69135000D01*
X88901939Y-69135000D01*
X89101898Y-69095226D01*
X89290256Y-69017205D01*
X89459774Y-68903937D01*
X89603937Y-68759774D01*
X89717205Y-68590256D01*
X89795226Y-68401898D01*
X89835000Y-68201939D01*
X89835000Y-67998061D01*
X89795226Y-67798102D01*
X89717205Y-67609744D01*
X89603937Y-67440226D01*
X89459774Y-67296063D01*
X89290256Y-67182795D01*
X89101898Y-67104774D01*
X88901939Y-67065000D01*
X88698061Y-67065000D01*
X88498102Y-67104774D01*
X88309744Y-67182795D01*
X88140226Y-67296063D01*
X87996063Y-67440226D01*
X87882795Y-67609744D01*
X87804774Y-67798102D01*
X87765000Y-67998061D01*
X84235000Y-67998061D01*
X84235000Y-67948061D01*
X84195226Y-67748102D01*
X84117205Y-67559744D01*
X84003937Y-67390226D01*
X83859774Y-67246063D01*
X83690256Y-67132795D01*
X83501898Y-67054774D01*
X83301939Y-67015000D01*
X83098061Y-67015000D01*
X82898102Y-67054774D01*
X82709744Y-67132795D01*
X82540226Y-67246063D01*
X82396063Y-67390226D01*
X82282795Y-67559744D01*
X82204774Y-67748102D01*
X82165000Y-67948061D01*
X81085000Y-67948061D01*
X81085000Y-67898061D01*
X81045226Y-67698102D01*
X80967205Y-67509744D01*
X80853937Y-67340226D01*
X80709774Y-67196063D01*
X80540256Y-67082795D01*
X80351898Y-67004774D01*
X80318150Y-66998061D01*
X107115000Y-66998061D01*
X107115000Y-67201939D01*
X107154774Y-67401898D01*
X107232795Y-67590256D01*
X107346063Y-67759774D01*
X107490226Y-67903937D01*
X107659744Y-68017205D01*
X107848102Y-68095226D01*
X108048061Y-68135000D01*
X108251939Y-68135000D01*
X108451898Y-68095226D01*
X108640256Y-68017205D01*
X108809774Y-67903937D01*
X108953937Y-67759774D01*
X109067205Y-67590256D01*
X109145226Y-67401898D01*
X109185000Y-67201939D01*
X109185000Y-66998061D01*
X109145226Y-66798102D01*
X109067205Y-66609744D01*
X108959173Y-66448061D01*
X112365000Y-66448061D01*
X112365000Y-66651939D01*
X112404774Y-66851898D01*
X112482795Y-67040256D01*
X112596063Y-67209774D01*
X112740226Y-67353937D01*
X112909744Y-67467205D01*
X113098102Y-67545226D01*
X113298061Y-67585000D01*
X113501939Y-67585000D01*
X113701898Y-67545226D01*
X113890256Y-67467205D01*
X114059774Y-67353937D01*
X114203937Y-67209774D01*
X114317205Y-67040256D01*
X114395226Y-66851898D01*
X114435000Y-66651939D01*
X114435000Y-66448061D01*
X114395226Y-66248102D01*
X114317205Y-66059744D01*
X114203937Y-65890226D01*
X114059774Y-65746063D01*
X113890256Y-65632795D01*
X113701898Y-65554774D01*
X113501939Y-65515000D01*
X113298061Y-65515000D01*
X113098102Y-65554774D01*
X112909744Y-65632795D01*
X112740226Y-65746063D01*
X112596063Y-65890226D01*
X112482795Y-66059744D01*
X112404774Y-66248102D01*
X112365000Y-66448061D01*
X108959173Y-66448061D01*
X108953937Y-66440226D01*
X108809774Y-66296063D01*
X108640256Y-66182795D01*
X108451898Y-66104774D01*
X108251939Y-66065000D01*
X108048061Y-66065000D01*
X107848102Y-66104774D01*
X107659744Y-66182795D01*
X107490226Y-66296063D01*
X107346063Y-66440226D01*
X107232795Y-66609744D01*
X107154774Y-66798102D01*
X107115000Y-66998061D01*
X80318150Y-66998061D01*
X80151939Y-66965000D01*
X79948061Y-66965000D01*
X79748102Y-67004774D01*
X79559744Y-67082795D01*
X79425000Y-67172828D01*
X79290256Y-67082795D01*
X79101898Y-67004774D01*
X78901939Y-66965000D01*
X78698061Y-66965000D01*
X78498102Y-67004774D01*
X78309744Y-67082795D01*
X78225000Y-67139419D01*
X78140256Y-67082795D01*
X77951898Y-67004774D01*
X77751939Y-66965000D01*
X77548061Y-66965000D01*
X77348102Y-67004774D01*
X77159744Y-67082795D01*
X76990226Y-67196063D01*
X76846063Y-67340226D01*
X76732795Y-67509744D01*
X76654774Y-67698102D01*
X76615000Y-67898061D01*
X74787016Y-67898061D01*
X74715990Y-67726589D01*
X74553475Y-67483368D01*
X74346632Y-67276525D01*
X74172240Y-67160000D01*
X74346632Y-67043475D01*
X74553475Y-66836632D01*
X74715990Y-66593411D01*
X74827932Y-66323158D01*
X74885000Y-66036260D01*
X74885000Y-65743740D01*
X74827932Y-65456842D01*
X74715990Y-65186589D01*
X74556611Y-64948061D01*
X75965000Y-64948061D01*
X75965000Y-65151939D01*
X76004774Y-65351898D01*
X76082795Y-65540256D01*
X76196063Y-65709774D01*
X76340226Y-65853937D01*
X76509744Y-65967205D01*
X76698102Y-66045226D01*
X76898061Y-66085000D01*
X77101939Y-66085000D01*
X77301898Y-66045226D01*
X77490256Y-65967205D01*
X77659774Y-65853937D01*
X77803937Y-65709774D01*
X77917205Y-65540256D01*
X77995226Y-65351898D01*
X78035000Y-65151939D01*
X78035000Y-64948061D01*
X77995226Y-64748102D01*
X77917205Y-64559744D01*
X77909399Y-64548061D01*
X81915000Y-64548061D01*
X81915000Y-64751939D01*
X81954774Y-64951898D01*
X82032795Y-65140256D01*
X82146063Y-65309774D01*
X82290226Y-65453937D01*
X82459744Y-65567205D01*
X82648102Y-65645226D01*
X82848061Y-65685000D01*
X83051939Y-65685000D01*
X83251898Y-65645226D01*
X83440256Y-65567205D01*
X83609774Y-65453937D01*
X83709163Y-65354548D01*
X83746063Y-65409774D01*
X83890226Y-65553937D01*
X84059744Y-65667205D01*
X84248102Y-65745226D01*
X84448061Y-65785000D01*
X84651939Y-65785000D01*
X84851898Y-65745226D01*
X85040256Y-65667205D01*
X85209774Y-65553937D01*
X85353937Y-65409774D01*
X85467205Y-65240256D01*
X85545226Y-65051898D01*
X85585000Y-64851939D01*
X85585000Y-64648061D01*
X85545226Y-64448102D01*
X85467205Y-64259744D01*
X85353937Y-64090226D01*
X85209774Y-63946063D01*
X85040256Y-63832795D01*
X84851898Y-63754774D01*
X84651939Y-63715000D01*
X84448061Y-63715000D01*
X84248102Y-63754774D01*
X84059744Y-63832795D01*
X83890226Y-63946063D01*
X83790837Y-64045452D01*
X83753937Y-63990226D01*
X83609774Y-63846063D01*
X83440256Y-63732795D01*
X83251898Y-63654774D01*
X83051939Y-63615000D01*
X82848061Y-63615000D01*
X82648102Y-63654774D01*
X82459744Y-63732795D01*
X82290226Y-63846063D01*
X82146063Y-63990226D01*
X82032795Y-64159744D01*
X81954774Y-64348102D01*
X81915000Y-64548061D01*
X77909399Y-64548061D01*
X77803937Y-64390226D01*
X77659774Y-64246063D01*
X77490256Y-64132795D01*
X77301898Y-64054774D01*
X77101939Y-64015000D01*
X76898061Y-64015000D01*
X76698102Y-64054774D01*
X76509744Y-64132795D01*
X76340226Y-64246063D01*
X76196063Y-64390226D01*
X76082795Y-64559744D01*
X76004774Y-64748102D01*
X75965000Y-64948061D01*
X74556611Y-64948061D01*
X74553475Y-64943368D01*
X74346632Y-64736525D01*
X74103411Y-64574010D01*
X73833158Y-64462068D01*
X73546260Y-64405000D01*
X73253740Y-64405000D01*
X72966842Y-64462068D01*
X72696589Y-64574010D01*
X72453368Y-64736525D01*
X72246525Y-64943368D01*
X72128900Y-65119406D01*
X71957588Y-64889731D01*
X71741355Y-64694822D01*
X71491252Y-64545843D01*
X71216891Y-64448519D01*
X70987000Y-64569186D01*
X70987000Y-65763000D01*
X71007000Y-65763000D01*
X71007000Y-66017000D01*
X70987000Y-66017000D01*
X70987000Y-66037000D01*
X70733000Y-66037000D01*
X70733000Y-66017000D01*
X69539845Y-66017000D01*
X69418524Y-66246890D01*
X69463175Y-66394099D01*
X69588359Y-66656920D01*
X69762412Y-66890269D01*
X69978645Y-67085178D01*
X70095534Y-67154805D01*
X69913368Y-67276525D01*
X69706525Y-67483368D01*
X69544010Y-67726589D01*
X69432068Y-67996842D01*
X69375000Y-68283740D01*
X68660000Y-68283740D01*
X68660000Y-65533110D01*
X69418524Y-65533110D01*
X69539845Y-65763000D01*
X70733000Y-65763000D01*
X70733000Y-64569186D01*
X70503109Y-64448519D01*
X70228748Y-64545843D01*
X69978645Y-64694822D01*
X69762412Y-64889731D01*
X69588359Y-65123080D01*
X69463175Y-65385901D01*
X69418524Y-65533110D01*
X68660000Y-65533110D01*
X68660000Y-64127699D01*
X68753202Y-64220901D01*
X68957926Y-64357693D01*
X69185402Y-64451917D01*
X69426890Y-64499952D01*
X69673110Y-64499952D01*
X69914598Y-64451917D01*
X70142074Y-64357693D01*
X70346798Y-64220901D01*
X70520901Y-64046798D01*
X70657693Y-63842074D01*
X70751917Y-63614598D01*
X70799952Y-63373110D01*
X70799952Y-63126890D01*
X70751917Y-62885402D01*
X70657693Y-62657926D01*
X70520901Y-62453202D01*
X70346798Y-62279099D01*
X70142074Y-62142307D01*
X69914598Y-62048083D01*
X69673110Y-62000048D01*
X69426890Y-62000048D01*
X69185402Y-62048083D01*
X68957926Y-62142307D01*
X68753202Y-62279099D01*
X68660000Y-62372301D01*
X68660000Y-60089721D01*
X70165000Y-60089721D01*
X70165000Y-60510279D01*
X70247047Y-60922756D01*
X70407988Y-61311302D01*
X70641637Y-61660983D01*
X70939017Y-61958363D01*
X71288698Y-62192012D01*
X71677244Y-62352953D01*
X72089721Y-62435000D01*
X72510279Y-62435000D01*
X72922756Y-62352953D01*
X73311302Y-62192012D01*
X73660983Y-61958363D01*
X73958363Y-61660983D01*
X74192012Y-61311302D01*
X74280339Y-61098061D01*
X76065000Y-61098061D01*
X76065000Y-61301939D01*
X76104774Y-61501898D01*
X76182795Y-61690256D01*
X76296063Y-61859774D01*
X76440226Y-62003937D01*
X76609744Y-62117205D01*
X76798102Y-62195226D01*
X76998061Y-62235000D01*
X77201939Y-62235000D01*
X77401898Y-62195226D01*
X77590256Y-62117205D01*
X77759774Y-62003937D01*
X77903937Y-61859774D01*
X78017205Y-61690256D01*
X78095226Y-61501898D01*
X78105934Y-61448061D01*
X93915000Y-61448061D01*
X93915000Y-61651939D01*
X93954774Y-61851898D01*
X94032795Y-62040256D01*
X94146063Y-62209774D01*
X94186289Y-62250000D01*
X94146063Y-62290226D01*
X94032795Y-62459744D01*
X93954774Y-62648102D01*
X93915000Y-62848061D01*
X93915000Y-63051939D01*
X93954774Y-63251898D01*
X94032795Y-63440256D01*
X94146063Y-63609774D01*
X94290226Y-63753937D01*
X94459744Y-63867205D01*
X94648102Y-63945226D01*
X94848061Y-63985000D01*
X95051939Y-63985000D01*
X95251898Y-63945226D01*
X95440256Y-63867205D01*
X95609774Y-63753937D01*
X95753937Y-63609774D01*
X95795172Y-63548061D01*
X99015000Y-63548061D01*
X99015000Y-63751939D01*
X99054774Y-63951898D01*
X99132795Y-64140256D01*
X99246063Y-64309774D01*
X99390226Y-64453937D01*
X99559744Y-64567205D01*
X99748102Y-64645226D01*
X99948061Y-64685000D01*
X100151939Y-64685000D01*
X100351898Y-64645226D01*
X100540256Y-64567205D01*
X100709774Y-64453937D01*
X100853937Y-64309774D01*
X100967205Y-64140256D01*
X101045226Y-63951898D01*
X101085000Y-63751939D01*
X101085000Y-63548061D01*
X101045226Y-63348102D01*
X100967205Y-63159744D01*
X100853937Y-62990226D01*
X100709774Y-62846063D01*
X100540256Y-62732795D01*
X100351898Y-62654774D01*
X100151939Y-62615000D01*
X99948061Y-62615000D01*
X99748102Y-62654774D01*
X99559744Y-62732795D01*
X99390226Y-62846063D01*
X99246063Y-62990226D01*
X99132795Y-63159744D01*
X99054774Y-63348102D01*
X99015000Y-63548061D01*
X95795172Y-63548061D01*
X95867205Y-63440256D01*
X95945226Y-63251898D01*
X95985000Y-63051939D01*
X95985000Y-62848061D01*
X95945226Y-62648102D01*
X95867205Y-62459744D01*
X95753937Y-62290226D01*
X95713711Y-62250000D01*
X95753937Y-62209774D01*
X95867205Y-62040256D01*
X95945226Y-61851898D01*
X95985000Y-61651939D01*
X95985000Y-61448061D01*
X95945226Y-61248102D01*
X95867205Y-61059744D01*
X95753937Y-60890226D01*
X95609774Y-60746063D01*
X95440256Y-60632795D01*
X95251898Y-60554774D01*
X95051939Y-60515000D01*
X94848061Y-60515000D01*
X94648102Y-60554774D01*
X94459744Y-60632795D01*
X94290226Y-60746063D01*
X94146063Y-60890226D01*
X94032795Y-61059744D01*
X93954774Y-61248102D01*
X93915000Y-61448061D01*
X78105934Y-61448061D01*
X78135000Y-61301939D01*
X78135000Y-61098061D01*
X78095226Y-60898102D01*
X78017205Y-60709744D01*
X77903937Y-60540226D01*
X77759774Y-60396063D01*
X77590256Y-60282795D01*
X77401898Y-60204774D01*
X77201939Y-60165000D01*
X76998061Y-60165000D01*
X76798102Y-60204774D01*
X76609744Y-60282795D01*
X76440226Y-60396063D01*
X76296063Y-60540226D01*
X76182795Y-60709744D01*
X76104774Y-60898102D01*
X76065000Y-61098061D01*
X74280339Y-61098061D01*
X74352953Y-60922756D01*
X74435000Y-60510279D01*
X74435000Y-60089721D01*
X74406822Y-59948061D01*
X81965000Y-59948061D01*
X81965000Y-60151939D01*
X82004774Y-60351898D01*
X82082795Y-60540256D01*
X82196063Y-60709774D01*
X82340226Y-60853937D01*
X82509744Y-60967205D01*
X82698102Y-61045226D01*
X82898061Y-61085000D01*
X83101939Y-61085000D01*
X83301898Y-61045226D01*
X83490256Y-60967205D01*
X83659774Y-60853937D01*
X83803937Y-60709774D01*
X83917205Y-60540256D01*
X83995226Y-60351898D01*
X84035000Y-60151939D01*
X84035000Y-59948061D01*
X83995226Y-59748102D01*
X83917205Y-59559744D01*
X83803937Y-59390226D01*
X83659774Y-59246063D01*
X83625643Y-59223258D01*
X83640256Y-59217205D01*
X83809774Y-59103937D01*
X83953937Y-58959774D01*
X84067205Y-58790256D01*
X84145226Y-58601898D01*
X84185000Y-58401939D01*
X84185000Y-58198061D01*
X84145226Y-57998102D01*
X84067205Y-57809744D01*
X83981794Y-57681917D01*
X84003937Y-57659774D01*
X84117205Y-57490256D01*
X84195226Y-57301898D01*
X84235000Y-57101939D01*
X84235000Y-57048061D01*
X93865000Y-57048061D01*
X93865000Y-57251939D01*
X93904774Y-57451898D01*
X93982795Y-57640256D01*
X94096063Y-57809774D01*
X94240226Y-57953937D01*
X94409744Y-58067205D01*
X94598102Y-58145226D01*
X94798061Y-58185000D01*
X95001939Y-58185000D01*
X95201898Y-58145226D01*
X95390256Y-58067205D01*
X95559774Y-57953937D01*
X95703937Y-57809774D01*
X95817205Y-57640256D01*
X95895226Y-57451898D01*
X95935000Y-57251939D01*
X95935000Y-57048061D01*
X95895226Y-56848102D01*
X95817205Y-56659744D01*
X95703937Y-56490226D01*
X95559774Y-56346063D01*
X95390256Y-56232795D01*
X95300317Y-56195541D01*
X95301898Y-56195226D01*
X95490256Y-56117205D01*
X95659774Y-56003937D01*
X95803937Y-55859774D01*
X95917205Y-55690256D01*
X95995226Y-55501898D01*
X96035000Y-55301939D01*
X96035000Y-55198061D01*
X110065000Y-55198061D01*
X110065000Y-55401939D01*
X110104774Y-55601898D01*
X110182795Y-55790256D01*
X110296063Y-55959774D01*
X110440226Y-56103937D01*
X110609744Y-56217205D01*
X110798102Y-56295226D01*
X110998061Y-56335000D01*
X111201939Y-56335000D01*
X111401898Y-56295226D01*
X111590256Y-56217205D01*
X111759774Y-56103937D01*
X111903937Y-55959774D01*
X112017205Y-55790256D01*
X112095226Y-55601898D01*
X112135000Y-55401939D01*
X112135000Y-55198061D01*
X112095226Y-54998102D01*
X112017205Y-54809744D01*
X111903937Y-54640226D01*
X111759774Y-54496063D01*
X111590256Y-54382795D01*
X111401898Y-54304774D01*
X111201939Y-54265000D01*
X110998061Y-54265000D01*
X110798102Y-54304774D01*
X110609744Y-54382795D01*
X110440226Y-54496063D01*
X110296063Y-54640226D01*
X110182795Y-54809744D01*
X110104774Y-54998102D01*
X110065000Y-55198061D01*
X96035000Y-55198061D01*
X96035000Y-55098061D01*
X95995226Y-54898102D01*
X95917205Y-54709744D01*
X95803937Y-54540226D01*
X95659774Y-54396063D01*
X95490256Y-54282795D01*
X95301898Y-54204774D01*
X95101939Y-54165000D01*
X94898061Y-54165000D01*
X94698102Y-54204774D01*
X94509744Y-54282795D01*
X94340226Y-54396063D01*
X94196063Y-54540226D01*
X94082795Y-54709744D01*
X94004774Y-54898102D01*
X93965000Y-55098061D01*
X93965000Y-55301939D01*
X94004774Y-55501898D01*
X94082795Y-55690256D01*
X94196063Y-55859774D01*
X94340226Y-56003937D01*
X94509744Y-56117205D01*
X94599683Y-56154459D01*
X94598102Y-56154774D01*
X94409744Y-56232795D01*
X94240226Y-56346063D01*
X94096063Y-56490226D01*
X93982795Y-56659744D01*
X93904774Y-56848102D01*
X93865000Y-57048061D01*
X84235000Y-57048061D01*
X84235000Y-56898061D01*
X84195226Y-56698102D01*
X84117205Y-56509744D01*
X84003937Y-56340226D01*
X83859774Y-56196063D01*
X83690256Y-56082795D01*
X83501898Y-56004774D01*
X83301939Y-55965000D01*
X83098061Y-55965000D01*
X82898102Y-56004774D01*
X82709744Y-56082795D01*
X82540226Y-56196063D01*
X82396063Y-56340226D01*
X82282795Y-56509744D01*
X82204774Y-56698102D01*
X82165000Y-56898061D01*
X82165000Y-57101939D01*
X82204774Y-57301898D01*
X82282795Y-57490256D01*
X82368206Y-57618083D01*
X82346063Y-57640226D01*
X82232795Y-57809744D01*
X82154774Y-57998102D01*
X82115000Y-58198061D01*
X82115000Y-58401939D01*
X82154774Y-58601898D01*
X82232795Y-58790256D01*
X82346063Y-58959774D01*
X82490226Y-59103937D01*
X82524357Y-59126742D01*
X82509744Y-59132795D01*
X82340226Y-59246063D01*
X82196063Y-59390226D01*
X82082795Y-59559744D01*
X82004774Y-59748102D01*
X81965000Y-59948061D01*
X74406822Y-59948061D01*
X74352953Y-59677244D01*
X74192012Y-59288698D01*
X73958363Y-58939017D01*
X73660983Y-58641637D01*
X73311302Y-58407988D01*
X72922756Y-58247047D01*
X72510279Y-58165000D01*
X72089721Y-58165000D01*
X71677244Y-58247047D01*
X71288698Y-58407988D01*
X70939017Y-58641637D01*
X70641637Y-58939017D01*
X70407988Y-59288698D01*
X70247047Y-59677244D01*
X70165000Y-60089721D01*
X68660000Y-60089721D01*
X68660000Y-58048061D01*
X78165000Y-58048061D01*
X78165000Y-58251939D01*
X78204774Y-58451898D01*
X78282795Y-58640256D01*
X78396063Y-58809774D01*
X78540226Y-58953937D01*
X78709744Y-59067205D01*
X78898102Y-59145226D01*
X79098061Y-59185000D01*
X79301939Y-59185000D01*
X79501898Y-59145226D01*
X79690256Y-59067205D01*
X79859774Y-58953937D01*
X80003937Y-58809774D01*
X80117205Y-58640256D01*
X80195226Y-58451898D01*
X80235000Y-58251939D01*
X80235000Y-58048061D01*
X80195226Y-57848102D01*
X80117205Y-57659744D01*
X80003937Y-57490226D01*
X79859774Y-57346063D01*
X79690256Y-57232795D01*
X79501898Y-57154774D01*
X79301939Y-57115000D01*
X79098061Y-57115000D01*
X78898102Y-57154774D01*
X78709744Y-57232795D01*
X78540226Y-57346063D01*
X78396063Y-57490226D01*
X78282795Y-57659744D01*
X78204774Y-57848102D01*
X78165000Y-58048061D01*
X68660000Y-58048061D01*
X68660000Y-54098061D01*
X77815000Y-54098061D01*
X77815000Y-54301939D01*
X77854774Y-54501898D01*
X77932795Y-54690256D01*
X78046063Y-54859774D01*
X78190226Y-55003937D01*
X78359744Y-55117205D01*
X78548102Y-55195226D01*
X78748061Y-55235000D01*
X78951939Y-55235000D01*
X79151898Y-55195226D01*
X79340256Y-55117205D01*
X79509774Y-55003937D01*
X79653937Y-54859774D01*
X79767205Y-54690256D01*
X79821962Y-54558061D01*
X81815000Y-54558061D01*
X81815000Y-54761939D01*
X81854774Y-54961898D01*
X81932795Y-55150256D01*
X82046063Y-55319774D01*
X82190226Y-55463937D01*
X82359744Y-55577205D01*
X82548102Y-55655226D01*
X82748061Y-55695000D01*
X82951939Y-55695000D01*
X83151898Y-55655226D01*
X83340256Y-55577205D01*
X83509774Y-55463937D01*
X83653937Y-55319774D01*
X83767205Y-55150256D01*
X83845226Y-54961898D01*
X83885000Y-54761939D01*
X83885000Y-54558061D01*
X83845226Y-54358102D01*
X83767205Y-54169744D01*
X83653937Y-54000226D01*
X83509774Y-53856063D01*
X83340256Y-53742795D01*
X83151898Y-53664774D01*
X82951939Y-53625000D01*
X82748061Y-53625000D01*
X82548102Y-53664774D01*
X82359744Y-53742795D01*
X82190226Y-53856063D01*
X82046063Y-54000226D01*
X81932795Y-54169744D01*
X81854774Y-54358102D01*
X81815000Y-54558061D01*
X79821962Y-54558061D01*
X79845226Y-54501898D01*
X79885000Y-54301939D01*
X79885000Y-54098061D01*
X79845226Y-53898102D01*
X79767205Y-53709744D01*
X79653937Y-53540226D01*
X79509774Y-53396063D01*
X79340256Y-53282795D01*
X79151898Y-53204774D01*
X78951939Y-53165000D01*
X78748061Y-53165000D01*
X78548102Y-53204774D01*
X78359744Y-53282795D01*
X78190226Y-53396063D01*
X78046063Y-53540226D01*
X77932795Y-53709744D01*
X77854774Y-53898102D01*
X77815000Y-54098061D01*
X68660000Y-54098061D01*
X68660000Y-51898061D01*
X73465000Y-51898061D01*
X73465000Y-52101939D01*
X73504774Y-52301898D01*
X73582795Y-52490256D01*
X73696063Y-52659774D01*
X73840226Y-52803937D01*
X74009744Y-52917205D01*
X74198102Y-52995226D01*
X74398061Y-53035000D01*
X74601939Y-53035000D01*
X74801898Y-52995226D01*
X74990256Y-52917205D01*
X75159774Y-52803937D01*
X75303937Y-52659774D01*
X75417205Y-52490256D01*
X75476104Y-52348061D01*
X85915000Y-52348061D01*
X85915000Y-52551939D01*
X85954774Y-52751898D01*
X86032795Y-52940256D01*
X86146063Y-53109774D01*
X86290226Y-53253937D01*
X86459744Y-53367205D01*
X86648102Y-53445226D01*
X86848061Y-53485000D01*
X87051939Y-53485000D01*
X87251898Y-53445226D01*
X87440256Y-53367205D01*
X87609774Y-53253937D01*
X87753937Y-53109774D01*
X87867205Y-52940256D01*
X87945226Y-52751898D01*
X87985000Y-52551939D01*
X87985000Y-52348061D01*
X87945226Y-52148102D01*
X87867205Y-51959744D01*
X87753937Y-51790226D01*
X87609774Y-51646063D01*
X87440256Y-51532795D01*
X87251898Y-51454774D01*
X87051939Y-51415000D01*
X86848061Y-51415000D01*
X86648102Y-51454774D01*
X86459744Y-51532795D01*
X86290226Y-51646063D01*
X86146063Y-51790226D01*
X86032795Y-51959744D01*
X85954774Y-52148102D01*
X85915000Y-52348061D01*
X75476104Y-52348061D01*
X75495226Y-52301898D01*
X75535000Y-52101939D01*
X75535000Y-51898061D01*
X75495226Y-51698102D01*
X75417205Y-51509744D01*
X75303937Y-51340226D01*
X75159774Y-51196063D01*
X74990256Y-51082795D01*
X74801898Y-51004774D01*
X74601939Y-50965000D01*
X74398061Y-50965000D01*
X74198102Y-51004774D01*
X74009744Y-51082795D01*
X73840226Y-51196063D01*
X73696063Y-51340226D01*
X73582795Y-51509744D01*
X73504774Y-51698102D01*
X73465000Y-51898061D01*
X68660000Y-51898061D01*
X68660000Y-50048061D01*
X70515000Y-50048061D01*
X70515000Y-50251939D01*
X70554774Y-50451898D01*
X70632795Y-50640256D01*
X70746063Y-50809774D01*
X70890226Y-50953937D01*
X71059744Y-51067205D01*
X71248102Y-51145226D01*
X71448061Y-51185000D01*
X71651939Y-51185000D01*
X71851898Y-51145226D01*
X72040256Y-51067205D01*
X72209774Y-50953937D01*
X72353937Y-50809774D01*
X72467205Y-50640256D01*
X72545226Y-50451898D01*
X72585000Y-50251939D01*
X72585000Y-50048061D01*
X72545226Y-49848102D01*
X72467205Y-49659744D01*
X72353937Y-49490226D01*
X72209774Y-49346063D01*
X72040256Y-49232795D01*
X71851898Y-49154774D01*
X71651939Y-49115000D01*
X71448061Y-49115000D01*
X71248102Y-49154774D01*
X71059744Y-49232795D01*
X70890226Y-49346063D01*
X70746063Y-49490226D01*
X70632795Y-49659744D01*
X70554774Y-49848102D01*
X70515000Y-50048061D01*
X68660000Y-50048061D01*
X68660000Y-45598061D01*
X69115000Y-45598061D01*
X69115000Y-45801939D01*
X69154774Y-46001898D01*
X69232795Y-46190256D01*
X69346063Y-46359774D01*
X69490226Y-46503937D01*
X69659744Y-46617205D01*
X69848102Y-46695226D01*
X70048061Y-46735000D01*
X70251939Y-46735000D01*
X70292711Y-46726890D01*
X71200048Y-46726890D01*
X71200048Y-46973110D01*
X71248083Y-47214598D01*
X71342307Y-47442074D01*
X71479099Y-47646798D01*
X71653202Y-47820901D01*
X71857926Y-47957693D01*
X72085402Y-48051917D01*
X72326890Y-48099952D01*
X72573110Y-48099952D01*
X72814598Y-48051917D01*
X73042074Y-47957693D01*
X73246798Y-47820901D01*
X73420901Y-47646798D01*
X73557693Y-47442074D01*
X73651917Y-47214598D01*
X73684657Y-47050000D01*
X107461928Y-47050000D01*
X107474188Y-47174482D01*
X107510498Y-47294180D01*
X107569463Y-47404494D01*
X107648815Y-47501185D01*
X107745506Y-47580537D01*
X107855820Y-47639502D01*
X107928380Y-47661513D01*
X107796525Y-47793368D01*
X107634010Y-48036589D01*
X107522068Y-48306842D01*
X107465000Y-48593740D01*
X107465000Y-48886260D01*
X107522068Y-49173158D01*
X107634010Y-49443411D01*
X107796525Y-49686632D01*
X108003368Y-49893475D01*
X108177760Y-50010000D01*
X108003368Y-50126525D01*
X107796525Y-50333368D01*
X107634010Y-50576589D01*
X107522068Y-50846842D01*
X107465000Y-51133740D01*
X107465000Y-51426260D01*
X107522068Y-51713158D01*
X107634010Y-51983411D01*
X107796525Y-52226632D01*
X108003368Y-52433475D01*
X108246589Y-52595990D01*
X108516842Y-52707932D01*
X108803740Y-52765000D01*
X109096260Y-52765000D01*
X109383158Y-52707932D01*
X109653411Y-52595990D01*
X109896632Y-52433475D01*
X110103475Y-52226632D01*
X110265990Y-51983411D01*
X110377932Y-51713158D01*
X110435000Y-51426260D01*
X110435000Y-51133740D01*
X110377932Y-50846842D01*
X110265990Y-50576589D01*
X110103475Y-50333368D01*
X109896632Y-50126525D01*
X109722240Y-50010000D01*
X109896632Y-49893475D01*
X110103475Y-49686632D01*
X110151776Y-49614344D01*
X112315000Y-49614344D01*
X112315000Y-49985656D01*
X112387439Y-50349834D01*
X112529534Y-50692882D01*
X112735825Y-51001618D01*
X112998382Y-51264175D01*
X113307118Y-51470466D01*
X113650166Y-51612561D01*
X114014344Y-51685000D01*
X114385656Y-51685000D01*
X114749834Y-51612561D01*
X115092882Y-51470466D01*
X115401618Y-51264175D01*
X115664175Y-51001618D01*
X115870466Y-50692882D01*
X116012561Y-50349834D01*
X116085000Y-49985656D01*
X116085000Y-49614344D01*
X116012561Y-49250166D01*
X115870466Y-48907118D01*
X115664175Y-48598382D01*
X115401618Y-48335825D01*
X115092882Y-48129534D01*
X114749834Y-47987439D01*
X114385656Y-47915000D01*
X114014344Y-47915000D01*
X113650166Y-47987439D01*
X113307118Y-48129534D01*
X112998382Y-48335825D01*
X112735825Y-48598382D01*
X112529534Y-48907118D01*
X112387439Y-49250166D01*
X112315000Y-49614344D01*
X110151776Y-49614344D01*
X110265990Y-49443411D01*
X110377932Y-49173158D01*
X110435000Y-48886260D01*
X110435000Y-48593740D01*
X110377932Y-48306842D01*
X110265990Y-48036589D01*
X110103475Y-47793368D01*
X109971620Y-47661513D01*
X110044180Y-47639502D01*
X110154494Y-47580537D01*
X110251185Y-47501185D01*
X110330537Y-47404494D01*
X110389502Y-47294180D01*
X110425812Y-47174482D01*
X110438072Y-47050000D01*
X110435000Y-46485750D01*
X110276250Y-46327000D01*
X109077000Y-46327000D01*
X109077000Y-46347000D01*
X108823000Y-46347000D01*
X108823000Y-46327000D01*
X107623750Y-46327000D01*
X107465000Y-46485750D01*
X107461928Y-47050000D01*
X73684657Y-47050000D01*
X73699952Y-46973110D01*
X73699952Y-46726890D01*
X73651917Y-46485402D01*
X73557693Y-46257926D01*
X73420901Y-46053202D01*
X73246798Y-45879099D01*
X73042074Y-45742307D01*
X72814598Y-45648083D01*
X72573110Y-45600048D01*
X72326890Y-45600048D01*
X72085402Y-45648083D01*
X71857926Y-45742307D01*
X71653202Y-45879099D01*
X71479099Y-46053202D01*
X71342307Y-46257926D01*
X71248083Y-46485402D01*
X71200048Y-46726890D01*
X70292711Y-46726890D01*
X70451898Y-46695226D01*
X70640256Y-46617205D01*
X70809774Y-46503937D01*
X70953937Y-46359774D01*
X71067205Y-46190256D01*
X71145226Y-46001898D01*
X71185000Y-45801939D01*
X71185000Y-45598061D01*
X71145226Y-45398102D01*
X71125302Y-45350000D01*
X107461928Y-45350000D01*
X107465000Y-45914250D01*
X107623750Y-46073000D01*
X108823000Y-46073000D01*
X108823000Y-44873750D01*
X109077000Y-44873750D01*
X109077000Y-46073000D01*
X110276250Y-46073000D01*
X110435000Y-45914250D01*
X110438072Y-45350000D01*
X110425812Y-45225518D01*
X110389502Y-45105820D01*
X110330537Y-44995506D01*
X110251185Y-44898815D01*
X110154494Y-44819463D01*
X110044180Y-44760498D01*
X109924482Y-44724188D01*
X109800000Y-44711928D01*
X109235750Y-44715000D01*
X109077000Y-44873750D01*
X108823000Y-44873750D01*
X108664250Y-44715000D01*
X108100000Y-44711928D01*
X107975518Y-44724188D01*
X107855820Y-44760498D01*
X107745506Y-44819463D01*
X107648815Y-44898815D01*
X107569463Y-44995506D01*
X107510498Y-45105820D01*
X107474188Y-45225518D01*
X107461928Y-45350000D01*
X71125302Y-45350000D01*
X71067205Y-45209744D01*
X70953937Y-45040226D01*
X70809774Y-44896063D01*
X70640256Y-44782795D01*
X70451898Y-44704774D01*
X70376221Y-44689721D01*
X112065000Y-44689721D01*
X112065000Y-45110279D01*
X112147047Y-45522756D01*
X112307988Y-45911302D01*
X112541637Y-46260983D01*
X112839017Y-46558363D01*
X113188698Y-46792012D01*
X113577244Y-46952953D01*
X113989721Y-47035000D01*
X114410279Y-47035000D01*
X114822756Y-46952953D01*
X115211302Y-46792012D01*
X115560983Y-46558363D01*
X115858363Y-46260983D01*
X116092012Y-45911302D01*
X116252953Y-45522756D01*
X116335000Y-45110279D01*
X116335000Y-44689721D01*
X116252953Y-44277244D01*
X116092012Y-43888698D01*
X115858363Y-43539017D01*
X115560983Y-43241637D01*
X115211302Y-43007988D01*
X114822756Y-42847047D01*
X114410279Y-42765000D01*
X113989721Y-42765000D01*
X113577244Y-42847047D01*
X113188698Y-43007988D01*
X112839017Y-43241637D01*
X112541637Y-43539017D01*
X112307988Y-43888698D01*
X112147047Y-44277244D01*
X112065000Y-44689721D01*
X70376221Y-44689721D01*
X70251939Y-44665000D01*
X70048061Y-44665000D01*
X69848102Y-44704774D01*
X69659744Y-44782795D01*
X69490226Y-44896063D01*
X69346063Y-45040226D01*
X69232795Y-45209744D01*
X69154774Y-45398102D01*
X69115000Y-45598061D01*
X68660000Y-45598061D01*
X68660000Y-42848061D01*
X85065000Y-42848061D01*
X85065000Y-43051939D01*
X85104774Y-43251898D01*
X85182795Y-43440256D01*
X85296063Y-43609774D01*
X85440226Y-43753937D01*
X85609744Y-43867205D01*
X85798102Y-43945226D01*
X85998061Y-43985000D01*
X86201939Y-43985000D01*
X86401898Y-43945226D01*
X86590256Y-43867205D01*
X86759774Y-43753937D01*
X86903937Y-43609774D01*
X87017205Y-43440256D01*
X87095226Y-43251898D01*
X87135000Y-43051939D01*
X87135000Y-42848061D01*
X87095226Y-42648102D01*
X87017205Y-42459744D01*
X86903937Y-42290226D01*
X86759774Y-42146063D01*
X86590256Y-42032795D01*
X86401898Y-41954774D01*
X86201939Y-41915000D01*
X85998061Y-41915000D01*
X85798102Y-41954774D01*
X85609744Y-42032795D01*
X85440226Y-42146063D01*
X85296063Y-42290226D01*
X85182795Y-42459744D01*
X85104774Y-42648102D01*
X85065000Y-42848061D01*
X68660000Y-42848061D01*
X68660000Y-41660000D01*
X117540000Y-41660000D01*
X117540000Y-51831447D01*
%TA.AperFunction,Conductor*%
D15*
G36*
X117540000Y-51831447D02*
G01*
X117420901Y-51653202D01*
X117246798Y-51479099D01*
X117042074Y-51342307D01*
X116814598Y-51248083D01*
X116573110Y-51200048D01*
X116326890Y-51200048D01*
X116085402Y-51248083D01*
X115857926Y-51342307D01*
X115653202Y-51479099D01*
X115479099Y-51653202D01*
X115342307Y-51857926D01*
X115248083Y-52085402D01*
X115200048Y-52326890D01*
X115200048Y-52573110D01*
X115248083Y-52814598D01*
X115342307Y-53042074D01*
X115479099Y-53246798D01*
X115653202Y-53420901D01*
X115857926Y-53557693D01*
X116085402Y-53651917D01*
X116326890Y-53699952D01*
X116573110Y-53699952D01*
X116814598Y-53651917D01*
X117042074Y-53557693D01*
X117246798Y-53420901D01*
X117420901Y-53246798D01*
X117540000Y-53068553D01*
X117540001Y-62949442D01*
X117440256Y-62882795D01*
X117251898Y-62804774D01*
X117051939Y-62765000D01*
X116848061Y-62765000D01*
X116648102Y-62804774D01*
X116459744Y-62882795D01*
X116290226Y-62996063D01*
X116275000Y-63011289D01*
X116259774Y-62996063D01*
X116090256Y-62882795D01*
X115901898Y-62804774D01*
X115701939Y-62765000D01*
X115498061Y-62765000D01*
X115298102Y-62804774D01*
X115109744Y-62882795D01*
X114940226Y-62996063D01*
X114796063Y-63140226D01*
X114682795Y-63309744D01*
X114604774Y-63498102D01*
X114565000Y-63698061D01*
X114565000Y-63901939D01*
X114604774Y-64101898D01*
X114682795Y-64290256D01*
X114796063Y-64459774D01*
X114940226Y-64603937D01*
X115109744Y-64717205D01*
X115298102Y-64795226D01*
X115498061Y-64835000D01*
X115701939Y-64835000D01*
X115901898Y-64795226D01*
X116090256Y-64717205D01*
X116259774Y-64603937D01*
X116275000Y-64588711D01*
X116290226Y-64603937D01*
X116459744Y-64717205D01*
X116648102Y-64795226D01*
X116848061Y-64835000D01*
X117051939Y-64835000D01*
X117251898Y-64795226D01*
X117440256Y-64717205D01*
X117540001Y-64650558D01*
X117540001Y-68716855D01*
X115149952Y-70989745D01*
X115149952Y-70976890D01*
X115101917Y-70735402D01*
X115007693Y-70507926D01*
X114870901Y-70303202D01*
X114696798Y-70129099D01*
X114492074Y-69992307D01*
X114264598Y-69898083D01*
X114023110Y-69850048D01*
X113776890Y-69850048D01*
X113535402Y-69898083D01*
X113307926Y-69992307D01*
X113103202Y-70129099D01*
X112929099Y-70303202D01*
X112792307Y-70507926D01*
X112698083Y-70735402D01*
X112650048Y-70976890D01*
X112650048Y-71223110D01*
X112698083Y-71464598D01*
X112792307Y-71692074D01*
X112929099Y-71896798D01*
X113103202Y-72070901D01*
X113307926Y-72207693D01*
X113535402Y-72301917D01*
X113729536Y-72340533D01*
X107736282Y-78040000D01*
X107653889Y-78040000D01*
X107701185Y-78001185D01*
X107780537Y-77904494D01*
X107839502Y-77794180D01*
X107875812Y-77674482D01*
X107888072Y-77550000D01*
X107885000Y-76985750D01*
X107726250Y-76827000D01*
X106527000Y-76827000D01*
X106527000Y-76847000D01*
X106273000Y-76847000D01*
X106273000Y-76827000D01*
X105073750Y-76827000D01*
X104915000Y-76985750D01*
X104911928Y-77550000D01*
X104924188Y-77674482D01*
X104960498Y-77794180D01*
X105019463Y-77904494D01*
X105098815Y-78001185D01*
X105146111Y-78040000D01*
X92346299Y-78040000D01*
X92456509Y-77905710D01*
X92557259Y-77717220D01*
X92619300Y-77512696D01*
X92635000Y-77353293D01*
X92635000Y-76546706D01*
X92619300Y-76387303D01*
X92557259Y-76182780D01*
X92456509Y-75994290D01*
X92320922Y-75829078D01*
X92155710Y-75693491D01*
X91967219Y-75592741D01*
X91762696Y-75530700D01*
X91574970Y-75512210D01*
X91585000Y-75461788D01*
X91585000Y-75296461D01*
X93615000Y-75296461D01*
X93615000Y-75500339D01*
X93654774Y-75700298D01*
X93732795Y-75888656D01*
X93740375Y-75900000D01*
X93732795Y-75911344D01*
X93654774Y-76099702D01*
X93615000Y-76299661D01*
X93615000Y-76503539D01*
X93654774Y-76703498D01*
X93732795Y-76891856D01*
X93846063Y-77061374D01*
X93990226Y-77205537D01*
X94159744Y-77318805D01*
X94348102Y-77396826D01*
X94548061Y-77436600D01*
X94751939Y-77436600D01*
X94951898Y-77396826D01*
X95140256Y-77318805D01*
X95309774Y-77205537D01*
X95453937Y-77061374D01*
X95567205Y-76891856D01*
X95645226Y-76703498D01*
X95685000Y-76503539D01*
X95685000Y-76299661D01*
X95645226Y-76099702D01*
X95567205Y-75911344D01*
X95559625Y-75900000D01*
X95567205Y-75888656D01*
X95583216Y-75850000D01*
X104911928Y-75850000D01*
X104915000Y-76414250D01*
X105073750Y-76573000D01*
X106273000Y-76573000D01*
X106273000Y-76553000D01*
X106527000Y-76553000D01*
X106527000Y-76573000D01*
X107726250Y-76573000D01*
X107885000Y-76414250D01*
X107888072Y-75850000D01*
X107875812Y-75725518D01*
X107839502Y-75605820D01*
X107780537Y-75495506D01*
X107701185Y-75398815D01*
X107604494Y-75319463D01*
X107494180Y-75260498D01*
X107421620Y-75238487D01*
X107553475Y-75106632D01*
X107715990Y-74863411D01*
X107827932Y-74593158D01*
X107885000Y-74306260D01*
X107885000Y-74013740D01*
X107827932Y-73726842D01*
X107715990Y-73456589D01*
X107553475Y-73213368D01*
X107346632Y-73006525D01*
X107172240Y-72890000D01*
X107346632Y-72773475D01*
X107553475Y-72566632D01*
X107715990Y-72323411D01*
X107827932Y-72053158D01*
X107885000Y-71766260D01*
X107885000Y-71473740D01*
X107827932Y-71186842D01*
X107715990Y-70916589D01*
X107553475Y-70673368D01*
X107346632Y-70466525D01*
X107172240Y-70350000D01*
X107346632Y-70233475D01*
X107553475Y-70026632D01*
X107715990Y-69783411D01*
X107827932Y-69513158D01*
X107885000Y-69226260D01*
X107885000Y-68933740D01*
X107827932Y-68646842D01*
X107715990Y-68376589D01*
X107553475Y-68133368D01*
X107346632Y-67926525D01*
X107103411Y-67764010D01*
X106833158Y-67652068D01*
X106546260Y-67595000D01*
X106253740Y-67595000D01*
X105966842Y-67652068D01*
X105696589Y-67764010D01*
X105453368Y-67926525D01*
X105246525Y-68133368D01*
X105084010Y-68376589D01*
X104972068Y-68646842D01*
X104915000Y-68933740D01*
X104915000Y-69226260D01*
X104972068Y-69513158D01*
X105084010Y-69783411D01*
X105246525Y-70026632D01*
X105453368Y-70233475D01*
X105627760Y-70350000D01*
X105453368Y-70466525D01*
X105246525Y-70673368D01*
X105084010Y-70916589D01*
X104972068Y-71186842D01*
X104915000Y-71473740D01*
X104915000Y-71766260D01*
X104972068Y-72053158D01*
X105084010Y-72323411D01*
X105246525Y-72566632D01*
X105453368Y-72773475D01*
X105627760Y-72890000D01*
X105453368Y-73006525D01*
X105246525Y-73213368D01*
X105084010Y-73456589D01*
X104972068Y-73726842D01*
X104915000Y-74013740D01*
X104915000Y-74306260D01*
X104972068Y-74593158D01*
X105084010Y-74863411D01*
X105246525Y-75106632D01*
X105378380Y-75238487D01*
X105305820Y-75260498D01*
X105195506Y-75319463D01*
X105098815Y-75398815D01*
X105019463Y-75495506D01*
X104960498Y-75605820D01*
X104924188Y-75725518D01*
X104911928Y-75850000D01*
X95583216Y-75850000D01*
X95645226Y-75700298D01*
X95685000Y-75500339D01*
X95685000Y-75296461D01*
X95645226Y-75096502D01*
X95567205Y-74908144D01*
X95453937Y-74738626D01*
X95309774Y-74594463D01*
X95140256Y-74481195D01*
X94951898Y-74403174D01*
X94751939Y-74363400D01*
X94548061Y-74363400D01*
X94348102Y-74403174D01*
X94159744Y-74481195D01*
X93990226Y-74594463D01*
X93846063Y-74738626D01*
X93732795Y-74908144D01*
X93654774Y-75096502D01*
X93615000Y-75296461D01*
X91585000Y-75296461D01*
X91585000Y-75238212D01*
X91541383Y-75018933D01*
X91463855Y-74831764D01*
X91550000Y-74840249D01*
X91762697Y-74819300D01*
X91967220Y-74757259D01*
X92155710Y-74656509D01*
X92320922Y-74520922D01*
X92456509Y-74355710D01*
X92557259Y-74167220D01*
X92619300Y-73962696D01*
X92635000Y-73803293D01*
X92635000Y-73048061D01*
X93665000Y-73048061D01*
X93665000Y-73251939D01*
X93704774Y-73451898D01*
X93782795Y-73640256D01*
X93896063Y-73809774D01*
X94040226Y-73953937D01*
X94209744Y-74067205D01*
X94398102Y-74145226D01*
X94598061Y-74185000D01*
X94801939Y-74185000D01*
X95001898Y-74145226D01*
X95190256Y-74067205D01*
X95359774Y-73953937D01*
X95503937Y-73809774D01*
X95617205Y-73640256D01*
X95640093Y-73585000D01*
X95751939Y-73585000D01*
X95951898Y-73545226D01*
X96140256Y-73467205D01*
X96309774Y-73353937D01*
X96453937Y-73209774D01*
X96567205Y-73040256D01*
X96645226Y-72851898D01*
X96685000Y-72651939D01*
X96685000Y-72448061D01*
X96645226Y-72248102D01*
X96567205Y-72059744D01*
X96453937Y-71890226D01*
X96309774Y-71746063D01*
X96140256Y-71632795D01*
X95951898Y-71554774D01*
X95751939Y-71515000D01*
X95548061Y-71515000D01*
X95348102Y-71554774D01*
X95159744Y-71632795D01*
X94990226Y-71746063D01*
X94846063Y-71890226D01*
X94732795Y-72059744D01*
X94709907Y-72115000D01*
X94598061Y-72115000D01*
X94398102Y-72154774D01*
X94209744Y-72232795D01*
X94040226Y-72346063D01*
X93896063Y-72490226D01*
X93782795Y-72659744D01*
X93704774Y-72848102D01*
X93665000Y-73048061D01*
X92635000Y-73048061D01*
X92635000Y-72996706D01*
X92619300Y-72837303D01*
X92557259Y-72632780D01*
X92456509Y-72444290D01*
X92320922Y-72279078D01*
X92155710Y-72143491D01*
X91967219Y-72042741D01*
X91762696Y-71980700D01*
X91550000Y-71959751D01*
X91337303Y-71980700D01*
X91132780Y-72042741D01*
X90944290Y-72143491D01*
X90779078Y-72279078D01*
X90650031Y-72436320D01*
X90509774Y-72296063D01*
X90340256Y-72182795D01*
X90151898Y-72104774D01*
X89951939Y-72065000D01*
X89748061Y-72065000D01*
X89548102Y-72104774D01*
X89359744Y-72182795D01*
X89190226Y-72296063D01*
X89046063Y-72440226D01*
X88932795Y-72609744D01*
X88854774Y-72798102D01*
X88815000Y-72998061D01*
X88815000Y-73201939D01*
X88854774Y-73401898D01*
X88905765Y-73525000D01*
X88854774Y-73648102D01*
X88824661Y-73799491D01*
X88798102Y-73804774D01*
X88675000Y-73855765D01*
X88551898Y-73804774D01*
X88351939Y-73765000D01*
X88148061Y-73765000D01*
X87948102Y-73804774D01*
X87759744Y-73882795D01*
X87590226Y-73996063D01*
X87446063Y-74140226D01*
X87332795Y-74309744D01*
X87254774Y-74498102D01*
X87215000Y-74698061D01*
X87215000Y-74901939D01*
X87254774Y-75101898D01*
X87332795Y-75290256D01*
X87446063Y-75459774D01*
X87590226Y-75603937D01*
X87759744Y-75717205D01*
X87948102Y-75795226D01*
X88148061Y-75835000D01*
X88351939Y-75835000D01*
X88551898Y-75795226D01*
X88675000Y-75744235D01*
X88798102Y-75795226D01*
X88998061Y-75835000D01*
X89201939Y-75835000D01*
X89401898Y-75795226D01*
X89405317Y-75793810D01*
X89444176Y-75887624D01*
X89568388Y-76073520D01*
X89726480Y-76231612D01*
X89912376Y-76355824D01*
X90118933Y-76441383D01*
X90338212Y-76485000D01*
X90471078Y-76485000D01*
X90465000Y-76546707D01*
X90465000Y-77353294D01*
X90480700Y-77512697D01*
X90542742Y-77717220D01*
X90643492Y-77905710D01*
X90753702Y-78040000D01*
X84146299Y-78040000D01*
X84256509Y-77905710D01*
X84357259Y-77717220D01*
X84419300Y-77512696D01*
X84435000Y-77353293D01*
X84435000Y-76546706D01*
X84428922Y-76485000D01*
X84561788Y-76485000D01*
X84781067Y-76441383D01*
X84987624Y-76355824D01*
X85173520Y-76231612D01*
X85331612Y-76073520D01*
X85455824Y-75887624D01*
X85541383Y-75681067D01*
X85548924Y-75643157D01*
X85659744Y-75717205D01*
X85848102Y-75795226D01*
X86048061Y-75835000D01*
X86251939Y-75835000D01*
X86451898Y-75795226D01*
X86640256Y-75717205D01*
X86809774Y-75603937D01*
X86953937Y-75459774D01*
X87067205Y-75290256D01*
X87145226Y-75101898D01*
X87185000Y-74901939D01*
X87185000Y-74698061D01*
X87145226Y-74498102D01*
X87067205Y-74309744D01*
X86953937Y-74140226D01*
X86809774Y-73996063D01*
X86640256Y-73882795D01*
X86451898Y-73804774D01*
X86251939Y-73765000D01*
X86048061Y-73765000D01*
X85848102Y-73804774D01*
X85659744Y-73882795D01*
X85490226Y-73996063D01*
X85346063Y-74140226D01*
X85232795Y-74309744D01*
X85168478Y-74465019D01*
X84987624Y-74344176D01*
X84781067Y-74258617D01*
X84561788Y-74215000D01*
X84338212Y-74215000D01*
X84330948Y-74216445D01*
X84357259Y-74167220D01*
X84419300Y-73962696D01*
X84435000Y-73803293D01*
X84435000Y-72996706D01*
X84419300Y-72837303D01*
X84409532Y-72805101D01*
X84446063Y-72859774D01*
X84590226Y-73003937D01*
X84759744Y-73117205D01*
X84948102Y-73195226D01*
X85148061Y-73235000D01*
X85351939Y-73235000D01*
X85551898Y-73195226D01*
X85700000Y-73133880D01*
X85848102Y-73195226D01*
X86048061Y-73235000D01*
X86251939Y-73235000D01*
X86451898Y-73195226D01*
X86640256Y-73117205D01*
X86809774Y-73003937D01*
X86953937Y-72859774D01*
X87067205Y-72690256D01*
X87145226Y-72501898D01*
X87185000Y-72301939D01*
X87185000Y-72098061D01*
X87145226Y-71898102D01*
X87067205Y-71709744D01*
X86953937Y-71540226D01*
X86809774Y-71396063D01*
X86640256Y-71282795D01*
X86451898Y-71204774D01*
X86251939Y-71165000D01*
X86048061Y-71165000D01*
X85848102Y-71204774D01*
X85700000Y-71266120D01*
X85551898Y-71204774D01*
X85351939Y-71165000D01*
X85348711Y-71165000D01*
X85353937Y-71159774D01*
X85467205Y-70990256D01*
X85545226Y-70801898D01*
X85585000Y-70601939D01*
X85585000Y-70398061D01*
X85545226Y-70198102D01*
X85503788Y-70098061D01*
X94615000Y-70098061D01*
X94615000Y-70301939D01*
X94654774Y-70501898D01*
X94732795Y-70690256D01*
X94846063Y-70859774D01*
X94990226Y-71003937D01*
X95159744Y-71117205D01*
X95348102Y-71195226D01*
X95548061Y-71235000D01*
X95751939Y-71235000D01*
X95951898Y-71195226D01*
X96140256Y-71117205D01*
X96309774Y-71003937D01*
X96453937Y-70859774D01*
X96567205Y-70690256D01*
X96645226Y-70501898D01*
X96685000Y-70301939D01*
X96685000Y-70098061D01*
X100365000Y-70098061D01*
X100365000Y-70301939D01*
X100404774Y-70501898D01*
X100482795Y-70690256D01*
X100596063Y-70859774D01*
X100740226Y-71003937D01*
X100909744Y-71117205D01*
X101098102Y-71195226D01*
X101298061Y-71235000D01*
X101501939Y-71235000D01*
X101701898Y-71195226D01*
X101890256Y-71117205D01*
X102059774Y-71003937D01*
X102203937Y-70859774D01*
X102317205Y-70690256D01*
X102395226Y-70501898D01*
X102435000Y-70301939D01*
X102435000Y-70098061D01*
X102395226Y-69898102D01*
X102317205Y-69709744D01*
X102203937Y-69540226D01*
X102059774Y-69396063D01*
X101890256Y-69282795D01*
X101701898Y-69204774D01*
X101501939Y-69165000D01*
X101298061Y-69165000D01*
X101098102Y-69204774D01*
X100909744Y-69282795D01*
X100740226Y-69396063D01*
X100596063Y-69540226D01*
X100482795Y-69709744D01*
X100404774Y-69898102D01*
X100365000Y-70098061D01*
X96685000Y-70098061D01*
X96645226Y-69898102D01*
X96567205Y-69709744D01*
X96453937Y-69540226D01*
X96309774Y-69396063D01*
X96140256Y-69282795D01*
X95951898Y-69204774D01*
X95751939Y-69165000D01*
X95548061Y-69165000D01*
X95348102Y-69204774D01*
X95159744Y-69282795D01*
X94990226Y-69396063D01*
X94846063Y-69540226D01*
X94732795Y-69709744D01*
X94654774Y-69898102D01*
X94615000Y-70098061D01*
X85503788Y-70098061D01*
X85467205Y-70009744D01*
X85353937Y-69840226D01*
X85209774Y-69696063D01*
X85040256Y-69582795D01*
X84851898Y-69504774D01*
X84651939Y-69465000D01*
X84448061Y-69465000D01*
X84248102Y-69504774D01*
X84059744Y-69582795D01*
X83890226Y-69696063D01*
X83746063Y-69840226D01*
X83632795Y-70009744D01*
X83554774Y-70198102D01*
X83515000Y-70398061D01*
X83515000Y-70601939D01*
X83554774Y-70801898D01*
X83632795Y-70990256D01*
X83746063Y-71159774D01*
X83890226Y-71303937D01*
X84059744Y-71417205D01*
X84248102Y-71495226D01*
X84448061Y-71535000D01*
X84451289Y-71535000D01*
X84446063Y-71540226D01*
X84332795Y-71709744D01*
X84254774Y-71898102D01*
X84215000Y-72098061D01*
X84215000Y-72301939D01*
X84239094Y-72423070D01*
X84120922Y-72279078D01*
X83955710Y-72143491D01*
X83767219Y-72042741D01*
X83562696Y-71980700D01*
X83350000Y-71959751D01*
X83137303Y-71980700D01*
X82932780Y-72042741D01*
X82744290Y-72143491D01*
X82579078Y-72279078D01*
X82443491Y-72444290D01*
X82342741Y-72632781D01*
X82280700Y-72837304D01*
X82265000Y-72996707D01*
X82265000Y-73803294D01*
X82280700Y-73962697D01*
X82342742Y-74167220D01*
X82443492Y-74355710D01*
X82579079Y-74520922D01*
X82744291Y-74656509D01*
X82932781Y-74757259D01*
X83137304Y-74819300D01*
X83350000Y-74840249D01*
X83436145Y-74831764D01*
X83358617Y-75018933D01*
X83315000Y-75238212D01*
X83315000Y-75461788D01*
X83325030Y-75512210D01*
X83137303Y-75530700D01*
X82932780Y-75592741D01*
X82744290Y-75693491D01*
X82579078Y-75829078D01*
X82443491Y-75994290D01*
X82342741Y-76182781D01*
X82280700Y-76387304D01*
X82265000Y-76546707D01*
X82265000Y-77353294D01*
X82280700Y-77512697D01*
X82342742Y-77717220D01*
X82443492Y-77905710D01*
X82553702Y-78040000D01*
X68660000Y-78040000D01*
X68660000Y-76406890D01*
X69418524Y-76406890D01*
X69463175Y-76554099D01*
X69588359Y-76816920D01*
X69762412Y-77050269D01*
X69978645Y-77245178D01*
X70228748Y-77394157D01*
X70503109Y-77491481D01*
X70733000Y-77370814D01*
X70733000Y-76177000D01*
X69539845Y-76177000D01*
X69418524Y-76406890D01*
X68660000Y-76406890D01*
X68660000Y-68283740D01*
X69375000Y-68283740D01*
X69375000Y-68576260D01*
X69432068Y-68863158D01*
X69544010Y-69133411D01*
X69706525Y-69376632D01*
X69913368Y-69583475D01*
X70087760Y-69700000D01*
X69913368Y-69816525D01*
X69706525Y-70023368D01*
X69544010Y-70266589D01*
X69432068Y-70536842D01*
X69375000Y-70823740D01*
X69375000Y-71116260D01*
X69432068Y-71403158D01*
X69544010Y-71673411D01*
X69706525Y-71916632D01*
X69913368Y-72123475D01*
X70087760Y-72240000D01*
X69913368Y-72356525D01*
X69706525Y-72563368D01*
X69544010Y-72806589D01*
X69432068Y-73076842D01*
X69375000Y-73363740D01*
X69375000Y-73656260D01*
X69432068Y-73943158D01*
X69544010Y-74213411D01*
X69706525Y-74456632D01*
X69913368Y-74663475D01*
X70095534Y-74785195D01*
X69978645Y-74854822D01*
X69762412Y-75049731D01*
X69588359Y-75283080D01*
X69463175Y-75545901D01*
X69418524Y-75693110D01*
X69539845Y-75923000D01*
X70733000Y-75923000D01*
X70733000Y-75903000D01*
X70987000Y-75903000D01*
X70987000Y-75923000D01*
X71007000Y-75923000D01*
X71007000Y-76177000D01*
X70987000Y-76177000D01*
X70987000Y-77370814D01*
X71216891Y-77491481D01*
X71491252Y-77394157D01*
X71741355Y-77245178D01*
X71937502Y-77068374D01*
X71960498Y-77144180D01*
X72019463Y-77254494D01*
X72098815Y-77351185D01*
X72195506Y-77430537D01*
X72305820Y-77489502D01*
X72425518Y-77525812D01*
X72550000Y-77538072D01*
X74250000Y-77538072D01*
X74374482Y-77525812D01*
X74494180Y-77489502D01*
X74604494Y-77430537D01*
X74701185Y-77351185D01*
X74780537Y-77254494D01*
X74839502Y-77144180D01*
X74875812Y-77024482D01*
X74888072Y-76900000D01*
X74888072Y-75200000D01*
X74875812Y-75075518D01*
X74839502Y-74955820D01*
X74780537Y-74845506D01*
X74701185Y-74748815D01*
X74604494Y-74669463D01*
X74494180Y-74610498D01*
X74421620Y-74588487D01*
X74553475Y-74456632D01*
X74715990Y-74213411D01*
X74827932Y-73943158D01*
X74885000Y-73656260D01*
X74885000Y-73363740D01*
X74827932Y-73076842D01*
X74802045Y-73014344D01*
X78415000Y-73014344D01*
X78415000Y-73385656D01*
X78487439Y-73749834D01*
X78629534Y-74092882D01*
X78835825Y-74401618D01*
X79098382Y-74664175D01*
X79407118Y-74870466D01*
X79750166Y-75012561D01*
X80114344Y-75085000D01*
X80485656Y-75085000D01*
X80849834Y-75012561D01*
X81192882Y-74870466D01*
X81501618Y-74664175D01*
X81764175Y-74401618D01*
X81970466Y-74092882D01*
X82112561Y-73749834D01*
X82185000Y-73385656D01*
X82185000Y-73014344D01*
X82112561Y-72650166D01*
X81970466Y-72307118D01*
X81764175Y-71998382D01*
X81501618Y-71735825D01*
X81192882Y-71529534D01*
X80849834Y-71387439D01*
X80485656Y-71315000D01*
X80114344Y-71315000D01*
X79750166Y-71387439D01*
X79407118Y-71529534D01*
X79098382Y-71735825D01*
X78835825Y-71998382D01*
X78629534Y-72307118D01*
X78487439Y-72650166D01*
X78415000Y-73014344D01*
X74802045Y-73014344D01*
X74715990Y-72806589D01*
X74553475Y-72563368D01*
X74346632Y-72356525D01*
X74172240Y-72240000D01*
X74346632Y-72123475D01*
X74553475Y-71916632D01*
X74715990Y-71673411D01*
X74827932Y-71403158D01*
X74885000Y-71116260D01*
X74885000Y-70823740D01*
X74827932Y-70536842D01*
X74715990Y-70266589D01*
X74553475Y-70023368D01*
X74346632Y-69816525D01*
X74172240Y-69700000D01*
X74346632Y-69583475D01*
X74553475Y-69376632D01*
X74715990Y-69133411D01*
X74827932Y-68863158D01*
X74885000Y-68576260D01*
X74885000Y-68283740D01*
X74827932Y-67996842D01*
X74787016Y-67898061D01*
X76615000Y-67898061D01*
X76615000Y-68101939D01*
X76654774Y-68301898D01*
X76732795Y-68490256D01*
X76846063Y-68659774D01*
X76990226Y-68803937D01*
X77159744Y-68917205D01*
X77348102Y-68995226D01*
X77548061Y-69035000D01*
X77751939Y-69035000D01*
X77951898Y-68995226D01*
X78140256Y-68917205D01*
X78225000Y-68860581D01*
X78309744Y-68917205D01*
X78498102Y-68995226D01*
X78698061Y-69035000D01*
X78901939Y-69035000D01*
X79101898Y-68995226D01*
X79290256Y-68917205D01*
X79425000Y-68827172D01*
X79559744Y-68917205D01*
X79748102Y-68995226D01*
X79948061Y-69035000D01*
X80151939Y-69035000D01*
X80351898Y-68995226D01*
X80540256Y-68917205D01*
X80709774Y-68803937D01*
X80853937Y-68659774D01*
X80967205Y-68490256D01*
X81045226Y-68301898D01*
X81085000Y-68101939D01*
X81085000Y-67948061D01*
X82165000Y-67948061D01*
X82165000Y-68151939D01*
X82204774Y-68351898D01*
X82282795Y-68540256D01*
X82396063Y-68709774D01*
X82540226Y-68853937D01*
X82709744Y-68967205D01*
X82898102Y-69045226D01*
X83098061Y-69085000D01*
X83301939Y-69085000D01*
X83501898Y-69045226D01*
X83690256Y-68967205D01*
X83859774Y-68853937D01*
X84003937Y-68709774D01*
X84117205Y-68540256D01*
X84195226Y-68351898D01*
X84235000Y-68151939D01*
X84235000Y-67998061D01*
X87765000Y-67998061D01*
X87765000Y-68201939D01*
X87804774Y-68401898D01*
X87882795Y-68590256D01*
X87996063Y-68759774D01*
X88140226Y-68903937D01*
X88309744Y-69017205D01*
X88498102Y-69095226D01*
X88698061Y-69135000D01*
X88901939Y-69135000D01*
X89101898Y-69095226D01*
X89290256Y-69017205D01*
X89459774Y-68903937D01*
X89603937Y-68759774D01*
X89717205Y-68590256D01*
X89795226Y-68401898D01*
X89835000Y-68201939D01*
X89835000Y-67998061D01*
X89795226Y-67798102D01*
X89717205Y-67609744D01*
X89603937Y-67440226D01*
X89459774Y-67296063D01*
X89290256Y-67182795D01*
X89101898Y-67104774D01*
X88901939Y-67065000D01*
X88698061Y-67065000D01*
X88498102Y-67104774D01*
X88309744Y-67182795D01*
X88140226Y-67296063D01*
X87996063Y-67440226D01*
X87882795Y-67609744D01*
X87804774Y-67798102D01*
X87765000Y-67998061D01*
X84235000Y-67998061D01*
X84235000Y-67948061D01*
X84195226Y-67748102D01*
X84117205Y-67559744D01*
X84003937Y-67390226D01*
X83859774Y-67246063D01*
X83690256Y-67132795D01*
X83501898Y-67054774D01*
X83301939Y-67015000D01*
X83098061Y-67015000D01*
X82898102Y-67054774D01*
X82709744Y-67132795D01*
X82540226Y-67246063D01*
X82396063Y-67390226D01*
X82282795Y-67559744D01*
X82204774Y-67748102D01*
X82165000Y-67948061D01*
X81085000Y-67948061D01*
X81085000Y-67898061D01*
X81045226Y-67698102D01*
X80967205Y-67509744D01*
X80853937Y-67340226D01*
X80709774Y-67196063D01*
X80540256Y-67082795D01*
X80351898Y-67004774D01*
X80318150Y-66998061D01*
X107115000Y-66998061D01*
X107115000Y-67201939D01*
X107154774Y-67401898D01*
X107232795Y-67590256D01*
X107346063Y-67759774D01*
X107490226Y-67903937D01*
X107659744Y-68017205D01*
X107848102Y-68095226D01*
X108048061Y-68135000D01*
X108251939Y-68135000D01*
X108451898Y-68095226D01*
X108640256Y-68017205D01*
X108809774Y-67903937D01*
X108953937Y-67759774D01*
X109067205Y-67590256D01*
X109145226Y-67401898D01*
X109185000Y-67201939D01*
X109185000Y-66998061D01*
X109145226Y-66798102D01*
X109067205Y-66609744D01*
X108959173Y-66448061D01*
X112365000Y-66448061D01*
X112365000Y-66651939D01*
X112404774Y-66851898D01*
X112482795Y-67040256D01*
X112596063Y-67209774D01*
X112740226Y-67353937D01*
X112909744Y-67467205D01*
X113098102Y-67545226D01*
X113298061Y-67585000D01*
X113501939Y-67585000D01*
X113701898Y-67545226D01*
X113890256Y-67467205D01*
X114059774Y-67353937D01*
X114203937Y-67209774D01*
X114317205Y-67040256D01*
X114395226Y-66851898D01*
X114435000Y-66651939D01*
X114435000Y-66448061D01*
X114395226Y-66248102D01*
X114317205Y-66059744D01*
X114203937Y-65890226D01*
X114059774Y-65746063D01*
X113890256Y-65632795D01*
X113701898Y-65554774D01*
X113501939Y-65515000D01*
X113298061Y-65515000D01*
X113098102Y-65554774D01*
X112909744Y-65632795D01*
X112740226Y-65746063D01*
X112596063Y-65890226D01*
X112482795Y-66059744D01*
X112404774Y-66248102D01*
X112365000Y-66448061D01*
X108959173Y-66448061D01*
X108953937Y-66440226D01*
X108809774Y-66296063D01*
X108640256Y-66182795D01*
X108451898Y-66104774D01*
X108251939Y-66065000D01*
X108048061Y-66065000D01*
X107848102Y-66104774D01*
X107659744Y-66182795D01*
X107490226Y-66296063D01*
X107346063Y-66440226D01*
X107232795Y-66609744D01*
X107154774Y-66798102D01*
X107115000Y-66998061D01*
X80318150Y-66998061D01*
X80151939Y-66965000D01*
X79948061Y-66965000D01*
X79748102Y-67004774D01*
X79559744Y-67082795D01*
X79425000Y-67172828D01*
X79290256Y-67082795D01*
X79101898Y-67004774D01*
X78901939Y-66965000D01*
X78698061Y-66965000D01*
X78498102Y-67004774D01*
X78309744Y-67082795D01*
X78225000Y-67139419D01*
X78140256Y-67082795D01*
X77951898Y-67004774D01*
X77751939Y-66965000D01*
X77548061Y-66965000D01*
X77348102Y-67004774D01*
X77159744Y-67082795D01*
X76990226Y-67196063D01*
X76846063Y-67340226D01*
X76732795Y-67509744D01*
X76654774Y-67698102D01*
X76615000Y-67898061D01*
X74787016Y-67898061D01*
X74715990Y-67726589D01*
X74553475Y-67483368D01*
X74346632Y-67276525D01*
X74172240Y-67160000D01*
X74346632Y-67043475D01*
X74553475Y-66836632D01*
X74715990Y-66593411D01*
X74827932Y-66323158D01*
X74885000Y-66036260D01*
X74885000Y-65743740D01*
X74827932Y-65456842D01*
X74715990Y-65186589D01*
X74556611Y-64948061D01*
X75965000Y-64948061D01*
X75965000Y-65151939D01*
X76004774Y-65351898D01*
X76082795Y-65540256D01*
X76196063Y-65709774D01*
X76340226Y-65853937D01*
X76509744Y-65967205D01*
X76698102Y-66045226D01*
X76898061Y-66085000D01*
X77101939Y-66085000D01*
X77301898Y-66045226D01*
X77490256Y-65967205D01*
X77659774Y-65853937D01*
X77803937Y-65709774D01*
X77917205Y-65540256D01*
X77995226Y-65351898D01*
X78035000Y-65151939D01*
X78035000Y-64948061D01*
X77995226Y-64748102D01*
X77917205Y-64559744D01*
X77909399Y-64548061D01*
X81915000Y-64548061D01*
X81915000Y-64751939D01*
X81954774Y-64951898D01*
X82032795Y-65140256D01*
X82146063Y-65309774D01*
X82290226Y-65453937D01*
X82459744Y-65567205D01*
X82648102Y-65645226D01*
X82848061Y-65685000D01*
X83051939Y-65685000D01*
X83251898Y-65645226D01*
X83440256Y-65567205D01*
X83609774Y-65453937D01*
X83709163Y-65354548D01*
X83746063Y-65409774D01*
X83890226Y-65553937D01*
X84059744Y-65667205D01*
X84248102Y-65745226D01*
X84448061Y-65785000D01*
X84651939Y-65785000D01*
X84851898Y-65745226D01*
X85040256Y-65667205D01*
X85209774Y-65553937D01*
X85353937Y-65409774D01*
X85467205Y-65240256D01*
X85545226Y-65051898D01*
X85585000Y-64851939D01*
X85585000Y-64648061D01*
X85545226Y-64448102D01*
X85467205Y-64259744D01*
X85353937Y-64090226D01*
X85209774Y-63946063D01*
X85040256Y-63832795D01*
X84851898Y-63754774D01*
X84651939Y-63715000D01*
X84448061Y-63715000D01*
X84248102Y-63754774D01*
X84059744Y-63832795D01*
X83890226Y-63946063D01*
X83790837Y-64045452D01*
X83753937Y-63990226D01*
X83609774Y-63846063D01*
X83440256Y-63732795D01*
X83251898Y-63654774D01*
X83051939Y-63615000D01*
X82848061Y-63615000D01*
X82648102Y-63654774D01*
X82459744Y-63732795D01*
X82290226Y-63846063D01*
X82146063Y-63990226D01*
X82032795Y-64159744D01*
X81954774Y-64348102D01*
X81915000Y-64548061D01*
X77909399Y-64548061D01*
X77803937Y-64390226D01*
X77659774Y-64246063D01*
X77490256Y-64132795D01*
X77301898Y-64054774D01*
X77101939Y-64015000D01*
X76898061Y-64015000D01*
X76698102Y-64054774D01*
X76509744Y-64132795D01*
X76340226Y-64246063D01*
X76196063Y-64390226D01*
X76082795Y-64559744D01*
X76004774Y-64748102D01*
X75965000Y-64948061D01*
X74556611Y-64948061D01*
X74553475Y-64943368D01*
X74346632Y-64736525D01*
X74103411Y-64574010D01*
X73833158Y-64462068D01*
X73546260Y-64405000D01*
X73253740Y-64405000D01*
X72966842Y-64462068D01*
X72696589Y-64574010D01*
X72453368Y-64736525D01*
X72246525Y-64943368D01*
X72128900Y-65119406D01*
X71957588Y-64889731D01*
X71741355Y-64694822D01*
X71491252Y-64545843D01*
X71216891Y-64448519D01*
X70987000Y-64569186D01*
X70987000Y-65763000D01*
X71007000Y-65763000D01*
X71007000Y-66017000D01*
X70987000Y-66017000D01*
X70987000Y-66037000D01*
X70733000Y-66037000D01*
X70733000Y-66017000D01*
X69539845Y-66017000D01*
X69418524Y-66246890D01*
X69463175Y-66394099D01*
X69588359Y-66656920D01*
X69762412Y-66890269D01*
X69978645Y-67085178D01*
X70095534Y-67154805D01*
X69913368Y-67276525D01*
X69706525Y-67483368D01*
X69544010Y-67726589D01*
X69432068Y-67996842D01*
X69375000Y-68283740D01*
X68660000Y-68283740D01*
X68660000Y-65533110D01*
X69418524Y-65533110D01*
X69539845Y-65763000D01*
X70733000Y-65763000D01*
X70733000Y-64569186D01*
X70503109Y-64448519D01*
X70228748Y-64545843D01*
X69978645Y-64694822D01*
X69762412Y-64889731D01*
X69588359Y-65123080D01*
X69463175Y-65385901D01*
X69418524Y-65533110D01*
X68660000Y-65533110D01*
X68660000Y-64127699D01*
X68753202Y-64220901D01*
X68957926Y-64357693D01*
X69185402Y-64451917D01*
X69426890Y-64499952D01*
X69673110Y-64499952D01*
X69914598Y-64451917D01*
X70142074Y-64357693D01*
X70346798Y-64220901D01*
X70520901Y-64046798D01*
X70657693Y-63842074D01*
X70751917Y-63614598D01*
X70799952Y-63373110D01*
X70799952Y-63126890D01*
X70751917Y-62885402D01*
X70657693Y-62657926D01*
X70520901Y-62453202D01*
X70346798Y-62279099D01*
X70142074Y-62142307D01*
X69914598Y-62048083D01*
X69673110Y-62000048D01*
X69426890Y-62000048D01*
X69185402Y-62048083D01*
X68957926Y-62142307D01*
X68753202Y-62279099D01*
X68660000Y-62372301D01*
X68660000Y-60089721D01*
X70165000Y-60089721D01*
X70165000Y-60510279D01*
X70247047Y-60922756D01*
X70407988Y-61311302D01*
X70641637Y-61660983D01*
X70939017Y-61958363D01*
X71288698Y-62192012D01*
X71677244Y-62352953D01*
X72089721Y-62435000D01*
X72510279Y-62435000D01*
X72922756Y-62352953D01*
X73311302Y-62192012D01*
X73660983Y-61958363D01*
X73958363Y-61660983D01*
X74192012Y-61311302D01*
X74280339Y-61098061D01*
X76065000Y-61098061D01*
X76065000Y-61301939D01*
X76104774Y-61501898D01*
X76182795Y-61690256D01*
X76296063Y-61859774D01*
X76440226Y-62003937D01*
X76609744Y-62117205D01*
X76798102Y-62195226D01*
X76998061Y-62235000D01*
X77201939Y-62235000D01*
X77401898Y-62195226D01*
X77590256Y-62117205D01*
X77759774Y-62003937D01*
X77903937Y-61859774D01*
X78017205Y-61690256D01*
X78095226Y-61501898D01*
X78105934Y-61448061D01*
X93915000Y-61448061D01*
X93915000Y-61651939D01*
X93954774Y-61851898D01*
X94032795Y-62040256D01*
X94146063Y-62209774D01*
X94186289Y-62250000D01*
X94146063Y-62290226D01*
X94032795Y-62459744D01*
X93954774Y-62648102D01*
X93915000Y-62848061D01*
X93915000Y-63051939D01*
X93954774Y-63251898D01*
X94032795Y-63440256D01*
X94146063Y-63609774D01*
X94290226Y-63753937D01*
X94459744Y-63867205D01*
X94648102Y-63945226D01*
X94848061Y-63985000D01*
X95051939Y-63985000D01*
X95251898Y-63945226D01*
X95440256Y-63867205D01*
X95609774Y-63753937D01*
X95753937Y-63609774D01*
X95795172Y-63548061D01*
X99015000Y-63548061D01*
X99015000Y-63751939D01*
X99054774Y-63951898D01*
X99132795Y-64140256D01*
X99246063Y-64309774D01*
X99390226Y-64453937D01*
X99559744Y-64567205D01*
X99748102Y-64645226D01*
X99948061Y-64685000D01*
X100151939Y-64685000D01*
X100351898Y-64645226D01*
X100540256Y-64567205D01*
X100709774Y-64453937D01*
X100853937Y-64309774D01*
X100967205Y-64140256D01*
X101045226Y-63951898D01*
X101085000Y-63751939D01*
X101085000Y-63548061D01*
X101045226Y-63348102D01*
X100967205Y-63159744D01*
X100853937Y-62990226D01*
X100709774Y-62846063D01*
X100540256Y-62732795D01*
X100351898Y-62654774D01*
X100151939Y-62615000D01*
X99948061Y-62615000D01*
X99748102Y-62654774D01*
X99559744Y-62732795D01*
X99390226Y-62846063D01*
X99246063Y-62990226D01*
X99132795Y-63159744D01*
X99054774Y-63348102D01*
X99015000Y-63548061D01*
X95795172Y-63548061D01*
X95867205Y-63440256D01*
X95945226Y-63251898D01*
X95985000Y-63051939D01*
X95985000Y-62848061D01*
X95945226Y-62648102D01*
X95867205Y-62459744D01*
X95753937Y-62290226D01*
X95713711Y-62250000D01*
X95753937Y-62209774D01*
X95867205Y-62040256D01*
X95945226Y-61851898D01*
X95985000Y-61651939D01*
X95985000Y-61448061D01*
X95945226Y-61248102D01*
X95867205Y-61059744D01*
X95753937Y-60890226D01*
X95609774Y-60746063D01*
X95440256Y-60632795D01*
X95251898Y-60554774D01*
X95051939Y-60515000D01*
X94848061Y-60515000D01*
X94648102Y-60554774D01*
X94459744Y-60632795D01*
X94290226Y-60746063D01*
X94146063Y-60890226D01*
X94032795Y-61059744D01*
X93954774Y-61248102D01*
X93915000Y-61448061D01*
X78105934Y-61448061D01*
X78135000Y-61301939D01*
X78135000Y-61098061D01*
X78095226Y-60898102D01*
X78017205Y-60709744D01*
X77903937Y-60540226D01*
X77759774Y-60396063D01*
X77590256Y-60282795D01*
X77401898Y-60204774D01*
X77201939Y-60165000D01*
X76998061Y-60165000D01*
X76798102Y-60204774D01*
X76609744Y-60282795D01*
X76440226Y-60396063D01*
X76296063Y-60540226D01*
X76182795Y-60709744D01*
X76104774Y-60898102D01*
X76065000Y-61098061D01*
X74280339Y-61098061D01*
X74352953Y-60922756D01*
X74435000Y-60510279D01*
X74435000Y-60089721D01*
X74406822Y-59948061D01*
X81965000Y-59948061D01*
X81965000Y-60151939D01*
X82004774Y-60351898D01*
X82082795Y-60540256D01*
X82196063Y-60709774D01*
X82340226Y-60853937D01*
X82509744Y-60967205D01*
X82698102Y-61045226D01*
X82898061Y-61085000D01*
X83101939Y-61085000D01*
X83301898Y-61045226D01*
X83490256Y-60967205D01*
X83659774Y-60853937D01*
X83803937Y-60709774D01*
X83917205Y-60540256D01*
X83995226Y-60351898D01*
X84035000Y-60151939D01*
X84035000Y-59948061D01*
X83995226Y-59748102D01*
X83917205Y-59559744D01*
X83803937Y-59390226D01*
X83659774Y-59246063D01*
X83625643Y-59223258D01*
X83640256Y-59217205D01*
X83809774Y-59103937D01*
X83953937Y-58959774D01*
X84067205Y-58790256D01*
X84145226Y-58601898D01*
X84185000Y-58401939D01*
X84185000Y-58198061D01*
X84145226Y-57998102D01*
X84067205Y-57809744D01*
X83981794Y-57681917D01*
X84003937Y-57659774D01*
X84117205Y-57490256D01*
X84195226Y-57301898D01*
X84235000Y-57101939D01*
X84235000Y-57048061D01*
X93865000Y-57048061D01*
X93865000Y-57251939D01*
X93904774Y-57451898D01*
X93982795Y-57640256D01*
X94096063Y-57809774D01*
X94240226Y-57953937D01*
X94409744Y-58067205D01*
X94598102Y-58145226D01*
X94798061Y-58185000D01*
X95001939Y-58185000D01*
X95201898Y-58145226D01*
X95390256Y-58067205D01*
X95559774Y-57953937D01*
X95703937Y-57809774D01*
X95817205Y-57640256D01*
X95895226Y-57451898D01*
X95935000Y-57251939D01*
X95935000Y-57048061D01*
X95895226Y-56848102D01*
X95817205Y-56659744D01*
X95703937Y-56490226D01*
X95559774Y-56346063D01*
X95390256Y-56232795D01*
X95300317Y-56195541D01*
X95301898Y-56195226D01*
X95490256Y-56117205D01*
X95659774Y-56003937D01*
X95803937Y-55859774D01*
X95917205Y-55690256D01*
X95995226Y-55501898D01*
X96035000Y-55301939D01*
X96035000Y-55198061D01*
X110065000Y-55198061D01*
X110065000Y-55401939D01*
X110104774Y-55601898D01*
X110182795Y-55790256D01*
X110296063Y-55959774D01*
X110440226Y-56103937D01*
X110609744Y-56217205D01*
X110798102Y-56295226D01*
X110998061Y-56335000D01*
X111201939Y-56335000D01*
X111401898Y-56295226D01*
X111590256Y-56217205D01*
X111759774Y-56103937D01*
X111903937Y-55959774D01*
X112017205Y-55790256D01*
X112095226Y-55601898D01*
X112135000Y-55401939D01*
X112135000Y-55198061D01*
X112095226Y-54998102D01*
X112017205Y-54809744D01*
X111903937Y-54640226D01*
X111759774Y-54496063D01*
X111590256Y-54382795D01*
X111401898Y-54304774D01*
X111201939Y-54265000D01*
X110998061Y-54265000D01*
X110798102Y-54304774D01*
X110609744Y-54382795D01*
X110440226Y-54496063D01*
X110296063Y-54640226D01*
X110182795Y-54809744D01*
X110104774Y-54998102D01*
X110065000Y-55198061D01*
X96035000Y-55198061D01*
X96035000Y-55098061D01*
X95995226Y-54898102D01*
X95917205Y-54709744D01*
X95803937Y-54540226D01*
X95659774Y-54396063D01*
X95490256Y-54282795D01*
X95301898Y-54204774D01*
X95101939Y-54165000D01*
X94898061Y-54165000D01*
X94698102Y-54204774D01*
X94509744Y-54282795D01*
X94340226Y-54396063D01*
X94196063Y-54540226D01*
X94082795Y-54709744D01*
X94004774Y-54898102D01*
X93965000Y-55098061D01*
X93965000Y-55301939D01*
X94004774Y-55501898D01*
X94082795Y-55690256D01*
X94196063Y-55859774D01*
X94340226Y-56003937D01*
X94509744Y-56117205D01*
X94599683Y-56154459D01*
X94598102Y-56154774D01*
X94409744Y-56232795D01*
X94240226Y-56346063D01*
X94096063Y-56490226D01*
X93982795Y-56659744D01*
X93904774Y-56848102D01*
X93865000Y-57048061D01*
X84235000Y-57048061D01*
X84235000Y-56898061D01*
X84195226Y-56698102D01*
X84117205Y-56509744D01*
X84003937Y-56340226D01*
X83859774Y-56196063D01*
X83690256Y-56082795D01*
X83501898Y-56004774D01*
X83301939Y-55965000D01*
X83098061Y-55965000D01*
X82898102Y-56004774D01*
X82709744Y-56082795D01*
X82540226Y-56196063D01*
X82396063Y-56340226D01*
X82282795Y-56509744D01*
X82204774Y-56698102D01*
X82165000Y-56898061D01*
X82165000Y-57101939D01*
X82204774Y-57301898D01*
X82282795Y-57490256D01*
X82368206Y-57618083D01*
X82346063Y-57640226D01*
X82232795Y-57809744D01*
X82154774Y-57998102D01*
X82115000Y-58198061D01*
X82115000Y-58401939D01*
X82154774Y-58601898D01*
X82232795Y-58790256D01*
X82346063Y-58959774D01*
X82490226Y-59103937D01*
X82524357Y-59126742D01*
X82509744Y-59132795D01*
X82340226Y-59246063D01*
X82196063Y-59390226D01*
X82082795Y-59559744D01*
X82004774Y-59748102D01*
X81965000Y-59948061D01*
X74406822Y-59948061D01*
X74352953Y-59677244D01*
X74192012Y-59288698D01*
X73958363Y-58939017D01*
X73660983Y-58641637D01*
X73311302Y-58407988D01*
X72922756Y-58247047D01*
X72510279Y-58165000D01*
X72089721Y-58165000D01*
X71677244Y-58247047D01*
X71288698Y-58407988D01*
X70939017Y-58641637D01*
X70641637Y-58939017D01*
X70407988Y-59288698D01*
X70247047Y-59677244D01*
X70165000Y-60089721D01*
X68660000Y-60089721D01*
X68660000Y-58048061D01*
X78165000Y-58048061D01*
X78165000Y-58251939D01*
X78204774Y-58451898D01*
X78282795Y-58640256D01*
X78396063Y-58809774D01*
X78540226Y-58953937D01*
X78709744Y-59067205D01*
X78898102Y-59145226D01*
X79098061Y-59185000D01*
X79301939Y-59185000D01*
X79501898Y-59145226D01*
X79690256Y-59067205D01*
X79859774Y-58953937D01*
X80003937Y-58809774D01*
X80117205Y-58640256D01*
X80195226Y-58451898D01*
X80235000Y-58251939D01*
X80235000Y-58048061D01*
X80195226Y-57848102D01*
X80117205Y-57659744D01*
X80003937Y-57490226D01*
X79859774Y-57346063D01*
X79690256Y-57232795D01*
X79501898Y-57154774D01*
X79301939Y-57115000D01*
X79098061Y-57115000D01*
X78898102Y-57154774D01*
X78709744Y-57232795D01*
X78540226Y-57346063D01*
X78396063Y-57490226D01*
X78282795Y-57659744D01*
X78204774Y-57848102D01*
X78165000Y-58048061D01*
X68660000Y-58048061D01*
X68660000Y-54098061D01*
X77815000Y-54098061D01*
X77815000Y-54301939D01*
X77854774Y-54501898D01*
X77932795Y-54690256D01*
X78046063Y-54859774D01*
X78190226Y-55003937D01*
X78359744Y-55117205D01*
X78548102Y-55195226D01*
X78748061Y-55235000D01*
X78951939Y-55235000D01*
X79151898Y-55195226D01*
X79340256Y-55117205D01*
X79509774Y-55003937D01*
X79653937Y-54859774D01*
X79767205Y-54690256D01*
X79821962Y-54558061D01*
X81815000Y-54558061D01*
X81815000Y-54761939D01*
X81854774Y-54961898D01*
X81932795Y-55150256D01*
X82046063Y-55319774D01*
X82190226Y-55463937D01*
X82359744Y-55577205D01*
X82548102Y-55655226D01*
X82748061Y-55695000D01*
X82951939Y-55695000D01*
X83151898Y-55655226D01*
X83340256Y-55577205D01*
X83509774Y-55463937D01*
X83653937Y-55319774D01*
X83767205Y-55150256D01*
X83845226Y-54961898D01*
X83885000Y-54761939D01*
X83885000Y-54558061D01*
X83845226Y-54358102D01*
X83767205Y-54169744D01*
X83653937Y-54000226D01*
X83509774Y-53856063D01*
X83340256Y-53742795D01*
X83151898Y-53664774D01*
X82951939Y-53625000D01*
X82748061Y-53625000D01*
X82548102Y-53664774D01*
X82359744Y-53742795D01*
X82190226Y-53856063D01*
X82046063Y-54000226D01*
X81932795Y-54169744D01*
X81854774Y-54358102D01*
X81815000Y-54558061D01*
X79821962Y-54558061D01*
X79845226Y-54501898D01*
X79885000Y-54301939D01*
X79885000Y-54098061D01*
X79845226Y-53898102D01*
X79767205Y-53709744D01*
X79653937Y-53540226D01*
X79509774Y-53396063D01*
X79340256Y-53282795D01*
X79151898Y-53204774D01*
X78951939Y-53165000D01*
X78748061Y-53165000D01*
X78548102Y-53204774D01*
X78359744Y-53282795D01*
X78190226Y-53396063D01*
X78046063Y-53540226D01*
X77932795Y-53709744D01*
X77854774Y-53898102D01*
X77815000Y-54098061D01*
X68660000Y-54098061D01*
X68660000Y-51898061D01*
X73465000Y-51898061D01*
X73465000Y-52101939D01*
X73504774Y-52301898D01*
X73582795Y-52490256D01*
X73696063Y-52659774D01*
X73840226Y-52803937D01*
X74009744Y-52917205D01*
X74198102Y-52995226D01*
X74398061Y-53035000D01*
X74601939Y-53035000D01*
X74801898Y-52995226D01*
X74990256Y-52917205D01*
X75159774Y-52803937D01*
X75303937Y-52659774D01*
X75417205Y-52490256D01*
X75476104Y-52348061D01*
X85915000Y-52348061D01*
X85915000Y-52551939D01*
X85954774Y-52751898D01*
X86032795Y-52940256D01*
X86146063Y-53109774D01*
X86290226Y-53253937D01*
X86459744Y-53367205D01*
X86648102Y-53445226D01*
X86848061Y-53485000D01*
X87051939Y-53485000D01*
X87251898Y-53445226D01*
X87440256Y-53367205D01*
X87609774Y-53253937D01*
X87753937Y-53109774D01*
X87867205Y-52940256D01*
X87945226Y-52751898D01*
X87985000Y-52551939D01*
X87985000Y-52348061D01*
X87945226Y-52148102D01*
X87867205Y-51959744D01*
X87753937Y-51790226D01*
X87609774Y-51646063D01*
X87440256Y-51532795D01*
X87251898Y-51454774D01*
X87051939Y-51415000D01*
X86848061Y-51415000D01*
X86648102Y-51454774D01*
X86459744Y-51532795D01*
X86290226Y-51646063D01*
X86146063Y-51790226D01*
X86032795Y-51959744D01*
X85954774Y-52148102D01*
X85915000Y-52348061D01*
X75476104Y-52348061D01*
X75495226Y-52301898D01*
X75535000Y-52101939D01*
X75535000Y-51898061D01*
X75495226Y-51698102D01*
X75417205Y-51509744D01*
X75303937Y-51340226D01*
X75159774Y-51196063D01*
X74990256Y-51082795D01*
X74801898Y-51004774D01*
X74601939Y-50965000D01*
X74398061Y-50965000D01*
X74198102Y-51004774D01*
X74009744Y-51082795D01*
X73840226Y-51196063D01*
X73696063Y-51340226D01*
X73582795Y-51509744D01*
X73504774Y-51698102D01*
X73465000Y-51898061D01*
X68660000Y-51898061D01*
X68660000Y-50048061D01*
X70515000Y-50048061D01*
X70515000Y-50251939D01*
X70554774Y-50451898D01*
X70632795Y-50640256D01*
X70746063Y-50809774D01*
X70890226Y-50953937D01*
X71059744Y-51067205D01*
X71248102Y-51145226D01*
X71448061Y-51185000D01*
X71651939Y-51185000D01*
X71851898Y-51145226D01*
X72040256Y-51067205D01*
X72209774Y-50953937D01*
X72353937Y-50809774D01*
X72467205Y-50640256D01*
X72545226Y-50451898D01*
X72585000Y-50251939D01*
X72585000Y-50048061D01*
X72545226Y-49848102D01*
X72467205Y-49659744D01*
X72353937Y-49490226D01*
X72209774Y-49346063D01*
X72040256Y-49232795D01*
X71851898Y-49154774D01*
X71651939Y-49115000D01*
X71448061Y-49115000D01*
X71248102Y-49154774D01*
X71059744Y-49232795D01*
X70890226Y-49346063D01*
X70746063Y-49490226D01*
X70632795Y-49659744D01*
X70554774Y-49848102D01*
X70515000Y-50048061D01*
X68660000Y-50048061D01*
X68660000Y-45598061D01*
X69115000Y-45598061D01*
X69115000Y-45801939D01*
X69154774Y-46001898D01*
X69232795Y-46190256D01*
X69346063Y-46359774D01*
X69490226Y-46503937D01*
X69659744Y-46617205D01*
X69848102Y-46695226D01*
X70048061Y-46735000D01*
X70251939Y-46735000D01*
X70292711Y-46726890D01*
X71200048Y-46726890D01*
X71200048Y-46973110D01*
X71248083Y-47214598D01*
X71342307Y-47442074D01*
X71479099Y-47646798D01*
X71653202Y-47820901D01*
X71857926Y-47957693D01*
X72085402Y-48051917D01*
X72326890Y-48099952D01*
X72573110Y-48099952D01*
X72814598Y-48051917D01*
X73042074Y-47957693D01*
X73246798Y-47820901D01*
X73420901Y-47646798D01*
X73557693Y-47442074D01*
X73651917Y-47214598D01*
X73684657Y-47050000D01*
X107461928Y-47050000D01*
X107474188Y-47174482D01*
X107510498Y-47294180D01*
X107569463Y-47404494D01*
X107648815Y-47501185D01*
X107745506Y-47580537D01*
X107855820Y-47639502D01*
X107928380Y-47661513D01*
X107796525Y-47793368D01*
X107634010Y-48036589D01*
X107522068Y-48306842D01*
X107465000Y-48593740D01*
X107465000Y-48886260D01*
X107522068Y-49173158D01*
X107634010Y-49443411D01*
X107796525Y-49686632D01*
X108003368Y-49893475D01*
X108177760Y-50010000D01*
X108003368Y-50126525D01*
X107796525Y-50333368D01*
X107634010Y-50576589D01*
X107522068Y-50846842D01*
X107465000Y-51133740D01*
X107465000Y-51426260D01*
X107522068Y-51713158D01*
X107634010Y-51983411D01*
X107796525Y-52226632D01*
X108003368Y-52433475D01*
X108246589Y-52595990D01*
X108516842Y-52707932D01*
X108803740Y-52765000D01*
X109096260Y-52765000D01*
X109383158Y-52707932D01*
X109653411Y-52595990D01*
X109896632Y-52433475D01*
X110103475Y-52226632D01*
X110265990Y-51983411D01*
X110377932Y-51713158D01*
X110435000Y-51426260D01*
X110435000Y-51133740D01*
X110377932Y-50846842D01*
X110265990Y-50576589D01*
X110103475Y-50333368D01*
X109896632Y-50126525D01*
X109722240Y-50010000D01*
X109896632Y-49893475D01*
X110103475Y-49686632D01*
X110151776Y-49614344D01*
X112315000Y-49614344D01*
X112315000Y-49985656D01*
X112387439Y-50349834D01*
X112529534Y-50692882D01*
X112735825Y-51001618D01*
X112998382Y-51264175D01*
X113307118Y-51470466D01*
X113650166Y-51612561D01*
X114014344Y-51685000D01*
X114385656Y-51685000D01*
X114749834Y-51612561D01*
X115092882Y-51470466D01*
X115401618Y-51264175D01*
X115664175Y-51001618D01*
X115870466Y-50692882D01*
X116012561Y-50349834D01*
X116085000Y-49985656D01*
X116085000Y-49614344D01*
X116012561Y-49250166D01*
X115870466Y-48907118D01*
X115664175Y-48598382D01*
X115401618Y-48335825D01*
X115092882Y-48129534D01*
X114749834Y-47987439D01*
X114385656Y-47915000D01*
X114014344Y-47915000D01*
X113650166Y-47987439D01*
X113307118Y-48129534D01*
X112998382Y-48335825D01*
X112735825Y-48598382D01*
X112529534Y-48907118D01*
X112387439Y-49250166D01*
X112315000Y-49614344D01*
X110151776Y-49614344D01*
X110265990Y-49443411D01*
X110377932Y-49173158D01*
X110435000Y-48886260D01*
X110435000Y-48593740D01*
X110377932Y-48306842D01*
X110265990Y-48036589D01*
X110103475Y-47793368D01*
X109971620Y-47661513D01*
X110044180Y-47639502D01*
X110154494Y-47580537D01*
X110251185Y-47501185D01*
X110330537Y-47404494D01*
X110389502Y-47294180D01*
X110425812Y-47174482D01*
X110438072Y-47050000D01*
X110435000Y-46485750D01*
X110276250Y-46327000D01*
X109077000Y-46327000D01*
X109077000Y-46347000D01*
X108823000Y-46347000D01*
X108823000Y-46327000D01*
X107623750Y-46327000D01*
X107465000Y-46485750D01*
X107461928Y-47050000D01*
X73684657Y-47050000D01*
X73699952Y-46973110D01*
X73699952Y-46726890D01*
X73651917Y-46485402D01*
X73557693Y-46257926D01*
X73420901Y-46053202D01*
X73246798Y-45879099D01*
X73042074Y-45742307D01*
X72814598Y-45648083D01*
X72573110Y-45600048D01*
X72326890Y-45600048D01*
X72085402Y-45648083D01*
X71857926Y-45742307D01*
X71653202Y-45879099D01*
X71479099Y-46053202D01*
X71342307Y-46257926D01*
X71248083Y-46485402D01*
X71200048Y-46726890D01*
X70292711Y-46726890D01*
X70451898Y-46695226D01*
X70640256Y-46617205D01*
X70809774Y-46503937D01*
X70953937Y-46359774D01*
X71067205Y-46190256D01*
X71145226Y-46001898D01*
X71185000Y-45801939D01*
X71185000Y-45598061D01*
X71145226Y-45398102D01*
X71125302Y-45350000D01*
X107461928Y-45350000D01*
X107465000Y-45914250D01*
X107623750Y-46073000D01*
X108823000Y-46073000D01*
X108823000Y-44873750D01*
X109077000Y-44873750D01*
X109077000Y-46073000D01*
X110276250Y-46073000D01*
X110435000Y-45914250D01*
X110438072Y-45350000D01*
X110425812Y-45225518D01*
X110389502Y-45105820D01*
X110330537Y-44995506D01*
X110251185Y-44898815D01*
X110154494Y-44819463D01*
X110044180Y-44760498D01*
X109924482Y-44724188D01*
X109800000Y-44711928D01*
X109235750Y-44715000D01*
X109077000Y-44873750D01*
X108823000Y-44873750D01*
X108664250Y-44715000D01*
X108100000Y-44711928D01*
X107975518Y-44724188D01*
X107855820Y-44760498D01*
X107745506Y-44819463D01*
X107648815Y-44898815D01*
X107569463Y-44995506D01*
X107510498Y-45105820D01*
X107474188Y-45225518D01*
X107461928Y-45350000D01*
X71125302Y-45350000D01*
X71067205Y-45209744D01*
X70953937Y-45040226D01*
X70809774Y-44896063D01*
X70640256Y-44782795D01*
X70451898Y-44704774D01*
X70376221Y-44689721D01*
X112065000Y-44689721D01*
X112065000Y-45110279D01*
X112147047Y-45522756D01*
X112307988Y-45911302D01*
X112541637Y-46260983D01*
X112839017Y-46558363D01*
X113188698Y-46792012D01*
X113577244Y-46952953D01*
X113989721Y-47035000D01*
X114410279Y-47035000D01*
X114822756Y-46952953D01*
X115211302Y-46792012D01*
X115560983Y-46558363D01*
X115858363Y-46260983D01*
X116092012Y-45911302D01*
X116252953Y-45522756D01*
X116335000Y-45110279D01*
X116335000Y-44689721D01*
X116252953Y-44277244D01*
X116092012Y-43888698D01*
X115858363Y-43539017D01*
X115560983Y-43241637D01*
X115211302Y-43007988D01*
X114822756Y-42847047D01*
X114410279Y-42765000D01*
X113989721Y-42765000D01*
X113577244Y-42847047D01*
X113188698Y-43007988D01*
X112839017Y-43241637D01*
X112541637Y-43539017D01*
X112307988Y-43888698D01*
X112147047Y-44277244D01*
X112065000Y-44689721D01*
X70376221Y-44689721D01*
X70251939Y-44665000D01*
X70048061Y-44665000D01*
X69848102Y-44704774D01*
X69659744Y-44782795D01*
X69490226Y-44896063D01*
X69346063Y-45040226D01*
X69232795Y-45209744D01*
X69154774Y-45398102D01*
X69115000Y-45598061D01*
X68660000Y-45598061D01*
X68660000Y-42848061D01*
X85065000Y-42848061D01*
X85065000Y-43051939D01*
X85104774Y-43251898D01*
X85182795Y-43440256D01*
X85296063Y-43609774D01*
X85440226Y-43753937D01*
X85609744Y-43867205D01*
X85798102Y-43945226D01*
X85998061Y-43985000D01*
X86201939Y-43985000D01*
X86401898Y-43945226D01*
X86590256Y-43867205D01*
X86759774Y-43753937D01*
X86903937Y-43609774D01*
X87017205Y-43440256D01*
X87095226Y-43251898D01*
X87135000Y-43051939D01*
X87135000Y-42848061D01*
X87095226Y-42648102D01*
X87017205Y-42459744D01*
X86903937Y-42290226D01*
X86759774Y-42146063D01*
X86590256Y-42032795D01*
X86401898Y-41954774D01*
X86201939Y-41915000D01*
X85998061Y-41915000D01*
X85798102Y-41954774D01*
X85609744Y-42032795D01*
X85440226Y-42146063D01*
X85296063Y-42290226D01*
X85182795Y-42459744D01*
X85104774Y-42648102D01*
X85065000Y-42848061D01*
X68660000Y-42848061D01*
X68660000Y-41660000D01*
X117540000Y-41660000D01*
X117540000Y-51831447D01*
G37*
%TD.AperFunction*%
%TD*%
M02*
