%TF.GenerationSoftware,KiCad,Pcbnew,(5.1.10-1-10_14)*%
%TF.CreationDate,2021-07-23T11:32:30+02:00*%
%TF.ProjectId,WiredSEK,57697265-6453-4454-9b2e-6b696361645f,rev?*%
%TF.SameCoordinates,Original*%
%TF.FileFunction,Soldermask,Bot*%
%TF.FilePolarity,Negative*%
%FSLAX46Y46*%
G04 Gerber Fmt 4.6, Leading zero omitted, Abs format (unit mm)*
G04 Created by KiCad (PCBNEW (5.1.10-1-10_14)) date 2021-07-23 11:32:30*
%MOMM*%
%LPD*%
G01*
G04 APERTURE LIST*
%ADD10C,1.500000*%
%ADD11R,0.400000X1.400000*%
%ADD12O,0.900000X1.600000*%
%ADD13C,1.000000*%
%ADD14O,1.700000X1.700000*%
%ADD15R,1.700000X1.700000*%
%ADD16C,3.000000*%
%ADD17C,2.500000*%
G04 APERTURE END LIST*
D10*
%TO.C,TP7*%
X100100000Y-70000000D03*
%TD*%
D11*
%TO.C,J2*%
X88750000Y-77050000D03*
X88100000Y-77050000D03*
X87450000Y-77050000D03*
X86800000Y-77050000D03*
X86150000Y-77050000D03*
D12*
X91550000Y-73400000D03*
X83350000Y-73400000D03*
X83350000Y-76950000D03*
X91550000Y-76950000D03*
D13*
X84450000Y-75350000D03*
X90450000Y-75350000D03*
%TD*%
D14*
%TO.C,J4*%
X108950000Y-51280000D03*
X108950000Y-48740000D03*
D15*
X108950000Y-46200000D03*
%TD*%
D10*
%TO.C,TP15*%
X96700000Y-74500000D03*
%TD*%
%TO.C,TP14*%
X96700000Y-68550000D03*
%TD*%
%TO.C,TP13*%
X110950000Y-47800000D03*
%TD*%
%TO.C,TP12*%
X111000000Y-52050000D03*
%TD*%
%TO.C,TP11*%
X76550000Y-66700000D03*
%TD*%
%TO.C,TP10*%
X76550000Y-73500000D03*
%TD*%
%TO.C,TP9*%
X76550000Y-70850000D03*
%TD*%
%TO.C,TP8*%
X76550000Y-76150000D03*
%TD*%
%TO.C,TP5*%
X109550000Y-71600000D03*
%TD*%
%TO.C,TP4*%
X109550000Y-69050000D03*
%TD*%
%TO.C,TP3*%
X109200000Y-65800000D03*
%TD*%
%TO.C,TP2*%
X73200000Y-54700000D03*
%TD*%
%TO.C,TP1*%
X73200000Y-52000000D03*
%TD*%
D14*
%TO.C,J5*%
X106400000Y-69080000D03*
X106400000Y-71620000D03*
X106400000Y-74160000D03*
D15*
X106400000Y-76700000D03*
%TD*%
D14*
%TO.C,J3*%
X70860000Y-65890000D03*
X73400000Y-65890000D03*
X70860000Y-68430000D03*
X73400000Y-68430000D03*
X70860000Y-70970000D03*
X73400000Y-70970000D03*
X70860000Y-73510000D03*
X73400000Y-73510000D03*
X70860000Y-76050000D03*
D15*
X73400000Y-76050000D03*
%TD*%
D16*
%TO.C,H2*%
X72300000Y-60300000D03*
%TD*%
D17*
%TO.C,H4*%
X80300000Y-73200000D03*
%TD*%
%TO.C,H3*%
X114200000Y-49800000D03*
%TD*%
D16*
%TO.C,H1*%
X114200000Y-44900000D03*
%TD*%
M02*
